G75*
G70*
%OFA0B0*%
%FSLAX24Y24*%
%IPPOS*%
%LPD*%
%AMOC8*
5,1,8,0,0,1.08239X$1,22.5*
%
%ADD10R,0.1181X0.0787*%
%ADD11R,0.0787X0.0591*%
%ADD12C,0.0710*%
%ADD13C,0.0513*%
%ADD14C,0.0634*%
%ADD15R,0.0671X0.0592*%
%ADD16R,0.0592X0.0671*%
%ADD17OC8,0.0634*%
%ADD18C,0.1661*%
%ADD19R,0.0671X0.0710*%
%ADD20R,0.1655X0.1655*%
%ADD21R,0.0157X0.0443*%
%ADD22R,0.0443X0.0157*%
%ADD23C,0.1080*%
%ADD24OC8,0.0730*%
%ADD25C,0.0730*%
%ADD26R,0.0316X0.0946*%
%ADD27C,0.1346*%
%ADD28R,0.0434X0.0237*%
%ADD29C,0.0434*%
%ADD30R,0.1064X0.0867*%
%ADD31R,0.1379X0.0867*%
%ADD32R,0.1300X0.0277*%
%ADD33R,0.1104X0.0946*%
%ADD34R,0.0522X0.0256*%
%ADD35C,0.0516*%
D10*
X014237Y006048D03*
D11*
X005576Y013430D03*
D12*
X017493Y003883D03*
D13*
X008529Y004473D03*
X008529Y002111D03*
X004395Y002111D03*
X004395Y004473D03*
X027257Y003883D03*
D14*
X015187Y007032D03*
X013287Y007032D03*
X006036Y017634D03*
X005036Y017634D03*
X005025Y026717D03*
X005025Y027701D03*
X005851Y027701D03*
X006875Y027701D03*
X007702Y027701D03*
X007702Y026717D03*
X002032Y026808D03*
X002032Y027808D03*
X013658Y026717D03*
X014558Y026717D03*
X015458Y026717D03*
X016358Y026717D03*
X017258Y026717D03*
X017708Y025717D03*
X016808Y025717D03*
X015908Y025717D03*
X015008Y025717D03*
X015008Y027717D03*
X015908Y027717D03*
X016808Y027717D03*
X017708Y027717D03*
X014108Y027717D03*
X023922Y027701D03*
X023922Y026717D03*
X024749Y027701D03*
X025773Y027701D03*
X026599Y027701D03*
X026599Y026717D03*
D15*
X029591Y018233D03*
X029591Y017485D03*
X021521Y004060D03*
X021521Y003312D03*
X022505Y003272D03*
X022505Y002524D03*
X023292Y002524D03*
X023292Y003272D03*
X024080Y003272D03*
X024080Y002524D03*
X024867Y002524D03*
X024867Y003272D03*
X025654Y003272D03*
X025654Y002524D03*
X020340Y003312D03*
X020340Y004060D03*
X013843Y023587D03*
X013843Y024335D03*
X013056Y024335D03*
X013056Y023587D03*
X008725Y024571D03*
X008725Y025320D03*
X007938Y025320D03*
X007938Y024571D03*
D16*
X022918Y025142D03*
X023666Y025142D03*
X024493Y025142D03*
X025241Y025142D03*
X019139Y006453D03*
X018391Y006453D03*
X021540Y004867D03*
X022288Y004867D03*
X011855Y005654D03*
X011107Y005654D03*
X006737Y003883D03*
X005989Y003883D03*
X005989Y003095D03*
X006737Y003095D03*
X006737Y002308D03*
X005989Y002308D03*
X002800Y003883D03*
X002052Y003883D03*
X002052Y004670D03*
X002800Y004670D03*
X002800Y005457D03*
X002052Y005457D03*
D17*
X014108Y025717D03*
D18*
X002229Y002505D03*
X004985Y022071D03*
X003804Y023961D03*
X006166Y023961D03*
X010891Y026717D03*
X002229Y029670D03*
X020733Y026717D03*
X029395Y029670D03*
X029395Y002505D03*
D19*
X022119Y005863D03*
X020623Y005863D03*
X020623Y007871D03*
X022119Y007871D03*
D20*
X019060Y015201D03*
D21*
X018962Y010964D03*
X019158Y010964D03*
X019355Y010964D03*
X019552Y010964D03*
X019749Y010964D03*
X019946Y010964D03*
X020143Y010964D03*
X020340Y010964D03*
X020536Y010964D03*
X020733Y010964D03*
X020930Y010964D03*
X021127Y010964D03*
X021324Y010964D03*
X021521Y010964D03*
X021717Y010964D03*
X021914Y010964D03*
X022111Y010964D03*
X022308Y010964D03*
X022505Y010964D03*
X018765Y010964D03*
X018568Y010964D03*
X018371Y010964D03*
X018174Y010964D03*
X017977Y010964D03*
X017780Y010964D03*
X017584Y010964D03*
X017387Y010964D03*
X017190Y010964D03*
X016993Y010964D03*
X016796Y010964D03*
X016599Y010964D03*
X016403Y010964D03*
X016206Y010964D03*
X016009Y010964D03*
X015812Y010964D03*
X015615Y010964D03*
X015615Y019439D03*
X015812Y019439D03*
X016009Y019439D03*
X016206Y019439D03*
X016403Y019439D03*
X016599Y019439D03*
X016796Y019439D03*
X016993Y019439D03*
X017190Y019439D03*
X017387Y019439D03*
X017584Y019439D03*
X017780Y019439D03*
X017977Y019439D03*
X018174Y019439D03*
X018371Y019439D03*
X018568Y019439D03*
X018765Y019439D03*
X018962Y019439D03*
X019158Y019439D03*
X019355Y019439D03*
X019552Y019439D03*
X019749Y019439D03*
X019946Y019439D03*
X020143Y019439D03*
X020340Y019439D03*
X020536Y019439D03*
X020733Y019439D03*
X020930Y019439D03*
X021127Y019439D03*
X021324Y019439D03*
X021521Y019439D03*
X021717Y019439D03*
X021914Y019439D03*
X022111Y019439D03*
X022308Y019439D03*
X022505Y019439D03*
D22*
X023297Y018646D03*
X023297Y018449D03*
X023297Y018253D03*
X023297Y018056D03*
X023297Y017859D03*
X023297Y017662D03*
X023297Y017465D03*
X023297Y017268D03*
X023297Y017071D03*
X023297Y016875D03*
X023297Y016678D03*
X023297Y016481D03*
X023297Y016284D03*
X023297Y016087D03*
X023297Y015890D03*
X023297Y015694D03*
X023297Y015497D03*
X023297Y015300D03*
X023297Y015103D03*
X023297Y014906D03*
X023297Y014709D03*
X023297Y014512D03*
X023297Y014316D03*
X023297Y014119D03*
X023297Y013922D03*
X023297Y013725D03*
X023297Y013528D03*
X023297Y013331D03*
X023297Y013134D03*
X023297Y012938D03*
X023297Y012741D03*
X023297Y012544D03*
X023297Y012347D03*
X023297Y012150D03*
X023297Y011953D03*
X023297Y011757D03*
X014823Y011757D03*
X014823Y011953D03*
X014823Y012150D03*
X014823Y012347D03*
X014823Y012544D03*
X014823Y012741D03*
X014823Y012938D03*
X014823Y013134D03*
X014823Y013331D03*
X014823Y013528D03*
X014823Y013725D03*
X014823Y013922D03*
X014823Y014119D03*
X014823Y014316D03*
X014823Y014512D03*
X014823Y014709D03*
X014823Y014906D03*
X014823Y015103D03*
X014823Y015300D03*
X014823Y015497D03*
X014823Y015694D03*
X014823Y015890D03*
X014823Y016087D03*
X014823Y016284D03*
X014823Y016481D03*
X014823Y016678D03*
X014823Y016875D03*
X014823Y017071D03*
X014823Y017268D03*
X014823Y017465D03*
X014823Y017662D03*
X014823Y017859D03*
X014823Y018056D03*
X014823Y018253D03*
X014823Y018449D03*
X014823Y018646D03*
D23*
X013137Y020024D03*
X005255Y020024D03*
D24*
X003548Y007851D03*
X015843Y003989D03*
X029304Y003957D03*
X024564Y020418D03*
X025298Y023351D03*
D25*
X025298Y022351D03*
X024298Y022351D03*
X023298Y022351D03*
X022298Y022351D03*
X021298Y022351D03*
X020298Y022351D03*
X020298Y023351D03*
X021298Y023351D03*
X022298Y023351D03*
X023298Y023351D03*
X024298Y023351D03*
X025564Y020418D03*
X019298Y022351D03*
X018298Y022351D03*
X017298Y022351D03*
X016298Y022351D03*
X016298Y023351D03*
X017298Y023351D03*
X018298Y023351D03*
X019298Y023351D03*
X028304Y006957D03*
X028304Y005957D03*
X028304Y004957D03*
X028304Y003957D03*
X029304Y004957D03*
X029304Y005957D03*
X029304Y006957D03*
X015843Y002989D03*
X014843Y002989D03*
X013843Y002989D03*
X012843Y002989D03*
X012843Y003989D03*
X013843Y003989D03*
X014843Y003989D03*
X011843Y003989D03*
X011843Y002989D03*
X009513Y002229D03*
X007544Y002938D03*
X009513Y004906D03*
X005379Y004906D03*
X003410Y002938D03*
X005379Y002229D03*
X002548Y007851D03*
X002548Y008851D03*
X002548Y009851D03*
X002548Y010851D03*
X002548Y011851D03*
X002548Y012851D03*
X002548Y013851D03*
X002548Y014851D03*
X002548Y015851D03*
X002548Y016851D03*
X002548Y017851D03*
X002548Y018851D03*
X002548Y019851D03*
X003548Y019851D03*
X003548Y018851D03*
X003548Y017851D03*
X003548Y016851D03*
X003548Y015851D03*
X003548Y014851D03*
X003548Y013851D03*
X003548Y012851D03*
X003548Y011851D03*
X003548Y010851D03*
X003548Y009851D03*
X003548Y008851D03*
D26*
X018212Y005497D03*
X018712Y005497D03*
X019212Y005497D03*
X019712Y005497D03*
X019712Y003449D03*
X019212Y003449D03*
X018712Y003449D03*
X018212Y003449D03*
D27*
X019060Y015201D03*
X022599Y028881D03*
X025259Y029201D03*
X027919Y028881D03*
X009022Y028881D03*
X006362Y029201D03*
X003702Y028881D03*
D28*
X025190Y016048D03*
X025190Y015733D03*
X025190Y015418D03*
X025190Y015103D03*
X025190Y014788D03*
X025190Y014473D03*
X025190Y014158D03*
X025190Y013843D03*
X025190Y013528D03*
X025190Y013213D03*
X025190Y012898D03*
X025190Y012583D03*
X025190Y012268D03*
X025190Y011953D03*
X025190Y011638D03*
X025190Y011323D03*
X025190Y011009D03*
X025190Y010694D03*
X025190Y010379D03*
X025190Y010064D03*
X025190Y009749D03*
X025190Y009434D03*
X025190Y009119D03*
X025190Y008804D03*
X025190Y008489D03*
X025190Y008174D03*
X025190Y007859D03*
X029662Y007859D03*
X029662Y008174D03*
X029662Y008489D03*
X029662Y008804D03*
X029662Y009119D03*
X029662Y009434D03*
X029662Y009749D03*
X029662Y010064D03*
X029662Y010379D03*
X029662Y010694D03*
X029662Y011009D03*
X029662Y011323D03*
X029662Y011638D03*
X029662Y011953D03*
X029662Y012268D03*
X029662Y012583D03*
X029662Y012898D03*
X029662Y013213D03*
X029662Y013528D03*
X029662Y013843D03*
X029662Y014158D03*
X029662Y014473D03*
X029662Y014788D03*
X029662Y015103D03*
X029662Y015418D03*
X029662Y015733D03*
X029662Y016048D03*
D29*
X028706Y022505D03*
X028706Y024237D03*
D30*
X029887Y025123D03*
X029887Y021619D03*
D31*
X027564Y021619D03*
X027564Y025123D03*
D32*
X027525Y024001D03*
X027525Y023686D03*
X027525Y023371D03*
X027525Y023056D03*
X027525Y022741D03*
D33*
X027820Y020418D03*
X029788Y020418D03*
D34*
X011929Y015260D03*
X011929Y014946D03*
X011929Y014631D03*
X011929Y014316D03*
X011929Y014001D03*
X011929Y013686D03*
X011929Y013371D03*
X011929Y013056D03*
X011929Y012741D03*
X011929Y012426D03*
X011929Y012111D03*
X011929Y011796D03*
X011929Y011481D03*
X011929Y011166D03*
X011929Y010851D03*
X011929Y010536D03*
X011929Y010221D03*
X011929Y009906D03*
X011929Y009591D03*
X011929Y009276D03*
X011929Y008961D03*
X011929Y008646D03*
X007490Y008646D03*
X007490Y008961D03*
X007490Y009276D03*
X007490Y009591D03*
X007490Y009906D03*
X007490Y010221D03*
X007490Y010536D03*
X007490Y010851D03*
X007490Y011166D03*
X007490Y011481D03*
X007490Y011796D03*
X007490Y012111D03*
X007490Y012426D03*
X007490Y012741D03*
X007490Y013056D03*
X007490Y013371D03*
X007490Y013686D03*
X007490Y014001D03*
X007490Y014316D03*
X007490Y014631D03*
X007490Y014946D03*
X007490Y015260D03*
D35*
X007479Y016016D03*
X007517Y016660D03*
X007544Y017268D03*
X004591Y014709D03*
X006757Y012544D03*
X010103Y008804D03*
X009119Y007820D03*
X007741Y006048D03*
X006954Y006048D03*
X005379Y006048D03*
X008725Y005260D03*
X011088Y004867D03*
X012466Y005457D03*
X013253Y005457D03*
X013056Y007820D03*
X013056Y008607D03*
X014828Y007820D03*
X016009Y009394D03*
X016403Y008607D03*
X016993Y009197D03*
X017584Y008607D03*
X018568Y009197D03*
X018371Y009788D03*
X019946Y009591D03*
X019946Y009001D03*
X020733Y008804D03*
X020733Y009394D03*
X019552Y008016D03*
X019552Y007426D03*
X018962Y008016D03*
X018371Y007426D03*
X017780Y007426D03*
X017780Y006835D03*
X017190Y006835D03*
X017190Y006245D03*
X016796Y007426D03*
X018568Y004670D03*
X020930Y006835D03*
X021717Y006835D03*
X022702Y007032D03*
X023292Y006638D03*
X023883Y006245D03*
X024473Y005851D03*
X025064Y005457D03*
X025654Y005064D03*
X027426Y008016D03*
X028410Y008016D03*
X028410Y009197D03*
X028410Y010575D03*
X028410Y011953D03*
X026639Y009394D03*
X024670Y009394D03*
X024670Y010575D03*
X024670Y011363D03*
X024670Y012150D03*
X024670Y013134D03*
X022308Y012544D03*
X021521Y012741D03*
X021521Y013922D03*
X022308Y014119D03*
X022308Y015300D03*
X021521Y016284D03*
X022308Y016875D03*
X020930Y017662D03*
X020930Y018449D03*
X022308Y018646D03*
X023292Y020615D03*
X025064Y019631D03*
X027032Y020615D03*
X026245Y022583D03*
X026245Y023568D03*
X024670Y024552D03*
X023686Y024552D03*
X026245Y025930D03*
X028804Y023174D03*
X029788Y016678D03*
X023489Y009985D03*
X022899Y010379D03*
X020340Y012741D03*
X019749Y011953D03*
X018765Y011953D03*
X017584Y012741D03*
X016599Y013725D03*
X015812Y012741D03*
X015025Y011166D03*
X013450Y011953D03*
X012662Y013134D03*
X012662Y014709D03*
X015812Y014709D03*
X015812Y015890D03*
X015812Y016973D03*
X016599Y017268D03*
X017584Y016678D03*
X017977Y017662D03*
X018568Y018449D03*
X018174Y020024D03*
X017977Y020615D03*
X018765Y020615D03*
X018962Y021205D03*
X019749Y021205D03*
X015615Y021205D03*
X015221Y021993D03*
X013056Y022386D03*
X012269Y022386D03*
X010300Y021599D03*
X009316Y023961D03*
X007741Y023961D03*
X014631Y019827D03*
X017584Y015103D03*
X020536Y015103D03*
X021521Y002701D03*
M02*
