G75*
G70*
%OFA0B0*%
%FSLAX24Y24*%
%IPPOS*%
%LPD*%
%AMOC8*
5,1,8,0,0,1.08239X$1,22.5*
%
%ADD10C,0.0110*%
%ADD11C,0.0554*%
%ADD12R,0.0591X0.0512*%
%ADD13R,0.0512X0.0591*%
%ADD14OC8,0.0554*%
%ADD15C,0.1581*%
%ADD16R,0.0591X0.0630*%
%ADD17R,0.0098X0.0394*%
%ADD18R,0.0394X0.0098*%
%ADD19R,0.1575X0.1575*%
%ADD20C,0.1000*%
%ADD21OC8,0.0650*%
%ADD22C,0.0650*%
%ADD23R,0.0236X0.0866*%
%ADD24C,0.1266*%
%ADD25R,0.0354X0.0157*%
%ADD26R,0.0984X0.0787*%
%ADD27R,0.1299X0.0787*%
%ADD28R,0.1220X0.0197*%
%ADD29R,0.1024X0.0866*%
%ADD30R,0.0472X0.0197*%
%ADD31C,0.0098*%
%ADD32C,0.0436*%
%ADD33C,0.0560*%
%ADD34C,0.0160*%
%ADD35C,0.0500*%
%ADD36C,0.0320*%
%ADD37C,0.0240*%
%ADD38C,0.0400*%
D10*
X002255Y020820D02*
X002622Y020820D01*
X002255Y020820D02*
X002072Y021003D01*
X002255Y021187D01*
X002622Y021187D01*
X002622Y021428D02*
X002622Y021795D01*
X002347Y021795D01*
X002439Y021611D01*
X002439Y021519D01*
X002347Y021428D01*
X002163Y021428D01*
X002072Y021519D01*
X002072Y021703D01*
X002163Y021795D01*
X002347Y022035D02*
X002347Y022402D01*
X002530Y022219D02*
X002163Y022219D01*
D11*
X005036Y017634D03*
X006036Y017634D03*
X005025Y026717D03*
X005025Y027701D03*
X005851Y027701D03*
X006875Y027701D03*
X007702Y027701D03*
X007702Y026717D03*
X002032Y026808D03*
X002032Y027808D03*
X013658Y026717D03*
X014558Y026717D03*
X015458Y026717D03*
X016358Y026717D03*
X017258Y026717D03*
X017708Y025717D03*
X016808Y025717D03*
X015908Y025717D03*
X015008Y025717D03*
X015008Y027717D03*
X015908Y027717D03*
X016808Y027717D03*
X017708Y027717D03*
X014108Y027717D03*
X023922Y027701D03*
X023922Y026717D03*
X024749Y027701D03*
X025773Y027701D03*
X026599Y027701D03*
X026599Y026717D03*
X015187Y007032D03*
X013287Y007032D03*
D12*
X020340Y004060D03*
X020340Y003312D03*
X021521Y003312D03*
X021521Y004060D03*
X022505Y003272D03*
X022505Y002524D03*
X023292Y002524D03*
X023292Y003272D03*
X024080Y003272D03*
X024080Y002524D03*
X024867Y002524D03*
X024867Y003272D03*
X025654Y003272D03*
X025654Y002524D03*
X029591Y017485D03*
X029591Y018233D03*
X013843Y023587D03*
X013843Y024335D03*
X013056Y024335D03*
X013056Y023587D03*
X008725Y024571D03*
X008725Y025320D03*
X007938Y025320D03*
X007938Y024571D03*
D13*
X022918Y025142D03*
X023666Y025142D03*
X024493Y025142D03*
X025241Y025142D03*
X019139Y006453D03*
X018391Y006453D03*
X021540Y004867D03*
X022288Y004867D03*
X011855Y005654D03*
X011107Y005654D03*
X006737Y003883D03*
X005989Y003883D03*
X005989Y003095D03*
X006737Y003095D03*
X006737Y002308D03*
X005989Y002308D03*
X002800Y003883D03*
X002052Y003883D03*
X002052Y004670D03*
X002800Y004670D03*
X002800Y005457D03*
X002052Y005457D03*
D14*
X014108Y025717D03*
D15*
X010891Y026717D03*
X006166Y023961D03*
X004985Y022071D03*
X003804Y023961D03*
X002229Y029670D03*
X020733Y026717D03*
X029395Y029670D03*
X029395Y002505D03*
X002229Y002505D03*
D16*
X020623Y005863D03*
X022119Y005863D03*
X022119Y007871D03*
X020623Y007871D03*
D17*
X020536Y010969D03*
X020340Y010969D03*
X020143Y010969D03*
X019946Y010969D03*
X019749Y010969D03*
X019552Y010969D03*
X019355Y010969D03*
X019158Y010969D03*
X018962Y010969D03*
X018765Y010969D03*
X018568Y010969D03*
X018371Y010969D03*
X018174Y010969D03*
X017977Y010969D03*
X017780Y010969D03*
X017584Y010969D03*
X017387Y010969D03*
X017190Y010969D03*
X016993Y010969D03*
X016796Y010969D03*
X016599Y010969D03*
X016403Y010969D03*
X016206Y010969D03*
X016009Y010969D03*
X015812Y010969D03*
X015615Y010969D03*
X020733Y010969D03*
X020930Y010969D03*
X021127Y010969D03*
X021324Y010969D03*
X021521Y010969D03*
X021717Y010969D03*
X021914Y010969D03*
X022111Y010969D03*
X022308Y010969D03*
X022505Y010969D03*
X022505Y019434D03*
X022308Y019434D03*
X022111Y019434D03*
X021914Y019434D03*
X021717Y019434D03*
X021521Y019434D03*
X021324Y019434D03*
X021127Y019434D03*
X020930Y019434D03*
X020733Y019434D03*
X020536Y019434D03*
X020340Y019434D03*
X020143Y019434D03*
X019946Y019434D03*
X019749Y019434D03*
X019552Y019434D03*
X019355Y019434D03*
X019158Y019434D03*
X018962Y019434D03*
X018765Y019434D03*
X018568Y019434D03*
X018371Y019434D03*
X018174Y019434D03*
X017977Y019434D03*
X017780Y019434D03*
X017584Y019434D03*
X017387Y019434D03*
X017190Y019434D03*
X016993Y019434D03*
X016796Y019434D03*
X016599Y019434D03*
X016403Y019434D03*
X016206Y019434D03*
X016009Y019434D03*
X015812Y019434D03*
X015615Y019434D03*
D18*
X014828Y018646D03*
X014828Y018449D03*
X014828Y018253D03*
X014828Y018056D03*
X014828Y017859D03*
X014828Y017662D03*
X014828Y017465D03*
X014828Y017268D03*
X014828Y017071D03*
X014828Y016875D03*
X014828Y016678D03*
X014828Y016481D03*
X014828Y016284D03*
X014828Y016087D03*
X014828Y015890D03*
X014828Y015694D03*
X014828Y015497D03*
X014828Y015300D03*
X014828Y015103D03*
X014828Y014906D03*
X014828Y014709D03*
X014828Y014512D03*
X014828Y014316D03*
X014828Y014119D03*
X014828Y013922D03*
X014828Y013725D03*
X014828Y013528D03*
X014828Y013331D03*
X014828Y013134D03*
X014828Y012938D03*
X014828Y012741D03*
X014828Y012544D03*
X014828Y012347D03*
X014828Y012150D03*
X014828Y011953D03*
X014828Y011757D03*
X023292Y011757D03*
X023292Y011953D03*
X023292Y012150D03*
X023292Y012347D03*
X023292Y012544D03*
X023292Y012741D03*
X023292Y012938D03*
X023292Y013134D03*
X023292Y013331D03*
X023292Y013528D03*
X023292Y013725D03*
X023292Y013922D03*
X023292Y014119D03*
X023292Y014316D03*
X023292Y014512D03*
X023292Y014709D03*
X023292Y014906D03*
X023292Y015103D03*
X023292Y015300D03*
X023292Y015497D03*
X023292Y015694D03*
X023292Y015890D03*
X023292Y016087D03*
X023292Y016284D03*
X023292Y016481D03*
X023292Y016678D03*
X023292Y016875D03*
X023292Y017071D03*
X023292Y017268D03*
X023292Y017465D03*
X023292Y017662D03*
X023292Y017859D03*
X023292Y018056D03*
X023292Y018253D03*
X023292Y018449D03*
X023292Y018646D03*
D19*
X019060Y015201D03*
D20*
X013137Y020024D03*
X005255Y020024D03*
D21*
X003548Y007851D03*
X015843Y003989D03*
X029304Y003957D03*
X024564Y020418D03*
X025298Y023351D03*
D22*
X025298Y022351D03*
X024298Y022351D03*
X023298Y022351D03*
X022298Y022351D03*
X021298Y022351D03*
X020298Y022351D03*
X020298Y023351D03*
X021298Y023351D03*
X022298Y023351D03*
X023298Y023351D03*
X024298Y023351D03*
X025564Y020418D03*
X019298Y022351D03*
X018298Y022351D03*
X017298Y022351D03*
X016298Y022351D03*
X016298Y023351D03*
X017298Y023351D03*
X018298Y023351D03*
X019298Y023351D03*
X028304Y006957D03*
X028304Y005957D03*
X028304Y004957D03*
X028304Y003957D03*
X029304Y004957D03*
X029304Y005957D03*
X029304Y006957D03*
X015843Y002989D03*
X014843Y002989D03*
X013843Y002989D03*
X012843Y002989D03*
X012843Y003989D03*
X013843Y003989D03*
X014843Y003989D03*
X011843Y003989D03*
X011843Y002989D03*
X009513Y002229D03*
X007544Y002938D03*
X009513Y004906D03*
X005379Y004906D03*
X003410Y002938D03*
X005379Y002229D03*
X002548Y007851D03*
X002548Y008851D03*
X002548Y009851D03*
X002548Y010851D03*
X002548Y011851D03*
X002548Y012851D03*
X002548Y013851D03*
X002548Y014851D03*
X002548Y015851D03*
X002548Y016851D03*
X002548Y017851D03*
X002548Y018851D03*
X002548Y019851D03*
X003548Y019851D03*
X003548Y018851D03*
X003548Y017851D03*
X003548Y016851D03*
X003548Y015851D03*
X003548Y014851D03*
X003548Y013851D03*
X003548Y012851D03*
X003548Y011851D03*
X003548Y010851D03*
X003548Y009851D03*
X003548Y008851D03*
D23*
X018212Y005497D03*
X018712Y005497D03*
X019212Y005497D03*
X019712Y005497D03*
X019712Y003449D03*
X019212Y003449D03*
X018712Y003449D03*
X018212Y003449D03*
D24*
X019060Y015201D03*
X022599Y028881D03*
X025259Y029201D03*
X027919Y028881D03*
X009022Y028881D03*
X006362Y029201D03*
X003702Y028881D03*
D25*
X025190Y016048D03*
X025190Y015733D03*
X025190Y015418D03*
X025190Y015103D03*
X025190Y014788D03*
X025190Y014473D03*
X025190Y014158D03*
X025190Y013843D03*
X025190Y013528D03*
X025190Y013213D03*
X025190Y012898D03*
X025190Y012583D03*
X025190Y012268D03*
X025190Y011953D03*
X025190Y011638D03*
X025190Y011323D03*
X025190Y011009D03*
X025190Y010694D03*
X025190Y010379D03*
X025190Y010064D03*
X025190Y009749D03*
X025190Y009434D03*
X025190Y009119D03*
X025190Y008804D03*
X025190Y008489D03*
X025190Y008174D03*
X025190Y007859D03*
X029662Y007859D03*
X029662Y008174D03*
X029662Y008489D03*
X029662Y008804D03*
X029662Y009119D03*
X029662Y009434D03*
X029662Y009749D03*
X029662Y010064D03*
X029662Y010379D03*
X029662Y010694D03*
X029662Y011009D03*
X029662Y011323D03*
X029662Y011638D03*
X029662Y011953D03*
X029662Y012268D03*
X029662Y012583D03*
X029662Y012898D03*
X029662Y013213D03*
X029662Y013528D03*
X029662Y013843D03*
X029662Y014158D03*
X029662Y014473D03*
X029662Y014788D03*
X029662Y015103D03*
X029662Y015418D03*
X029662Y015733D03*
X029662Y016048D03*
D26*
X029887Y021619D03*
X029887Y025123D03*
D27*
X027564Y025123D03*
X027564Y021619D03*
D28*
X027525Y022741D03*
X027525Y023056D03*
X027525Y023371D03*
X027525Y023686D03*
X027525Y024001D03*
D29*
X027820Y020418D03*
X029788Y020418D03*
D30*
X011925Y015260D03*
X011925Y014946D03*
X011925Y014631D03*
X011925Y014316D03*
X011925Y014001D03*
X011925Y013686D03*
X011925Y013371D03*
X011925Y013056D03*
X011925Y012741D03*
X011925Y012426D03*
X011925Y012111D03*
X011925Y011796D03*
X011925Y011481D03*
X011925Y011166D03*
X011925Y010851D03*
X011925Y010536D03*
X011925Y010221D03*
X011925Y009906D03*
X011925Y009591D03*
X011925Y009276D03*
X011925Y008961D03*
X011925Y008646D03*
X007494Y008646D03*
X007494Y008961D03*
X007494Y009276D03*
X007494Y009591D03*
X007494Y009906D03*
X007494Y010221D03*
X007494Y010536D03*
X007494Y010851D03*
X007494Y011166D03*
X007494Y011481D03*
X007494Y011796D03*
X007494Y012111D03*
X007494Y012426D03*
X007494Y012741D03*
X007494Y013056D03*
X007494Y013371D03*
X007494Y013686D03*
X007494Y014001D03*
X007494Y014316D03*
X007494Y014631D03*
X007494Y014946D03*
X007494Y015260D03*
D31*
X001297Y001573D02*
X001297Y030602D01*
X008007Y030602D01*
X007435Y030030D01*
X007302Y029897D01*
X007231Y029724D01*
X007231Y028008D01*
X007140Y028098D01*
X006968Y028169D01*
X006782Y028169D01*
X006610Y028098D01*
X006478Y027967D01*
X006407Y027795D01*
X006407Y027608D01*
X006478Y027436D01*
X006610Y027305D01*
X006782Y027233D01*
X006968Y027233D01*
X007140Y027305D01*
X007272Y027436D01*
X007287Y027473D01*
X007302Y027435D01*
X007435Y027302D01*
X007608Y027230D01*
X007795Y027230D01*
X007968Y027302D01*
X008101Y027435D01*
X008173Y027608D01*
X008173Y029435D01*
X008527Y029790D01*
X025853Y029790D01*
X026128Y029514D01*
X026128Y028008D01*
X026038Y028098D01*
X025866Y028169D01*
X025679Y028169D01*
X025507Y028098D01*
X025376Y027967D01*
X025304Y027795D01*
X025304Y027608D01*
X025376Y027436D01*
X025507Y027305D01*
X025679Y027233D01*
X025866Y027233D01*
X026038Y027305D01*
X026169Y027436D01*
X026184Y027473D01*
X026200Y027435D01*
X026333Y027302D01*
X026506Y027230D01*
X026693Y027230D01*
X026866Y027302D01*
X026999Y027435D01*
X027070Y027608D01*
X027070Y029616D01*
X027070Y029803D01*
X026999Y029976D01*
X026447Y030527D01*
X026373Y030602D01*
X030327Y030602D01*
X030327Y020998D01*
X030320Y021000D01*
X029837Y021000D01*
X029837Y020467D01*
X029739Y020467D01*
X029739Y020369D01*
X029127Y020369D01*
X029127Y019965D01*
X029137Y019927D01*
X029157Y019893D01*
X029185Y019865D01*
X029219Y019846D01*
X029257Y019836D01*
X029739Y019836D01*
X029739Y020369D01*
X029837Y020369D01*
X029837Y019836D01*
X030320Y019836D01*
X030327Y019837D01*
X030327Y001573D01*
X026373Y001573D01*
X026447Y001647D01*
X026447Y001647D01*
X026709Y001908D01*
X026841Y002041D01*
X026913Y002214D01*
X026913Y003189D01*
X026913Y003568D01*
X026993Y003488D01*
X027164Y003417D01*
X027349Y003417D01*
X027521Y003488D01*
X027652Y003619D01*
X027723Y003790D01*
X027723Y003975D01*
X027652Y004146D01*
X027521Y004277D01*
X027349Y004348D01*
X027164Y004348D01*
X026993Y004277D01*
X026913Y004197D01*
X026913Y005065D01*
X027788Y005941D01*
X027788Y005855D01*
X027867Y005665D01*
X028012Y005520D01*
X028164Y005457D01*
X028012Y005395D01*
X027867Y005249D01*
X027788Y005060D01*
X027788Y004855D01*
X027867Y004665D01*
X028012Y004520D01*
X028164Y004457D01*
X028012Y004395D01*
X027867Y004249D01*
X027788Y004060D01*
X027788Y003855D01*
X027867Y003665D01*
X028012Y003520D01*
X028201Y003442D01*
X028407Y003442D01*
X028596Y003520D01*
X028741Y003665D01*
X028788Y003779D01*
X028788Y003744D01*
X029090Y003442D01*
X029518Y003442D01*
X029820Y003744D01*
X029820Y004171D01*
X029518Y004473D01*
X029483Y004473D01*
X029596Y004520D01*
X029741Y004665D01*
X029820Y004855D01*
X029820Y005060D01*
X029741Y005249D01*
X029596Y005395D01*
X029445Y005457D01*
X029596Y005520D01*
X029741Y005665D01*
X029820Y005855D01*
X029820Y006060D01*
X029741Y006249D01*
X029596Y006395D01*
X029407Y006473D01*
X029201Y006473D01*
X029012Y006395D01*
X028867Y006249D01*
X028804Y006098D01*
X028741Y006249D01*
X028596Y006395D01*
X028445Y006457D01*
X028596Y006520D01*
X028741Y006665D01*
X028820Y006855D01*
X028820Y007060D01*
X028741Y007249D01*
X028596Y007395D01*
X028407Y007473D01*
X028201Y007473D01*
X028093Y007428D01*
X028045Y007428D01*
X027872Y007357D01*
X027421Y006905D01*
X026043Y005527D01*
X025971Y005354D01*
X025971Y005325D01*
X025895Y005401D01*
X025895Y006394D01*
X025895Y006489D01*
X025858Y006578D01*
X024123Y008313D01*
X024123Y010193D01*
X024455Y009860D01*
X024544Y009823D01*
X024639Y009823D01*
X024822Y009823D01*
X024822Y009774D01*
X024752Y009803D01*
X024589Y009803D01*
X024439Y009741D01*
X024324Y009626D01*
X024261Y009476D01*
X024261Y009313D01*
X024324Y009163D01*
X024439Y009048D01*
X024589Y008986D01*
X024752Y008986D01*
X024822Y009015D01*
X024822Y008962D01*
X024822Y008646D01*
X024867Y008601D01*
X024864Y008587D01*
X024864Y008489D01*
X025189Y008489D01*
X025189Y008489D01*
X024864Y008489D01*
X024864Y008390D01*
X024867Y008377D01*
X024822Y008332D01*
X024822Y008016D01*
X024867Y007971D01*
X024864Y007957D01*
X024864Y007859D01*
X025189Y007859D01*
X025189Y007859D01*
X024864Y007859D01*
X024864Y007760D01*
X024874Y007723D01*
X024893Y007689D01*
X024921Y007661D01*
X024955Y007641D01*
X024993Y007631D01*
X025190Y007631D01*
X025387Y007631D01*
X025425Y007641D01*
X025459Y007661D01*
X025486Y007689D01*
X025506Y007723D01*
X025516Y007760D01*
X025516Y007859D01*
X025516Y007934D01*
X025567Y007934D01*
X025663Y007934D01*
X025751Y007970D01*
X025987Y008206D01*
X026449Y008668D01*
X026485Y008756D01*
X026485Y008852D01*
X026485Y010193D01*
X028275Y008403D01*
X028179Y008363D01*
X028064Y008248D01*
X028002Y008098D01*
X028002Y007935D01*
X028064Y007785D01*
X028179Y007670D01*
X028329Y007608D01*
X028466Y007608D01*
X028514Y007588D01*
X028622Y007588D01*
X029716Y007588D01*
X029719Y007589D01*
X029919Y007589D01*
X030030Y007701D01*
X030030Y008016D01*
X030030Y008331D01*
X030030Y008646D01*
X030030Y008961D01*
X030030Y009277D01*
X029985Y009322D01*
X029989Y009335D01*
X029989Y009433D01*
X029663Y009433D01*
X029663Y009434D01*
X029989Y009434D01*
X029989Y009532D01*
X029985Y009545D01*
X030030Y009591D01*
X030030Y009906D01*
X030327Y009906D01*
X030327Y010003D02*
X030030Y010003D01*
X030030Y010100D02*
X030327Y010100D01*
X030327Y010197D02*
X030030Y010197D01*
X030030Y010221D02*
X030030Y010536D01*
X030030Y010851D01*
X030030Y011166D01*
X030327Y011166D01*
X030327Y011069D02*
X030030Y011069D01*
X030030Y010972D02*
X030327Y010972D01*
X030327Y010876D02*
X030030Y010876D01*
X030030Y010779D02*
X030327Y010779D01*
X030327Y010682D02*
X030030Y010682D01*
X030030Y010585D02*
X030327Y010585D01*
X030327Y010488D02*
X030030Y010488D01*
X030030Y010391D02*
X030327Y010391D01*
X030327Y010294D02*
X030030Y010294D01*
X030030Y010221D02*
X030030Y009906D01*
X030030Y009809D02*
X030327Y009809D01*
X030327Y009712D02*
X030030Y009712D01*
X030030Y009615D02*
X030327Y009615D01*
X030327Y009518D02*
X029989Y009518D01*
X029989Y009421D02*
X030327Y009421D01*
X030327Y009324D02*
X029986Y009324D01*
X030030Y009227D02*
X030327Y009227D01*
X030327Y009130D02*
X030030Y009130D01*
X030030Y009033D02*
X030327Y009033D01*
X030327Y008936D02*
X030030Y008936D01*
X030030Y008839D02*
X030327Y008839D01*
X030327Y008742D02*
X030030Y008742D01*
X030030Y008645D02*
X030327Y008645D01*
X030327Y008548D02*
X030030Y008548D01*
X030030Y008451D02*
X030327Y008451D01*
X030327Y008354D02*
X030030Y008354D01*
X030030Y008257D02*
X030327Y008257D01*
X030327Y008160D02*
X030030Y008160D01*
X030030Y008063D02*
X030327Y008063D01*
X030327Y007966D02*
X030030Y007966D01*
X030030Y007869D02*
X030327Y007869D01*
X030327Y007773D02*
X030030Y007773D01*
X030005Y007676D02*
X030327Y007676D01*
X030327Y007579D02*
X024857Y007579D01*
X024906Y007676D02*
X024760Y007676D01*
X024663Y007773D02*
X024864Y007773D01*
X024864Y007869D02*
X024566Y007869D01*
X024469Y007966D02*
X024866Y007966D01*
X024822Y008063D02*
X024372Y008063D01*
X024275Y008160D02*
X024822Y008160D01*
X024822Y008257D02*
X024178Y008257D01*
X024123Y008354D02*
X024844Y008354D01*
X024864Y008451D02*
X024123Y008451D01*
X024123Y008548D02*
X024864Y008548D01*
X024822Y008645D02*
X024123Y008645D01*
X024123Y008742D02*
X024822Y008742D01*
X024822Y008839D02*
X024123Y008839D01*
X024123Y008936D02*
X024822Y008936D01*
X024474Y009033D02*
X024123Y009033D01*
X024123Y009130D02*
X024356Y009130D01*
X024297Y009227D02*
X024123Y009227D01*
X024123Y009324D02*
X024261Y009324D01*
X024261Y009421D02*
X024123Y009421D01*
X024123Y009518D02*
X024279Y009518D01*
X024319Y009615D02*
X024123Y009615D01*
X024123Y009712D02*
X024410Y009712D01*
X024410Y009906D02*
X024123Y009906D01*
X024123Y010003D02*
X024313Y010003D01*
X024216Y010100D02*
X024123Y010100D01*
X024123Y009809D02*
X024822Y009809D01*
X024591Y010064D02*
X024080Y010575D01*
X024080Y011953D01*
X023883Y012150D01*
X023292Y012150D01*
X023292Y011953D02*
X023686Y011953D01*
X023883Y011757D01*
X023883Y008213D01*
X025654Y006442D01*
X025654Y005064D01*
X025654Y003272D01*
X024867Y003272D02*
X024867Y005260D01*
X025064Y005457D01*
X025064Y006638D01*
X023686Y008016D01*
X023686Y008804D01*
X022111Y010379D01*
X022111Y010969D01*
X021914Y010969D02*
X021914Y010182D01*
X023489Y008607D01*
X023489Y007820D01*
X024473Y006835D01*
X024473Y005851D01*
X024080Y006048D02*
X024080Y003272D01*
X023292Y003272D02*
X023292Y003686D01*
X023292Y004276D01*
X023292Y006048D01*
X023292Y006638D01*
X023292Y007229D01*
X023095Y007426D01*
X023095Y008213D01*
X021521Y009788D01*
X021521Y010969D01*
X021717Y010969D02*
X021717Y009985D01*
X023292Y008410D01*
X023292Y007623D01*
X023883Y007032D01*
X023883Y006245D01*
X024080Y006048D01*
X022899Y006835D02*
X022899Y004079D01*
X022505Y003686D01*
X022505Y003272D01*
X022019Y003312D02*
X022007Y003312D01*
X022007Y003409D02*
X022019Y003409D01*
X022007Y003506D02*
X022019Y003506D01*
X022007Y003603D02*
X022019Y003603D01*
X022019Y003607D02*
X022019Y002937D01*
X022058Y002898D01*
X022019Y002859D01*
X022019Y002385D01*
X021782Y002385D01*
X021867Y002470D01*
X021929Y002620D01*
X021929Y002783D01*
X021895Y002865D01*
X022007Y002977D01*
X022007Y003647D01*
X021968Y003686D01*
X022007Y003725D01*
X022007Y004395D01*
X021961Y004440D01*
X021975Y004432D01*
X022013Y004422D01*
X022239Y004422D01*
X022239Y004817D01*
X022337Y004817D01*
X022337Y004422D01*
X022564Y004422D01*
X022602Y004432D01*
X022636Y004452D01*
X022658Y004475D01*
X022658Y004179D01*
X022369Y003889D01*
X022369Y003889D01*
X022301Y003822D01*
X022265Y003733D01*
X022265Y003719D01*
X022130Y003719D01*
X022019Y003607D01*
X021982Y003700D02*
X022111Y003700D01*
X022007Y003797D02*
X022291Y003797D01*
X022373Y003894D02*
X022007Y003894D01*
X022007Y003991D02*
X022470Y003991D01*
X022567Y004088D02*
X022007Y004088D01*
X022007Y004185D02*
X022658Y004185D01*
X022658Y004282D02*
X022007Y004282D01*
X022007Y004379D02*
X022658Y004379D01*
X022337Y004476D02*
X022239Y004476D01*
X022239Y004573D02*
X022337Y004573D01*
X022337Y004670D02*
X022239Y004670D01*
X022239Y004766D02*
X022337Y004766D01*
X022337Y004916D02*
X022239Y004916D01*
X022239Y005311D01*
X022013Y005311D01*
X021975Y005301D01*
X021945Y005284D01*
X021875Y005353D01*
X021281Y005353D01*
X021281Y005512D01*
X021633Y005512D01*
X021633Y005469D01*
X021745Y005357D01*
X022493Y005357D01*
X022605Y005469D01*
X022605Y006257D01*
X022493Y006369D01*
X021745Y006369D01*
X021633Y006257D01*
X021633Y006214D01*
X021109Y006214D01*
X021109Y006257D01*
X020997Y006369D01*
X020249Y006369D01*
X020137Y006257D01*
X020137Y005469D01*
X020249Y005357D01*
X020579Y005357D01*
X020579Y004937D01*
X020579Y004506D01*
X019965Y004506D01*
X019853Y004395D01*
X019853Y004319D01*
X019452Y004319D01*
X019452Y004569D01*
X019452Y004665D01*
X019415Y004753D01*
X019295Y004873D01*
X019409Y004873D01*
X019462Y004925D01*
X019514Y004873D01*
X019909Y004873D01*
X020021Y004984D01*
X020021Y006009D01*
X019952Y006078D01*
X019952Y006825D01*
X019952Y006920D01*
X019915Y007009D01*
X019814Y007110D01*
X019899Y007194D01*
X019961Y007344D01*
X019961Y007507D01*
X019899Y007657D01*
X019835Y007721D01*
X019899Y007785D01*
X019961Y007935D01*
X019961Y008055D01*
X020137Y007879D01*
X020137Y007477D01*
X020249Y007365D01*
X020997Y007365D01*
X021109Y007477D01*
X021109Y008265D01*
X020997Y008377D01*
X020319Y008377D01*
X020081Y008614D01*
X020177Y008654D01*
X020292Y008769D01*
X020324Y008847D01*
X020324Y008722D01*
X020387Y008572D01*
X020502Y008457D01*
X020652Y008395D01*
X020815Y008395D01*
X020965Y008457D01*
X021080Y008572D01*
X021142Y008722D01*
X021142Y008873D01*
X021330Y009061D01*
X021367Y009150D01*
X021367Y009208D01*
X022241Y008335D01*
X022168Y008335D01*
X022168Y007920D01*
X022070Y007920D01*
X022070Y008335D01*
X021804Y008335D01*
X021766Y008325D01*
X021732Y008305D01*
X021704Y008277D01*
X021685Y008243D01*
X021675Y008205D01*
X021675Y007920D01*
X022070Y007920D01*
X022070Y007822D01*
X021675Y007822D01*
X021675Y007536D01*
X021685Y007498D01*
X021704Y007464D01*
X021732Y007436D01*
X021766Y007417D01*
X021804Y007407D01*
X022070Y007407D01*
X022070Y007821D01*
X022168Y007821D01*
X022168Y007407D01*
X022434Y007407D01*
X022472Y007417D01*
X022506Y007436D01*
X022534Y007464D01*
X022553Y007498D01*
X022564Y007536D01*
X022564Y007822D01*
X022168Y007822D01*
X022168Y007920D01*
X022564Y007920D01*
X022564Y008012D01*
X022658Y007917D01*
X022658Y007441D01*
X022620Y007441D01*
X022470Y007379D01*
X022355Y007264D01*
X022293Y007113D01*
X022293Y006951D01*
X022355Y006801D01*
X022470Y006686D01*
X022620Y006623D01*
X022658Y006623D01*
X022658Y005259D01*
X022636Y005281D01*
X022602Y005301D01*
X022564Y005311D01*
X022337Y005311D01*
X022337Y004916D01*
X022337Y004960D02*
X022239Y004960D01*
X022239Y005057D02*
X022337Y005057D01*
X022337Y005154D02*
X022239Y005154D01*
X022239Y005251D02*
X022337Y005251D01*
X022582Y005445D02*
X022658Y005445D01*
X022658Y005348D02*
X021880Y005348D01*
X021656Y005445D02*
X021281Y005445D01*
X020579Y005348D02*
X020021Y005348D01*
X020021Y005251D02*
X020579Y005251D01*
X020579Y005154D02*
X020021Y005154D01*
X020021Y005057D02*
X020579Y005057D01*
X020579Y004960D02*
X019997Y004960D01*
X019934Y004476D02*
X019452Y004476D01*
X019452Y004573D02*
X020579Y004573D01*
X020579Y004670D02*
X019450Y004670D01*
X019401Y004766D02*
X020579Y004766D01*
X020579Y004863D02*
X019304Y004863D01*
X019212Y004617D02*
X018765Y005064D01*
X018712Y005117D01*
X018712Y005497D01*
X019212Y005497D02*
X019212Y006381D01*
X019139Y006453D01*
X019712Y006873D02*
X019552Y007032D01*
X018174Y007032D01*
X017780Y007426D01*
X017387Y007229D02*
X017780Y006835D01*
X017977Y006638D01*
X018206Y006638D01*
X018391Y006453D01*
X017780Y006245D02*
X017190Y006835D01*
X017190Y007820D01*
X017584Y008213D01*
X017780Y008213D01*
X017977Y008410D01*
X017977Y009001D01*
X017780Y009197D01*
X017780Y010969D01*
X017584Y010969D02*
X017584Y008804D01*
X017584Y008607D01*
X017387Y009001D02*
X016993Y008607D01*
X016403Y008607D01*
X016009Y008804D02*
X016009Y008410D01*
X016796Y007623D01*
X016796Y007426D01*
X016403Y007623D02*
X016403Y007032D01*
X017190Y006245D01*
X017584Y005851D01*
X017584Y004670D01*
X018212Y004042D01*
X018212Y003449D01*
X017903Y003409D02*
X017817Y003409D01*
X017813Y003404D02*
X017903Y003494D01*
X017903Y002937D01*
X018014Y002825D01*
X018409Y002825D01*
X018462Y002878D01*
X018514Y002825D01*
X018909Y002825D01*
X018962Y002878D01*
X019014Y002825D01*
X019409Y002825D01*
X019462Y002878D01*
X019514Y002825D01*
X019909Y002825D01*
X019957Y002873D01*
X019965Y002865D01*
X020579Y002865D01*
X020579Y002385D01*
X019843Y002385D01*
X018868Y002385D01*
X015314Y002385D01*
X015314Y002778D01*
X015359Y002886D01*
X015359Y003091D01*
X015281Y003281D01*
X015136Y003426D01*
X014984Y003489D01*
X015136Y003552D01*
X015281Y003697D01*
X015328Y003810D01*
X015328Y003775D01*
X015630Y003473D01*
X016057Y003473D01*
X016359Y003775D01*
X016359Y004202D01*
X016057Y004505D01*
X015630Y004505D01*
X015328Y004202D01*
X015328Y004167D01*
X015281Y004281D01*
X015136Y004426D01*
X014946Y004505D01*
X014741Y004505D01*
X014551Y004426D01*
X014406Y004281D01*
X014343Y004129D01*
X014281Y004281D01*
X014136Y004426D01*
X013946Y004505D01*
X013741Y004505D01*
X013591Y004443D01*
X013591Y005218D01*
X013599Y005226D01*
X013662Y005376D01*
X013662Y005539D01*
X013599Y005689D01*
X013484Y005804D01*
X013334Y005866D01*
X013172Y005866D01*
X013021Y005804D01*
X012906Y005689D01*
X012859Y005575D01*
X012812Y005689D01*
X012697Y005804D01*
X012547Y005866D01*
X012384Y005866D01*
X012260Y005815D01*
X012260Y005969D01*
X012250Y006007D01*
X012231Y006041D01*
X012203Y006069D01*
X012169Y006088D01*
X012131Y006099D01*
X011904Y006099D01*
X011904Y005704D01*
X011806Y005704D01*
X011806Y006099D01*
X011580Y006099D01*
X011542Y006088D01*
X011512Y006071D01*
X011442Y006140D01*
X010772Y006140D01*
X010660Y006029D01*
X010660Y005280D01*
X010756Y005184D01*
X010756Y005114D01*
X010741Y005098D01*
X010679Y004948D01*
X010679Y004785D01*
X010737Y004646D01*
X010737Y004618D01*
X010495Y004377D01*
X010396Y004278D01*
X010343Y004149D01*
X010343Y002574D01*
X010343Y002435D01*
X010396Y002306D01*
X010813Y001889D01*
X010813Y001820D01*
X010885Y001647D01*
X010960Y001573D01*
X001297Y001573D01*
X001297Y001664D02*
X004258Y001664D01*
X004302Y001645D02*
X004487Y001645D01*
X004658Y001716D01*
X004789Y001847D01*
X004860Y002018D01*
X004860Y002204D01*
X004789Y002375D01*
X004658Y002506D01*
X004487Y002577D01*
X004302Y002577D01*
X004131Y002506D01*
X004000Y002375D01*
X003929Y002204D01*
X003929Y002018D01*
X004000Y001847D01*
X004131Y001716D01*
X004302Y001645D01*
X004532Y001664D02*
X008391Y001664D01*
X008436Y001645D02*
X008265Y001716D01*
X008134Y001847D01*
X008063Y002018D01*
X008063Y002204D01*
X008134Y002375D01*
X008265Y002506D01*
X008436Y002577D01*
X008621Y002577D01*
X008792Y002506D01*
X008923Y002375D01*
X008994Y002204D01*
X008994Y002018D01*
X008923Y001847D01*
X008792Y001716D01*
X008621Y001645D01*
X008436Y001645D01*
X008666Y001664D02*
X010878Y001664D01*
X010838Y001760D02*
X009729Y001760D01*
X009805Y001792D02*
X009950Y001937D01*
X010028Y002126D01*
X010028Y002332D01*
X009950Y002521D01*
X009805Y002666D01*
X009784Y002675D01*
X009784Y003770D01*
X010257Y004243D01*
X010333Y004320D01*
X010374Y004419D01*
X010374Y005403D01*
X010374Y005511D01*
X010333Y005611D01*
X009939Y006004D01*
X009863Y006081D01*
X009764Y006122D01*
X008150Y006122D01*
X008150Y006129D01*
X008120Y006201D01*
X010348Y006201D01*
X010436Y006238D01*
X010504Y006306D01*
X011685Y007487D01*
X011721Y007575D01*
X011721Y007670D01*
X011721Y008357D01*
X012240Y008357D01*
X012352Y008469D01*
X012352Y008784D01*
X012352Y009036D01*
X012555Y009036D01*
X012526Y009007D01*
X012459Y008940D01*
X012422Y008852D01*
X012422Y008362D01*
X012459Y008274D01*
X012526Y008206D01*
X012656Y008077D01*
X012723Y008010D01*
X012811Y007973D01*
X015712Y007973D01*
X016162Y007523D01*
X016162Y007080D01*
X016162Y006984D01*
X016199Y006896D01*
X016781Y006314D01*
X016781Y006163D01*
X016843Y006013D01*
X016958Y005898D01*
X017109Y005836D01*
X017259Y005836D01*
X017343Y005752D01*
X017343Y004718D01*
X017343Y004622D01*
X017380Y004534D01*
X017467Y004447D01*
X017381Y004447D01*
X017173Y004361D01*
X017015Y004202D01*
X016929Y003995D01*
X016929Y003770D01*
X017015Y003563D01*
X017173Y003404D01*
X017381Y003318D01*
X017605Y003318D01*
X017813Y003404D01*
X017903Y003312D02*
X015250Y003312D01*
X015308Y003215D02*
X017903Y003215D01*
X017903Y003118D02*
X015348Y003118D01*
X015359Y003021D02*
X017903Y003021D01*
X017916Y002924D02*
X015359Y002924D01*
X015335Y002827D02*
X018013Y002827D01*
X018410Y002827D02*
X018513Y002827D01*
X018910Y002827D02*
X019013Y002827D01*
X019410Y002827D02*
X019513Y002827D01*
X019910Y002827D02*
X020579Y002827D01*
X020579Y002730D02*
X015314Y002730D01*
X015314Y002633D02*
X020579Y002633D01*
X020579Y002536D02*
X015314Y002536D01*
X015314Y002439D02*
X020579Y002439D01*
X020623Y002001D02*
X020536Y001914D01*
X020340Y003292D02*
X020340Y003312D01*
X019712Y003312D02*
X019712Y003449D01*
X019212Y003449D02*
X019212Y004079D01*
X020320Y004079D01*
X020340Y004060D01*
X019853Y004379D02*
X019452Y004379D01*
X019212Y004617D02*
X019212Y004079D01*
X018971Y004088D02*
X018899Y004088D01*
X018915Y004072D02*
X018072Y004915D01*
X018074Y004914D01*
X018202Y004914D01*
X018202Y005487D01*
X018221Y005487D01*
X018221Y004914D01*
X018349Y004914D01*
X018387Y004925D01*
X018421Y004944D01*
X018432Y004955D01*
X018514Y004873D01*
X018616Y004873D01*
X018629Y004860D01*
X018971Y004517D01*
X018971Y004127D01*
X018971Y004032D01*
X018971Y004030D01*
X018962Y004021D01*
X018918Y004064D01*
X018915Y004072D01*
X018971Y004185D02*
X018802Y004185D01*
X018705Y004282D02*
X018971Y004282D01*
X018971Y004379D02*
X018608Y004379D01*
X018511Y004476D02*
X018971Y004476D01*
X018916Y004573D02*
X018414Y004573D01*
X018317Y004670D02*
X018819Y004670D01*
X018722Y004766D02*
X018220Y004766D01*
X018123Y004863D02*
X018625Y004863D01*
X018221Y004960D02*
X018202Y004960D01*
X018202Y005057D02*
X018221Y005057D01*
X018221Y005154D02*
X018202Y005154D01*
X018202Y005251D02*
X018221Y005251D01*
X018221Y005348D02*
X018202Y005348D01*
X018202Y005445D02*
X018221Y005445D01*
X017780Y004867D02*
X017780Y006245D01*
X017262Y005833D02*
X013414Y005833D01*
X013552Y005736D02*
X017343Y005736D01*
X017343Y005639D02*
X013620Y005639D01*
X013660Y005542D02*
X017343Y005542D01*
X017343Y005445D02*
X013662Y005445D01*
X013650Y005348D02*
X017343Y005348D01*
X017343Y005251D02*
X013610Y005251D01*
X013591Y005154D02*
X017343Y005154D01*
X017343Y005057D02*
X013591Y005057D01*
X013591Y004960D02*
X017343Y004960D01*
X017343Y004863D02*
X013591Y004863D01*
X013591Y004766D02*
X017343Y004766D01*
X017343Y004670D02*
X013591Y004670D01*
X013591Y004573D02*
X017364Y004573D01*
X017438Y004476D02*
X016086Y004476D01*
X016183Y004379D02*
X017217Y004379D01*
X017094Y004282D02*
X016280Y004282D01*
X016359Y004185D02*
X017008Y004185D01*
X016967Y004088D02*
X016359Y004088D01*
X016359Y003991D02*
X016929Y003991D01*
X016929Y003894D02*
X016359Y003894D01*
X016359Y003797D02*
X016929Y003797D01*
X016958Y003700D02*
X016284Y003700D01*
X016187Y003603D02*
X016998Y003603D01*
X017072Y003506D02*
X016090Y003506D01*
X015597Y003506D02*
X015025Y003506D01*
X015153Y003409D02*
X017169Y003409D01*
X017780Y004867D02*
X018712Y003936D01*
X018712Y003449D01*
X019712Y005497D02*
X019712Y006873D01*
X019952Y006900D02*
X022314Y006900D01*
X022293Y006997D02*
X019920Y006997D01*
X019830Y007094D02*
X022293Y007094D01*
X022325Y007191D02*
X019895Y007191D01*
X019937Y007288D02*
X022379Y007288D01*
X022485Y007385D02*
X021017Y007385D01*
X021109Y007482D02*
X021694Y007482D01*
X021675Y007579D02*
X021109Y007579D01*
X021109Y007676D02*
X021675Y007676D01*
X021675Y007773D02*
X021109Y007773D01*
X021109Y007869D02*
X022070Y007869D01*
X022070Y007773D02*
X022168Y007773D01*
X022168Y007869D02*
X022658Y007869D01*
X022658Y007773D02*
X022564Y007773D01*
X022564Y007676D02*
X022658Y007676D01*
X022658Y007579D02*
X022564Y007579D01*
X022544Y007482D02*
X022658Y007482D01*
X022899Y007229D02*
X022702Y007032D01*
X022899Y006835D01*
X022658Y006609D02*
X019952Y006609D01*
X019952Y006706D02*
X022450Y006706D01*
X022354Y006803D02*
X019952Y006803D01*
X019952Y006512D02*
X022658Y006512D01*
X022658Y006415D02*
X019952Y006415D01*
X019952Y006318D02*
X020198Y006318D01*
X020137Y006221D02*
X019952Y006221D01*
X019952Y006124D02*
X020137Y006124D01*
X020137Y006027D02*
X020002Y006027D01*
X020021Y005930D02*
X020137Y005930D01*
X020137Y005833D02*
X020021Y005833D01*
X020021Y005736D02*
X020137Y005736D01*
X020137Y005639D02*
X020021Y005639D01*
X020021Y005542D02*
X020137Y005542D01*
X020160Y005445D02*
X020021Y005445D01*
X021109Y006221D02*
X021633Y006221D01*
X021694Y006318D02*
X021048Y006318D01*
X020229Y007385D02*
X019961Y007385D01*
X019961Y007482D02*
X020137Y007482D01*
X020137Y007579D02*
X019931Y007579D01*
X019880Y007676D02*
X020137Y007676D01*
X020137Y007773D02*
X019886Y007773D01*
X019934Y007869D02*
X020137Y007869D01*
X020050Y007966D02*
X019961Y007966D01*
X019552Y008016D02*
X019552Y008410D01*
X019355Y008607D01*
X019355Y010575D01*
X019355Y010969D01*
X019158Y010969D02*
X019158Y011363D01*
X019158Y011315D02*
X019132Y011315D01*
X019090Y011357D01*
X019005Y011357D01*
X019005Y011615D01*
X019111Y011722D01*
X019173Y011872D01*
X019173Y012035D01*
X019111Y012185D01*
X018996Y012300D01*
X018846Y012362D01*
X018683Y012362D01*
X018533Y012300D01*
X018418Y012185D01*
X018356Y012035D01*
X018356Y011872D01*
X018418Y011722D01*
X018525Y011615D01*
X018525Y011357D01*
X018440Y011357D01*
X018243Y011357D01*
X018046Y011357D01*
X017849Y011357D01*
X017652Y011357D01*
X017455Y011357D01*
X017318Y011357D01*
X017062Y011357D01*
X016865Y011357D01*
X016668Y011357D01*
X016643Y011357D01*
X016643Y011460D01*
X017514Y012332D01*
X017665Y012332D01*
X017815Y012394D01*
X017930Y012509D01*
X017992Y012659D01*
X017992Y012822D01*
X017930Y012972D01*
X017815Y013087D01*
X017665Y013149D01*
X017502Y013149D01*
X017352Y013087D01*
X017237Y012972D01*
X017175Y012822D01*
X017175Y012672D01*
X016199Y011696D01*
X016162Y011607D01*
X016162Y011512D01*
X016162Y011357D01*
X016077Y011357D01*
X015880Y011357D01*
X015684Y011357D01*
X015487Y011357D01*
X015375Y011245D01*
X015375Y011017D01*
X015375Y010872D01*
X015319Y010816D01*
X015072Y010816D01*
X014977Y010816D01*
X014889Y010779D01*
X014571Y010461D01*
X014069Y010461D01*
X014570Y010962D01*
X014638Y011030D01*
X014674Y011118D01*
X014674Y011460D01*
X014730Y011516D01*
X014875Y011516D01*
X015104Y011516D01*
X015215Y011628D01*
X015215Y011885D01*
X015215Y012082D01*
X015215Y012279D01*
X015215Y012475D01*
X015190Y012501D01*
X015474Y012501D01*
X015580Y012394D01*
X015731Y012332D01*
X015893Y012332D01*
X016043Y012394D01*
X016158Y012509D01*
X016221Y012659D01*
X016221Y012822D01*
X016158Y012972D01*
X016043Y013087D01*
X015893Y013149D01*
X015731Y013149D01*
X015580Y013087D01*
X015474Y012981D01*
X015215Y012981D01*
X015215Y013066D01*
X015215Y013263D01*
X015215Y013460D01*
X015215Y013485D01*
X016261Y013485D01*
X016368Y013379D01*
X016518Y013316D01*
X016681Y013316D01*
X016831Y013379D01*
X016946Y013494D01*
X021609Y013494D01*
X021590Y013513D02*
X021711Y013392D01*
X021778Y013325D01*
X021867Y013288D01*
X022405Y013288D01*
X022498Y013195D01*
X022566Y013128D01*
X022654Y013091D01*
X022904Y013091D01*
X022904Y013006D01*
X022904Y012809D01*
X022904Y012612D01*
X022930Y012587D01*
X022801Y012587D01*
X022684Y012704D01*
X022655Y012775D01*
X022540Y012890D01*
X022389Y012953D01*
X022227Y012953D01*
X022076Y012890D01*
X021961Y012775D01*
X021929Y012698D01*
X021929Y012822D01*
X021867Y012972D01*
X021752Y013087D01*
X021602Y013149D01*
X021439Y013149D01*
X021289Y013087D01*
X021174Y012972D01*
X021112Y012822D01*
X021112Y012659D01*
X021174Y012509D01*
X021289Y012394D01*
X021360Y012365D01*
X021908Y011817D01*
X021975Y011750D01*
X022063Y011713D01*
X022602Y011713D01*
X022763Y011553D01*
X022851Y011516D01*
X022946Y011516D01*
X023340Y011516D01*
X023568Y011516D01*
X023643Y011591D01*
X023643Y009187D01*
X022859Y009970D01*
X022980Y009970D01*
X023130Y010032D01*
X023245Y010147D01*
X023307Y010297D01*
X023307Y010460D01*
X023245Y010610D01*
X023130Y010725D01*
X022980Y010787D01*
X022817Y010787D01*
X022699Y010738D01*
X022703Y010753D01*
X022703Y010969D01*
X022548Y010969D01*
X022548Y010969D01*
X022703Y010969D01*
X022703Y011186D01*
X022693Y011224D01*
X022673Y011258D01*
X022646Y011285D01*
X022612Y011305D01*
X022574Y011315D01*
X022505Y011315D01*
X022505Y011288D01*
X022505Y011289D01*
X022505Y011315D01*
X022478Y011315D01*
X022436Y011357D01*
X022180Y011357D01*
X022043Y011357D01*
X021786Y011357D01*
X021589Y011357D01*
X021392Y011357D01*
X021367Y011357D01*
X021367Y011804D01*
X021330Y011893D01*
X021263Y011960D01*
X020694Y012529D01*
X020748Y012659D01*
X020748Y012822D01*
X020686Y012972D01*
X020571Y013087D01*
X020421Y013149D01*
X020258Y013149D01*
X020108Y013087D01*
X019993Y012972D01*
X019931Y012822D01*
X019931Y012659D01*
X019993Y012509D01*
X020108Y012394D01*
X020179Y012365D01*
X020887Y011657D01*
X020887Y011357D01*
X020802Y011357D01*
X020776Y011332D01*
X020776Y011411D01*
X020740Y011499D01*
X020672Y011566D01*
X020125Y012114D01*
X020095Y012185D01*
X019980Y012300D01*
X019830Y012362D01*
X019668Y012362D01*
X019517Y012300D01*
X019402Y012185D01*
X019340Y012035D01*
X019340Y011872D01*
X019402Y011722D01*
X019517Y011607D01*
X019668Y011545D01*
X019830Y011545D01*
X019961Y011599D01*
X020203Y011357D01*
X020014Y011357D01*
X019817Y011357D01*
X019621Y011357D01*
X019579Y011315D01*
X019552Y011315D01*
X019525Y011315D01*
X019484Y011357D01*
X019227Y011357D01*
X019185Y011315D01*
X019159Y011315D01*
X019159Y011289D01*
X019158Y011288D01*
X019158Y011289D01*
X019158Y011315D01*
X019005Y011360D02*
X020199Y011360D01*
X020102Y011457D02*
X019005Y011457D01*
X019005Y011554D02*
X019644Y011554D01*
X019473Y011651D02*
X019041Y011651D01*
X019122Y011748D02*
X019391Y011748D01*
X019351Y011845D02*
X019162Y011845D01*
X019173Y011942D02*
X019340Y011942D01*
X019342Y012039D02*
X019172Y012039D01*
X019131Y012136D02*
X019382Y012136D01*
X019451Y012233D02*
X019063Y012233D01*
X018923Y012330D02*
X019590Y012330D01*
X019908Y012330D02*
X020214Y012330D01*
X020311Y012233D02*
X020047Y012233D01*
X020116Y012136D02*
X020408Y012136D01*
X020505Y012039D02*
X020200Y012039D01*
X020297Y011942D02*
X020602Y011942D01*
X020699Y011845D02*
X020394Y011845D01*
X020491Y011748D02*
X020796Y011748D01*
X020887Y011651D02*
X020588Y011651D01*
X020684Y011554D02*
X020887Y011554D01*
X020887Y011457D02*
X020757Y011457D01*
X020776Y011360D02*
X020887Y011360D01*
X020733Y011560D02*
X020733Y010969D01*
X020536Y010969D02*
X020536Y011363D01*
X019946Y011953D01*
X019749Y011953D01*
X019854Y011554D02*
X020005Y011554D01*
X019552Y011363D02*
X019552Y010969D01*
X019749Y010969D02*
X019749Y010182D01*
X019552Y009985D01*
X019552Y008804D01*
X020623Y007733D01*
X020623Y007871D01*
X021109Y007966D02*
X021675Y007966D01*
X021675Y008063D02*
X021109Y008063D01*
X021109Y008160D02*
X021675Y008160D01*
X021693Y008257D02*
X021109Y008257D01*
X021020Y008354D02*
X022221Y008354D01*
X022168Y008257D02*
X022070Y008257D01*
X022070Y008160D02*
X022168Y008160D01*
X022168Y008063D02*
X022070Y008063D01*
X022070Y007966D02*
X022168Y007966D01*
X022168Y007676D02*
X022070Y007676D01*
X022070Y007579D02*
X022168Y007579D01*
X022168Y007482D02*
X022070Y007482D01*
X022564Y007966D02*
X022609Y007966D01*
X022899Y008016D02*
X022899Y007229D01*
X022899Y008016D02*
X021324Y009591D01*
X021324Y010969D01*
X021127Y010969D02*
X021127Y011757D01*
X020340Y012544D01*
X020340Y012741D01*
X020711Y012912D02*
X021149Y012912D01*
X021112Y012815D02*
X020748Y012815D01*
X020748Y012718D02*
X021112Y012718D01*
X021128Y012621D02*
X020732Y012621D01*
X020699Y012524D02*
X021168Y012524D01*
X021256Y012427D02*
X020796Y012427D01*
X020893Y012330D02*
X021395Y012330D01*
X021492Y012233D02*
X020990Y012233D01*
X021087Y012136D02*
X021589Y012136D01*
X021686Y012039D02*
X021184Y012039D01*
X021281Y011942D02*
X021783Y011942D01*
X021880Y011845D02*
X021350Y011845D01*
X021367Y011748D02*
X021979Y011748D01*
X022111Y011953D02*
X022702Y011953D01*
X022899Y011757D01*
X023292Y011757D01*
X023606Y011554D02*
X023643Y011554D01*
X023643Y011457D02*
X021367Y011457D01*
X021367Y011360D02*
X023643Y011360D01*
X023643Y011263D02*
X022668Y011263D01*
X022703Y011166D02*
X023643Y011166D01*
X023643Y011069D02*
X022703Y011069D01*
X022703Y010972D02*
X023643Y010972D01*
X023643Y010876D02*
X022703Y010876D01*
X022703Y010779D02*
X022796Y010779D01*
X023001Y010779D02*
X023643Y010779D01*
X023643Y010682D02*
X023174Y010682D01*
X023256Y010585D02*
X023643Y010585D01*
X023643Y010488D02*
X023296Y010488D01*
X023307Y010391D02*
X023643Y010391D01*
X023643Y010294D02*
X023306Y010294D01*
X023266Y010197D02*
X023643Y010197D01*
X023643Y010100D02*
X023198Y010100D01*
X023059Y010003D02*
X023643Y010003D01*
X023643Y009906D02*
X022923Y009906D01*
X023020Y009809D02*
X023643Y009809D01*
X023643Y009712D02*
X023117Y009712D01*
X023214Y009615D02*
X023643Y009615D01*
X023643Y009518D02*
X023311Y009518D01*
X023408Y009421D02*
X023643Y009421D01*
X023643Y009324D02*
X023505Y009324D01*
X023602Y009227D02*
X023643Y009227D01*
X024591Y010064D02*
X025190Y010064D01*
X025189Y010378D02*
X024864Y010378D01*
X024864Y010304D01*
X024691Y010304D01*
X024320Y010675D01*
X024320Y010783D01*
X024337Y010766D01*
X024426Y010729D01*
X024521Y010729D01*
X024822Y010729D01*
X024822Y010536D01*
X024867Y010490D01*
X024864Y010477D01*
X024864Y010379D01*
X025189Y010379D01*
X025189Y010378D01*
X025190Y010378D02*
X025190Y010379D01*
X025516Y010379D01*
X025516Y010477D01*
X025513Y010490D01*
X025558Y010536D01*
X025558Y010851D01*
X025558Y011166D01*
X025558Y011481D01*
X025558Y011796D01*
X025513Y011842D01*
X025516Y011855D01*
X025516Y011953D01*
X025190Y011953D01*
X025190Y011954D01*
X025516Y011954D01*
X025516Y012052D01*
X025513Y012065D01*
X025558Y012110D01*
X025558Y012426D01*
X025513Y012471D01*
X025516Y012485D01*
X025516Y012583D01*
X025190Y012583D01*
X025190Y012583D01*
X025516Y012583D01*
X025516Y012682D01*
X025513Y012695D01*
X025558Y012740D01*
X025558Y013056D01*
X025558Y013371D01*
X025558Y013686D01*
X025558Y014001D01*
X025558Y014316D01*
X025558Y014631D01*
X025558Y014946D01*
X025558Y015261D01*
X025558Y015576D01*
X025558Y015891D01*
X025513Y015936D01*
X025516Y015949D01*
X025516Y016044D01*
X025752Y016044D01*
X025808Y015988D01*
X025808Y009691D01*
X025558Y009441D01*
X025558Y009592D01*
X025558Y009906D01*
X025808Y009906D01*
X025808Y010003D02*
X025558Y010003D01*
X025558Y009906D02*
X025558Y010221D01*
X025513Y010267D01*
X025516Y010280D01*
X025516Y010378D01*
X025190Y010378D01*
X025516Y010391D02*
X025808Y010391D01*
X025808Y010488D02*
X025513Y010488D01*
X025558Y010585D02*
X025808Y010585D01*
X025808Y010682D02*
X025558Y010682D01*
X025558Y010779D02*
X025808Y010779D01*
X025808Y010876D02*
X025558Y010876D01*
X025558Y010972D02*
X025808Y010972D01*
X025808Y011069D02*
X025558Y011069D01*
X025558Y011166D02*
X025808Y011166D01*
X025808Y011263D02*
X025558Y011263D01*
X025558Y011360D02*
X025808Y011360D01*
X025808Y011457D02*
X025558Y011457D01*
X025558Y011554D02*
X025808Y011554D01*
X025808Y011651D02*
X025558Y011651D01*
X025558Y011748D02*
X025808Y011748D01*
X025808Y011845D02*
X025514Y011845D01*
X025516Y011942D02*
X025808Y011942D01*
X025808Y012039D02*
X025516Y012039D01*
X025558Y012136D02*
X025808Y012136D01*
X025808Y012233D02*
X025558Y012233D01*
X025558Y012330D02*
X025808Y012330D01*
X025808Y012427D02*
X025557Y012427D01*
X025516Y012524D02*
X025808Y012524D01*
X025808Y012621D02*
X025516Y012621D01*
X025536Y012718D02*
X025808Y012718D01*
X025808Y012815D02*
X025558Y012815D01*
X025558Y012912D02*
X025808Y012912D01*
X025808Y013009D02*
X025558Y013009D01*
X025558Y013106D02*
X025808Y013106D01*
X025808Y013203D02*
X025558Y013203D01*
X025558Y013300D02*
X025808Y013300D01*
X025808Y013397D02*
X025558Y013397D01*
X025558Y013494D02*
X025808Y013494D01*
X025808Y013591D02*
X025558Y013591D01*
X025558Y013688D02*
X025808Y013688D01*
X025808Y013785D02*
X025558Y013785D01*
X025558Y013882D02*
X025808Y013882D01*
X025808Y013979D02*
X025558Y013979D01*
X025558Y014075D02*
X025808Y014075D01*
X025808Y014172D02*
X025558Y014172D01*
X025558Y014269D02*
X025808Y014269D01*
X025808Y014366D02*
X025558Y014366D01*
X025558Y014463D02*
X025808Y014463D01*
X025808Y014560D02*
X025558Y014560D01*
X025558Y014657D02*
X025808Y014657D01*
X025808Y014754D02*
X025558Y014754D01*
X025558Y014851D02*
X025808Y014851D01*
X025808Y014948D02*
X025558Y014948D01*
X025558Y015045D02*
X025808Y015045D01*
X025808Y015142D02*
X025558Y015142D01*
X025558Y015239D02*
X025808Y015239D01*
X025808Y015336D02*
X025558Y015336D01*
X025558Y015433D02*
X025808Y015433D01*
X025808Y015530D02*
X025558Y015530D01*
X025558Y015627D02*
X025808Y015627D01*
X025808Y015724D02*
X025558Y015724D01*
X025558Y015821D02*
X025808Y015821D01*
X025808Y015918D02*
X025531Y015918D01*
X025516Y016015D02*
X025781Y016015D01*
X025654Y015890D02*
X025497Y016048D01*
X025190Y016048D01*
X025190Y015733D02*
X024710Y015733D01*
X024080Y015103D01*
X023883Y015103D01*
X023292Y015103D01*
X023292Y014906D02*
X024080Y014906D01*
X024277Y014906D01*
X024788Y015418D01*
X025190Y015418D01*
X025190Y015103D02*
X024867Y015103D01*
X024473Y014709D01*
X024277Y014709D01*
X023292Y014709D01*
X023292Y014512D02*
X024473Y014512D01*
X024670Y014512D01*
X024946Y014788D01*
X025190Y014788D01*
X025190Y014473D02*
X025025Y014473D01*
X024867Y014316D01*
X024670Y014316D01*
X023292Y014316D01*
X023292Y014119D02*
X025064Y014119D01*
X025103Y014158D01*
X025190Y014158D01*
X025190Y013843D02*
X024395Y013843D01*
X024080Y013528D01*
X023292Y013528D01*
X023292Y013331D02*
X022702Y013331D01*
X022505Y013528D01*
X021914Y013528D01*
X021521Y013922D01*
X021899Y014076D02*
X021899Y014200D01*
X021961Y014350D01*
X022076Y014465D01*
X022227Y014527D01*
X022389Y014527D01*
X022540Y014465D01*
X022655Y014350D01*
X022717Y014200D01*
X022717Y014050D01*
X022801Y013965D01*
X022930Y013965D01*
X022904Y013990D01*
X022904Y014187D01*
X022904Y014384D01*
X022904Y014581D01*
X022904Y014778D01*
X022904Y014975D01*
X022904Y015171D01*
X022904Y015257D01*
X022717Y015257D01*
X022717Y015219D01*
X022655Y015068D01*
X022540Y014953D01*
X022389Y014891D01*
X022227Y014891D01*
X022076Y014953D01*
X021961Y015068D01*
X021899Y015219D01*
X021899Y015381D01*
X021961Y015531D01*
X022076Y015646D01*
X022227Y015709D01*
X022389Y015709D01*
X022457Y015737D01*
X022553Y015737D01*
X022930Y015737D01*
X022904Y015762D01*
X022904Y015959D01*
X022904Y016156D01*
X022904Y016241D01*
X022801Y016241D01*
X022708Y016148D01*
X022641Y016081D01*
X022553Y016044D01*
X021859Y016044D01*
X021752Y015938D01*
X021602Y015875D01*
X021439Y015875D01*
X021289Y015938D01*
X021174Y016053D01*
X021112Y016203D01*
X021112Y016365D01*
X021174Y016516D01*
X021289Y016631D01*
X021439Y016693D01*
X021602Y016693D01*
X021752Y016631D01*
X021859Y016524D01*
X022086Y016524D01*
X022076Y016528D01*
X021961Y016643D01*
X021899Y016793D01*
X021899Y016956D01*
X021961Y017106D01*
X022076Y017221D01*
X022227Y017283D01*
X022389Y017283D01*
X022540Y017221D01*
X022655Y017106D01*
X022717Y016956D01*
X022717Y016918D01*
X022930Y016918D01*
X022904Y016943D01*
X022904Y017140D01*
X022904Y017337D01*
X022904Y017534D01*
X022904Y017731D01*
X022904Y017927D01*
X022904Y018124D01*
X022904Y018321D01*
X022904Y018518D01*
X022904Y018775D01*
X023016Y018886D01*
X023568Y018886D01*
X023697Y018886D01*
X022996Y019587D01*
X022801Y019587D01*
X022745Y019531D01*
X022745Y019158D01*
X022633Y019046D01*
X022436Y019046D01*
X022239Y019046D01*
X022043Y019046D01*
X021846Y019046D01*
X021761Y019046D01*
X021761Y018205D01*
X021724Y018117D01*
X021657Y018049D01*
X021339Y017731D01*
X021339Y017581D01*
X021277Y017431D01*
X021162Y017316D01*
X021011Y017253D01*
X020849Y017253D01*
X020699Y017316D01*
X020584Y017431D01*
X020521Y017581D01*
X020521Y017743D01*
X020584Y017894D01*
X020699Y018009D01*
X020813Y018056D01*
X020699Y018103D01*
X020584Y018218D01*
X020521Y018368D01*
X020521Y018531D01*
X020584Y018681D01*
X020690Y018787D01*
X020690Y019071D01*
X020665Y019046D01*
X020468Y019046D01*
X020271Y019046D01*
X020074Y019046D01*
X019877Y019046D01*
X019680Y019046D01*
X019484Y019046D01*
X019287Y019046D01*
X019090Y019046D01*
X018893Y019046D01*
X018808Y019046D01*
X018808Y018787D01*
X018914Y018681D01*
X018977Y018531D01*
X018977Y018368D01*
X018914Y018218D01*
X018799Y018103D01*
X018649Y018041D01*
X018487Y018041D01*
X018336Y018103D01*
X018221Y018218D01*
X018159Y018368D01*
X018159Y018531D01*
X018221Y018681D01*
X018328Y018787D01*
X018328Y019046D01*
X018106Y019046D01*
X017849Y019046D01*
X017712Y019046D01*
X017515Y019046D01*
X017318Y019046D01*
X017121Y019046D01*
X017036Y019046D01*
X017036Y018943D01*
X017908Y018071D01*
X018059Y018071D01*
X018209Y018009D01*
X018324Y017894D01*
X018386Y017743D01*
X018386Y017581D01*
X018324Y017431D01*
X018209Y017316D01*
X018059Y017253D01*
X017896Y017253D01*
X017746Y017316D01*
X017631Y017431D01*
X017569Y017581D01*
X017569Y017731D01*
X016660Y018640D01*
X016593Y018707D01*
X016556Y018795D01*
X016556Y019046D01*
X016531Y019046D01*
X016334Y019046D01*
X016077Y019046D01*
X015940Y019046D01*
X015684Y019046D01*
X015642Y019088D01*
X015615Y019088D01*
X015615Y019115D01*
X015615Y019114D01*
X015615Y019088D01*
X015546Y019088D01*
X015508Y019098D01*
X015474Y019117D01*
X015446Y019145D01*
X015427Y019179D01*
X015417Y019217D01*
X015417Y019433D01*
X015572Y019433D01*
X015572Y019434D01*
X015417Y019434D01*
X015417Y019650D01*
X015427Y019688D01*
X015446Y019722D01*
X015474Y019750D01*
X015508Y019770D01*
X015526Y019774D01*
X015516Y019784D01*
X015040Y019784D01*
X015040Y019746D01*
X014977Y019596D01*
X014862Y019481D01*
X014712Y019419D01*
X014550Y019419D01*
X014399Y019481D01*
X014284Y019596D01*
X014222Y019746D01*
X014222Y019909D01*
X014284Y020059D01*
X014399Y020174D01*
X014409Y020178D01*
X014285Y020178D01*
X014189Y020178D01*
X014101Y020214D01*
X013744Y020571D01*
X013487Y020571D01*
X013498Y020565D01*
X013566Y020513D01*
X013626Y020453D01*
X013678Y020386D01*
X013720Y020312D01*
X013753Y020233D01*
X013775Y020151D01*
X013785Y020073D01*
X013186Y020073D01*
X013186Y019975D01*
X013785Y019975D01*
X013775Y019897D01*
X013753Y019815D01*
X013720Y019736D01*
X013678Y019663D01*
X013626Y019595D01*
X013566Y019535D01*
X013498Y019483D01*
X013425Y019441D01*
X013346Y019408D01*
X013264Y019386D01*
X013186Y019376D01*
X013186Y019975D01*
X013088Y019975D01*
X013088Y019376D01*
X013010Y019386D01*
X012928Y019408D01*
X012849Y019441D01*
X012775Y019483D01*
X012708Y019535D01*
X012648Y019595D01*
X012596Y019663D01*
X012553Y019736D01*
X012521Y019815D01*
X012499Y019897D01*
X012488Y019975D01*
X013087Y019975D01*
X013087Y020073D01*
X012488Y020073D01*
X012499Y020151D01*
X012521Y020233D01*
X012553Y020312D01*
X012596Y020386D01*
X012648Y020453D01*
X012708Y020513D01*
X012775Y020565D01*
X012786Y020571D01*
X009662Y020571D01*
X009574Y020608D01*
X009506Y020676D01*
X009506Y020676D01*
X008983Y021199D01*
X008983Y021199D01*
X008915Y021266D01*
X008879Y021354D01*
X008879Y022484D01*
X007810Y023553D01*
X007660Y023553D01*
X007510Y023615D01*
X007395Y023730D01*
X007332Y023880D01*
X007332Y024043D01*
X007395Y024193D01*
X007452Y024250D01*
X007452Y024906D01*
X007491Y024946D01*
X007452Y024984D01*
X007452Y025049D01*
X007027Y025049D01*
X006919Y025049D01*
X006820Y025090D01*
X005464Y026446D01*
X005416Y026446D01*
X005290Y026320D01*
X005118Y026249D01*
X004931Y026249D01*
X004759Y026320D01*
X004628Y026452D01*
X004556Y026624D01*
X004556Y026810D01*
X004628Y026982D01*
X004759Y027114D01*
X004931Y027185D01*
X005118Y027185D01*
X005290Y027114D01*
X005416Y026988D01*
X005630Y026988D01*
X005729Y026947D01*
X005805Y026871D01*
X007086Y025590D01*
X007452Y025590D01*
X007452Y025655D01*
X007456Y025659D01*
X007401Y025659D01*
X007293Y025659D01*
X007194Y025700D01*
X005816Y027078D01*
X005740Y027154D01*
X005699Y027254D01*
X005699Y027258D01*
X005586Y027305D01*
X005454Y027436D01*
X005416Y027530D01*
X005389Y027478D01*
X005350Y027424D01*
X005302Y027376D01*
X005248Y027337D01*
X005188Y027306D01*
X005124Y027286D01*
X005064Y027276D01*
X005064Y027662D01*
X004985Y027662D01*
X004599Y027662D01*
X004609Y027602D01*
X004629Y027538D01*
X004660Y027478D01*
X004699Y027424D01*
X004747Y027376D01*
X004801Y027337D01*
X004861Y027306D01*
X004925Y027286D01*
X004985Y027276D01*
X004985Y027662D01*
X004985Y027741D01*
X004985Y028127D01*
X004925Y028117D01*
X004861Y028097D01*
X004801Y028066D01*
X004747Y028027D01*
X004699Y027979D01*
X004660Y027925D01*
X004629Y027865D01*
X004609Y027801D01*
X004599Y027741D01*
X004985Y027741D01*
X005064Y027741D01*
X005064Y028127D01*
X005124Y028117D01*
X005188Y028097D01*
X005248Y028066D01*
X005302Y028027D01*
X005350Y027979D01*
X005389Y027925D01*
X005416Y027873D01*
X005454Y027967D01*
X005586Y028098D01*
X005758Y028169D01*
X005944Y028169D01*
X006116Y028098D01*
X006248Y027967D01*
X006319Y027795D01*
X006319Y027608D01*
X006248Y027436D01*
X006240Y027428D01*
X006240Y027420D01*
X007460Y026201D01*
X008386Y026201D01*
X008485Y026159D01*
X008561Y026083D01*
X008878Y025766D01*
X009100Y025766D01*
X009212Y025655D01*
X009212Y024984D01*
X009173Y024946D01*
X009212Y024906D01*
X009212Y024449D01*
X009290Y024370D01*
X009397Y024370D01*
X009547Y024308D01*
X009662Y024193D01*
X009725Y024043D01*
X009725Y023880D01*
X009662Y023730D01*
X009556Y023623D01*
X009556Y021699D01*
X010006Y021249D01*
X010027Y021249D01*
X009926Y021349D01*
X009859Y021511D01*
X009859Y021687D01*
X009926Y021849D01*
X010050Y021973D01*
X010212Y022040D01*
X013573Y022040D01*
X013573Y023140D01*
X013469Y023140D01*
X013414Y023195D01*
X013409Y023192D01*
X013371Y023182D01*
X013105Y023182D01*
X013105Y023538D01*
X013007Y023538D01*
X013007Y023182D01*
X012741Y023182D01*
X012703Y023192D01*
X012669Y023212D01*
X012641Y023240D01*
X012622Y023274D01*
X012612Y023312D01*
X012612Y023538D01*
X013007Y023538D01*
X013007Y023636D01*
X012612Y023636D01*
X012612Y023863D01*
X012622Y023901D01*
X012639Y023931D01*
X012570Y024000D01*
X012570Y024670D01*
X012682Y024782D01*
X013430Y024782D01*
X013450Y024763D01*
X013469Y024782D01*
X014218Y024782D01*
X014330Y024670D01*
X014330Y024595D01*
X019307Y024595D01*
X019403Y024595D01*
X019491Y024559D01*
X020002Y024048D01*
X020038Y023960D01*
X020038Y023864D01*
X020038Y023802D01*
X020196Y023867D01*
X020401Y023867D01*
X020590Y023788D01*
X020735Y023643D01*
X020798Y023492D01*
X020861Y023643D01*
X021006Y023788D01*
X021196Y023867D01*
X021401Y023867D01*
X021590Y023788D01*
X021735Y023643D01*
X021798Y023492D01*
X021861Y023643D01*
X022006Y023788D01*
X022196Y023867D01*
X022401Y023867D01*
X022590Y023788D01*
X022735Y023643D01*
X022798Y023492D01*
X022861Y023643D01*
X023006Y023788D01*
X023196Y023867D01*
X023401Y023867D01*
X023558Y023802D01*
X023558Y024162D01*
X023454Y024205D01*
X023339Y024320D01*
X023277Y024470D01*
X023277Y024633D01*
X023300Y024688D01*
X023292Y024695D01*
X023253Y024656D01*
X022583Y024656D01*
X022471Y024768D01*
X022471Y025517D01*
X022583Y025629D01*
X022647Y025629D01*
X022647Y025806D01*
X022689Y025906D01*
X022765Y025982D01*
X023454Y026672D01*
X023454Y026810D01*
X023525Y026982D01*
X023657Y027114D01*
X023829Y027185D01*
X024015Y027185D01*
X024187Y027114D01*
X024319Y026982D01*
X024390Y026810D01*
X024390Y026624D01*
X024319Y026452D01*
X024187Y026320D01*
X024015Y026249D01*
X023829Y026249D01*
X023807Y026258D01*
X023189Y025640D01*
X023189Y025629D01*
X023253Y025629D01*
X023292Y025590D01*
X023331Y025629D01*
X024001Y025629D01*
X024080Y025550D01*
X024158Y025629D01*
X024828Y025629D01*
X024867Y025590D01*
X024906Y025629D01*
X024970Y025629D01*
X024970Y025640D01*
X024637Y025973D01*
X024596Y026073D01*
X024596Y026181D01*
X024596Y027258D01*
X024484Y027305D01*
X024352Y027436D01*
X024313Y027530D01*
X024287Y027478D01*
X024247Y027424D01*
X024200Y027376D01*
X024146Y027337D01*
X024086Y027306D01*
X024022Y027286D01*
X023962Y027276D01*
X023962Y027662D01*
X023883Y027662D01*
X023883Y027276D01*
X023822Y027286D01*
X023759Y027306D01*
X023699Y027337D01*
X023644Y027376D01*
X023597Y027424D01*
X023558Y027478D01*
X023527Y027538D01*
X023506Y027602D01*
X023497Y027662D01*
X023883Y027662D01*
X023883Y027741D01*
X023883Y028127D01*
X023822Y028117D01*
X023759Y028097D01*
X023699Y028066D01*
X023644Y028027D01*
X023597Y027979D01*
X023558Y027925D01*
X023527Y027865D01*
X023506Y027801D01*
X023497Y027741D01*
X023883Y027741D01*
X023962Y027741D01*
X023962Y028127D01*
X024022Y028117D01*
X024086Y028097D01*
X024146Y028066D01*
X024200Y028027D01*
X024247Y027979D01*
X024287Y027925D01*
X024313Y027873D01*
X024352Y027967D01*
X024484Y028098D01*
X024656Y028169D01*
X024842Y028169D01*
X025014Y028098D01*
X025146Y027967D01*
X025217Y027795D01*
X025217Y027608D01*
X025146Y027436D01*
X025138Y027428D01*
X025138Y026239D01*
X025471Y025906D01*
X025512Y025806D01*
X025512Y025699D01*
X025512Y025629D01*
X025576Y025629D01*
X025688Y025517D01*
X025688Y025054D01*
X025774Y025141D01*
X025774Y026023D01*
X025846Y026196D01*
X025978Y026329D01*
X026151Y026401D01*
X026254Y026401D01*
X026203Y026452D01*
X026131Y026624D01*
X026131Y026810D01*
X026203Y026982D01*
X026334Y027114D01*
X026506Y027185D01*
X026692Y027185D01*
X026865Y027114D01*
X026996Y026982D01*
X027067Y026810D01*
X027067Y026624D01*
X026996Y026452D01*
X026865Y026320D01*
X026692Y026249D01*
X026592Y026249D01*
X026644Y026196D01*
X026644Y026197D02*
X030327Y026197D01*
X030327Y026294D02*
X026800Y026294D01*
X026935Y026390D02*
X030327Y026390D01*
X030327Y026487D02*
X027011Y026487D01*
X027051Y026584D02*
X030327Y026584D01*
X030327Y026681D02*
X027067Y026681D01*
X027067Y026778D02*
X030327Y026778D01*
X030327Y026875D02*
X027041Y026875D01*
X027000Y026972D02*
X030327Y026972D01*
X030327Y027069D02*
X026909Y027069D01*
X026738Y027166D02*
X030327Y027166D01*
X030327Y027263D02*
X026772Y027263D01*
X026924Y027360D02*
X030327Y027360D01*
X030327Y027457D02*
X027008Y027457D01*
X027048Y027554D02*
X030327Y027554D01*
X030327Y027651D02*
X027070Y027651D01*
X027070Y027748D02*
X030327Y027748D01*
X030327Y027845D02*
X027070Y027845D01*
X027070Y027942D02*
X030327Y027942D01*
X030327Y028039D02*
X027070Y028039D01*
X027070Y028136D02*
X030327Y028136D01*
X030327Y028233D02*
X027070Y028233D01*
X027070Y028330D02*
X030327Y028330D01*
X030327Y028427D02*
X027070Y028427D01*
X027070Y028524D02*
X030327Y028524D01*
X030327Y028621D02*
X027070Y028621D01*
X027070Y028718D02*
X030327Y028718D01*
X030327Y028815D02*
X027070Y028815D01*
X027070Y028912D02*
X030327Y028912D01*
X030327Y029009D02*
X027070Y029009D01*
X027070Y029106D02*
X030327Y029106D01*
X030327Y029203D02*
X027070Y029203D01*
X027070Y029300D02*
X030327Y029300D01*
X030327Y029396D02*
X027070Y029396D01*
X027070Y029493D02*
X030327Y029493D01*
X030327Y029590D02*
X027070Y029590D01*
X027070Y029687D02*
X030327Y029687D01*
X030327Y029784D02*
X027070Y029784D01*
X027038Y029881D02*
X030327Y029881D01*
X030327Y029978D02*
X026996Y029978D01*
X026899Y030075D02*
X030327Y030075D01*
X030327Y030172D02*
X026802Y030172D01*
X026705Y030269D02*
X030327Y030269D01*
X030327Y030366D02*
X026608Y030366D01*
X026511Y030463D02*
X030327Y030463D01*
X030327Y030560D02*
X026414Y030560D01*
X025858Y029784D02*
X008522Y029784D01*
X008425Y029687D02*
X025955Y029687D01*
X026052Y029590D02*
X008328Y029590D01*
X008231Y029493D02*
X026128Y029493D01*
X026128Y029396D02*
X008173Y029396D01*
X008173Y029300D02*
X026128Y029300D01*
X026128Y029203D02*
X008173Y029203D01*
X008173Y029106D02*
X026128Y029106D01*
X026128Y029009D02*
X008173Y029009D01*
X008173Y028912D02*
X026128Y028912D01*
X026128Y028815D02*
X008173Y028815D01*
X008173Y028718D02*
X026128Y028718D01*
X026128Y028621D02*
X008173Y028621D01*
X008173Y028524D02*
X026128Y028524D01*
X026128Y028427D02*
X008173Y028427D01*
X008173Y028330D02*
X026128Y028330D01*
X026128Y028233D02*
X008173Y028233D01*
X008173Y028136D02*
X013895Y028136D01*
X013842Y028114D02*
X013711Y027982D01*
X013640Y027810D01*
X013640Y027624D01*
X013711Y027452D01*
X013842Y027320D01*
X014014Y027249D01*
X014201Y027249D01*
X014373Y027320D01*
X014504Y027452D01*
X014558Y027580D01*
X014611Y027452D01*
X014742Y027320D01*
X014914Y027249D01*
X015101Y027249D01*
X015273Y027320D01*
X015404Y027452D01*
X015458Y027580D01*
X015511Y027452D01*
X015642Y027320D01*
X015814Y027249D01*
X016001Y027249D01*
X016173Y027320D01*
X016304Y027452D01*
X016358Y027580D01*
X016411Y027452D01*
X016542Y027320D01*
X016714Y027249D01*
X016901Y027249D01*
X017073Y027320D01*
X017204Y027452D01*
X017258Y027580D01*
X017311Y027452D01*
X017442Y027320D01*
X017614Y027249D01*
X017801Y027249D01*
X017973Y027320D01*
X018104Y027452D01*
X018176Y027624D01*
X018176Y027810D01*
X018104Y027982D01*
X017973Y028114D01*
X017801Y028185D01*
X017614Y028185D01*
X017442Y028114D01*
X017311Y027982D01*
X017258Y027854D01*
X017204Y027982D01*
X017073Y028114D01*
X016901Y028185D01*
X016714Y028185D01*
X016542Y028114D01*
X016411Y027982D01*
X016358Y027854D01*
X016304Y027982D01*
X016173Y028114D01*
X016001Y028185D01*
X015814Y028185D01*
X015642Y028114D01*
X015511Y027982D01*
X015458Y027854D01*
X015404Y027982D01*
X015273Y028114D01*
X015101Y028185D01*
X014914Y028185D01*
X014742Y028114D01*
X014611Y027982D01*
X014558Y027854D01*
X014504Y027982D01*
X014373Y028114D01*
X014201Y028185D01*
X014014Y028185D01*
X013842Y028114D01*
X013767Y028039D02*
X008173Y028039D01*
X008173Y027942D02*
X013694Y027942D01*
X013654Y027845D02*
X008173Y027845D01*
X008173Y027748D02*
X013640Y027748D01*
X013640Y027651D02*
X008173Y027651D01*
X008150Y027554D02*
X013668Y027554D01*
X013709Y027457D02*
X008110Y027457D01*
X008026Y027360D02*
X013803Y027360D01*
X013980Y027263D02*
X007874Y027263D01*
X007841Y027166D02*
X016219Y027166D01*
X016264Y027185D02*
X016092Y027114D01*
X015961Y026982D01*
X015890Y026810D01*
X015890Y026624D01*
X015961Y026452D01*
X016092Y026320D01*
X016264Y026249D01*
X016451Y026249D01*
X016623Y026320D01*
X016754Y026452D01*
X016826Y026624D01*
X016826Y026810D01*
X016754Y026982D01*
X016623Y027114D01*
X016451Y027185D01*
X016264Y027185D01*
X016213Y027360D02*
X016503Y027360D01*
X016409Y027457D02*
X016307Y027457D01*
X016347Y027554D02*
X016369Y027554D01*
X016394Y027942D02*
X016321Y027942D01*
X016248Y028039D02*
X016467Y028039D01*
X016595Y028136D02*
X016120Y028136D01*
X015695Y028136D02*
X015220Y028136D01*
X015348Y028039D02*
X015567Y028039D01*
X015494Y027942D02*
X015421Y027942D01*
X015447Y027554D02*
X015469Y027554D01*
X015509Y027457D02*
X015407Y027457D01*
X015313Y027360D02*
X015603Y027360D01*
X015780Y027263D02*
X015135Y027263D01*
X015234Y027082D02*
X015180Y027042D01*
X015132Y026995D01*
X015093Y026941D01*
X015062Y026881D01*
X015042Y026817D01*
X015032Y026757D01*
X015418Y026757D01*
X015418Y027143D01*
X015358Y027133D01*
X015294Y027112D01*
X015234Y027082D01*
X015217Y027069D02*
X014798Y027069D01*
X014781Y027082D02*
X014721Y027112D01*
X014657Y027133D01*
X014597Y027143D01*
X014597Y026757D01*
X014518Y026757D01*
X014518Y027143D01*
X014458Y027133D01*
X014394Y027112D01*
X014334Y027082D01*
X014280Y027042D01*
X014232Y026995D01*
X014193Y026941D01*
X014162Y026881D01*
X014142Y026817D01*
X014132Y026757D01*
X014518Y026757D01*
X014518Y026678D01*
X014132Y026678D01*
X014142Y026617D01*
X014162Y026553D01*
X014193Y026494D01*
X014232Y026439D01*
X014280Y026392D01*
X014334Y026352D01*
X014394Y026322D01*
X014458Y026301D01*
X014518Y026292D01*
X014518Y026678D01*
X014597Y026678D01*
X014597Y026757D01*
X014983Y026757D01*
X014973Y026817D01*
X014953Y026881D01*
X014922Y026941D01*
X014883Y026995D01*
X014835Y027042D01*
X014781Y027082D01*
X014899Y026972D02*
X015116Y026972D01*
X015061Y026875D02*
X014955Y026875D01*
X014980Y026778D02*
X015036Y026778D01*
X015032Y026678D02*
X015042Y026617D01*
X015062Y026553D01*
X015093Y026494D01*
X015132Y026439D01*
X015180Y026392D01*
X015234Y026352D01*
X015294Y026322D01*
X015358Y026301D01*
X015418Y026292D01*
X015418Y026678D01*
X015032Y026678D01*
X014983Y026678D02*
X014597Y026678D01*
X014597Y026292D01*
X014657Y026301D01*
X014721Y026322D01*
X014781Y026352D01*
X014835Y026392D01*
X014883Y026439D01*
X014922Y026494D01*
X014953Y026553D01*
X014973Y026617D01*
X014983Y026678D01*
X014963Y026584D02*
X015052Y026584D01*
X015097Y026487D02*
X014918Y026487D01*
X014833Y026390D02*
X015182Y026390D01*
X015101Y026185D02*
X014914Y026185D01*
X014742Y026114D01*
X014611Y025982D01*
X014576Y025898D01*
X014576Y025911D01*
X014301Y026185D01*
X013914Y026185D01*
X013640Y025911D01*
X013640Y025523D01*
X013914Y025249D01*
X014301Y025249D01*
X014576Y025523D01*
X014576Y025537D01*
X014611Y025452D01*
X014742Y025320D01*
X014914Y025249D01*
X015101Y025249D01*
X015273Y025320D01*
X015404Y025452D01*
X015458Y025580D01*
X015511Y025452D01*
X015642Y025320D01*
X015814Y025249D01*
X016001Y025249D01*
X016173Y025320D01*
X016304Y025452D01*
X016358Y025580D01*
X016411Y025452D01*
X016542Y025320D01*
X016714Y025249D01*
X016901Y025249D01*
X017073Y025320D01*
X017204Y025452D01*
X017276Y025624D01*
X017276Y025810D01*
X017204Y025982D01*
X017073Y026114D01*
X016901Y026185D01*
X016714Y026185D01*
X016542Y026114D01*
X016411Y025982D01*
X016358Y025854D01*
X016304Y025982D01*
X016173Y026114D01*
X016001Y026185D01*
X015814Y026185D01*
X015642Y026114D01*
X015511Y025982D01*
X015458Y025854D01*
X015404Y025982D01*
X015273Y026114D01*
X015101Y026185D01*
X015287Y026100D02*
X015628Y026100D01*
X015531Y026003D02*
X015384Y026003D01*
X015436Y025906D02*
X015479Y025906D01*
X015497Y026292D02*
X015557Y026301D01*
X015621Y026322D01*
X015681Y026352D01*
X015735Y026392D01*
X015783Y026439D01*
X015822Y026494D01*
X015853Y026553D01*
X015873Y026617D01*
X015883Y026678D01*
X015497Y026678D01*
X015497Y026757D01*
X015418Y026757D01*
X015418Y026678D01*
X015497Y026678D01*
X015497Y026292D01*
X015497Y026294D02*
X015418Y026294D01*
X015407Y026294D02*
X014608Y026294D01*
X014597Y026294D02*
X014518Y026294D01*
X014507Y026294D02*
X013708Y026294D01*
X013697Y026294D02*
X013618Y026294D01*
X013618Y026292D02*
X013618Y026678D01*
X013232Y026678D01*
X013242Y026617D01*
X013262Y026553D01*
X013293Y026494D01*
X013332Y026439D01*
X013380Y026392D01*
X013434Y026352D01*
X013494Y026322D01*
X013558Y026301D01*
X013618Y026292D01*
X013607Y026294D02*
X007902Y026294D01*
X007967Y026320D02*
X008099Y026452D01*
X008170Y026624D01*
X008170Y026810D01*
X008099Y026982D01*
X007967Y027114D01*
X007795Y027185D01*
X007609Y027185D01*
X007437Y027114D01*
X007305Y026982D01*
X007234Y026810D01*
X007234Y026624D01*
X007305Y026452D01*
X007437Y026320D01*
X007609Y026249D01*
X007795Y026249D01*
X007967Y026320D01*
X008037Y026390D02*
X013382Y026390D01*
X013297Y026487D02*
X008113Y026487D01*
X008153Y026584D02*
X013252Y026584D01*
X013232Y026757D02*
X013618Y026757D01*
X013618Y027143D01*
X013558Y027133D01*
X013494Y027112D01*
X013434Y027082D01*
X013380Y027042D01*
X013332Y026995D01*
X013293Y026941D01*
X013262Y026881D01*
X013242Y026817D01*
X013232Y026757D01*
X013236Y026778D02*
X008170Y026778D01*
X008170Y026681D02*
X013618Y026681D01*
X013618Y026678D02*
X013618Y026757D01*
X013697Y026757D01*
X013697Y027143D01*
X013757Y027133D01*
X013821Y027112D01*
X013881Y027082D01*
X013935Y027042D01*
X013983Y026995D01*
X014022Y026941D01*
X014053Y026881D01*
X014073Y026817D01*
X014083Y026757D01*
X013697Y026757D01*
X013697Y026678D01*
X014083Y026678D01*
X014073Y026617D01*
X014053Y026553D01*
X014022Y026494D01*
X013983Y026439D01*
X013935Y026392D01*
X013881Y026352D01*
X013821Y026322D01*
X013757Y026301D01*
X013697Y026292D01*
X013697Y026678D01*
X013618Y026678D01*
X013697Y026681D02*
X014518Y026681D01*
X014597Y026681D02*
X015418Y026681D01*
X015497Y026681D02*
X015890Y026681D01*
X015883Y026757D02*
X015497Y026757D01*
X015497Y027143D01*
X015557Y027133D01*
X015621Y027112D01*
X015681Y027082D01*
X015735Y027042D01*
X015783Y026995D01*
X015822Y026941D01*
X015853Y026881D01*
X015873Y026817D01*
X015883Y026757D01*
X015880Y026778D02*
X015890Y026778D01*
X015916Y026875D02*
X015855Y026875D01*
X015799Y026972D02*
X015957Y026972D01*
X016048Y027069D02*
X015698Y027069D01*
X015497Y027069D02*
X015418Y027069D01*
X015418Y026972D02*
X015497Y026972D01*
X015497Y026875D02*
X015418Y026875D01*
X015418Y026778D02*
X015497Y026778D01*
X015497Y026584D02*
X015418Y026584D01*
X015418Y026487D02*
X015497Y026487D01*
X015497Y026390D02*
X015418Y026390D01*
X015508Y026294D02*
X016157Y026294D01*
X016022Y026390D02*
X015733Y026390D01*
X015818Y026487D02*
X015946Y026487D01*
X015906Y026584D02*
X015863Y026584D01*
X016187Y026100D02*
X016528Y026100D01*
X016431Y026003D02*
X016284Y026003D01*
X016336Y025906D02*
X016379Y025906D01*
X016384Y025518D02*
X016332Y025518D01*
X016273Y025421D02*
X016442Y025421D01*
X016539Y025324D02*
X016176Y025324D01*
X015639Y025324D02*
X015276Y025324D01*
X015373Y025421D02*
X015542Y025421D01*
X015484Y025518D02*
X015432Y025518D01*
X014739Y025324D02*
X014376Y025324D01*
X014473Y025421D02*
X014642Y025421D01*
X014584Y025518D02*
X014570Y025518D01*
X014576Y025906D02*
X014579Y025906D01*
X014631Y026003D02*
X014484Y026003D01*
X014387Y026100D02*
X014728Y026100D01*
X014597Y026390D02*
X014518Y026390D01*
X014518Y026487D02*
X014597Y026487D01*
X014597Y026584D02*
X014518Y026584D01*
X014518Y026778D02*
X014597Y026778D01*
X014597Y026875D02*
X014518Y026875D01*
X014518Y026972D02*
X014597Y026972D01*
X014597Y027069D02*
X014518Y027069D01*
X014317Y027069D02*
X013898Y027069D01*
X013999Y026972D02*
X014216Y026972D01*
X014161Y026875D02*
X014055Y026875D01*
X014080Y026778D02*
X014136Y026778D01*
X014152Y026584D02*
X014063Y026584D01*
X014018Y026487D02*
X014197Y026487D01*
X014282Y026390D02*
X013933Y026390D01*
X013697Y026390D02*
X013618Y026390D01*
X013618Y026487D02*
X013697Y026487D01*
X013697Y026584D02*
X013618Y026584D01*
X013618Y026778D02*
X013697Y026778D01*
X013697Y026875D02*
X013618Y026875D01*
X013618Y026972D02*
X013697Y026972D01*
X013697Y027069D02*
X013618Y027069D01*
X013417Y027069D02*
X008012Y027069D01*
X008103Y026972D02*
X013316Y026972D01*
X013261Y026875D02*
X008143Y026875D01*
X007563Y027166D02*
X006494Y027166D01*
X006591Y027069D02*
X007392Y027069D01*
X007301Y026972D02*
X006688Y026972D01*
X006785Y026875D02*
X007261Y026875D01*
X007234Y026778D02*
X006882Y026778D01*
X006979Y026681D02*
X007234Y026681D01*
X007250Y026584D02*
X007076Y026584D01*
X007173Y026487D02*
X007290Y026487D01*
X007270Y026390D02*
X007366Y026390D01*
X007367Y026294D02*
X007501Y026294D01*
X007182Y025712D02*
X006964Y025712D01*
X006867Y025809D02*
X007085Y025809D01*
X006988Y025906D02*
X006770Y025906D01*
X006673Y026003D02*
X006891Y026003D01*
X006794Y026100D02*
X006576Y026100D01*
X006479Y026197D02*
X006697Y026197D01*
X006600Y026294D02*
X006383Y026294D01*
X006286Y026390D02*
X006504Y026390D01*
X006407Y026487D02*
X006189Y026487D01*
X006092Y026584D02*
X006310Y026584D01*
X006213Y026681D02*
X005995Y026681D01*
X005898Y026778D02*
X006116Y026778D01*
X006019Y026875D02*
X005801Y026875D01*
X005922Y026972D02*
X005668Y026972D01*
X005825Y027069D02*
X005334Y027069D01*
X005164Y027166D02*
X005735Y027166D01*
X005686Y027263D02*
X002156Y027263D01*
X002126Y027276D02*
X001939Y027276D01*
X001767Y027205D01*
X001636Y027073D01*
X001564Y026901D01*
X001564Y026715D01*
X001636Y026543D01*
X001767Y026411D01*
X001939Y026340D01*
X002126Y026340D01*
X002298Y026411D01*
X002429Y026543D01*
X002501Y026715D01*
X002501Y026901D01*
X002429Y027073D01*
X002298Y027205D01*
X002126Y027276D01*
X002132Y027392D02*
X002196Y027413D01*
X002256Y027443D01*
X002310Y027482D01*
X002358Y027530D01*
X002397Y027584D01*
X002428Y027644D01*
X002448Y027708D01*
X002458Y027768D01*
X002072Y027768D01*
X002072Y027382D01*
X002132Y027392D01*
X002072Y027457D02*
X001993Y027457D01*
X001993Y027382D02*
X001993Y027768D01*
X002072Y027768D01*
X002072Y027847D01*
X002458Y027847D01*
X002448Y027908D01*
X002428Y027971D01*
X002397Y028031D01*
X002358Y028085D01*
X002310Y028133D01*
X002256Y028172D01*
X002196Y028203D01*
X002132Y028224D01*
X002072Y028233D01*
X001993Y028233D01*
X001933Y028224D01*
X001869Y028203D01*
X001809Y028172D01*
X001755Y028133D01*
X001707Y028085D01*
X001668Y028031D01*
X001637Y027971D01*
X001617Y027908D01*
X001607Y027847D01*
X001993Y027847D01*
X001993Y027768D01*
X001607Y027768D01*
X001617Y027708D01*
X001637Y027644D01*
X001668Y027584D01*
X001707Y027530D01*
X001755Y027482D01*
X001809Y027443D01*
X001869Y027413D01*
X001933Y027392D01*
X001993Y027382D01*
X001909Y027263D02*
X001297Y027263D01*
X001297Y027166D02*
X001729Y027166D01*
X001634Y027069D02*
X001297Y027069D01*
X001297Y026972D02*
X001594Y026972D01*
X001564Y026875D02*
X001297Y026875D01*
X001297Y026778D02*
X001564Y026778D01*
X001578Y026681D02*
X001297Y026681D01*
X001297Y026584D02*
X001618Y026584D01*
X001691Y026487D02*
X001297Y026487D01*
X001297Y026390D02*
X001816Y026390D01*
X001297Y026294D02*
X004824Y026294D01*
X004689Y026390D02*
X002248Y026390D01*
X002374Y026487D02*
X004613Y026487D01*
X004573Y026584D02*
X002447Y026584D01*
X002487Y026681D02*
X004556Y026681D01*
X004556Y026778D02*
X002501Y026778D01*
X002501Y026875D02*
X004583Y026875D01*
X004624Y026972D02*
X002471Y026972D01*
X002431Y027069D02*
X004715Y027069D01*
X004886Y027166D02*
X002336Y027166D01*
X002275Y027457D02*
X004675Y027457D01*
X004624Y027554D02*
X002375Y027554D01*
X002430Y027651D02*
X004601Y027651D01*
X004600Y027748D02*
X002455Y027748D01*
X002437Y027942D02*
X004672Y027942D01*
X004623Y027845D02*
X002072Y027845D01*
X002072Y027847D02*
X001993Y027847D01*
X001993Y028233D01*
X001992Y028233D02*
X001297Y028233D01*
X001297Y028330D02*
X007231Y028330D01*
X007231Y028427D02*
X001297Y028427D01*
X001297Y028524D02*
X007231Y028524D01*
X007231Y028621D02*
X001297Y028621D01*
X001297Y028718D02*
X007231Y028718D01*
X007231Y028815D02*
X001297Y028815D01*
X001297Y028912D02*
X007231Y028912D01*
X007231Y029009D02*
X001297Y029009D01*
X001297Y029106D02*
X007231Y029106D01*
X007231Y029203D02*
X001297Y029203D01*
X001297Y029300D02*
X007231Y029300D01*
X007231Y029396D02*
X001297Y029396D01*
X001297Y029493D02*
X007231Y029493D01*
X007231Y029590D02*
X001297Y029590D01*
X001297Y029687D02*
X007231Y029687D01*
X007256Y029784D02*
X001297Y029784D01*
X001297Y029881D02*
X007296Y029881D01*
X007384Y029978D02*
X001297Y029978D01*
X001297Y030075D02*
X007481Y030075D01*
X007577Y030172D02*
X001297Y030172D01*
X001297Y030269D02*
X007674Y030269D01*
X007771Y030366D02*
X001297Y030366D01*
X001297Y030463D02*
X007868Y030463D01*
X007965Y030560D02*
X001297Y030560D01*
X001297Y028136D02*
X001759Y028136D01*
X001673Y028039D02*
X001297Y028039D01*
X001297Y027942D02*
X001628Y027942D01*
X001610Y027748D02*
X001297Y027748D01*
X001297Y027651D02*
X001635Y027651D01*
X001690Y027554D02*
X001297Y027554D01*
X001297Y027457D02*
X001790Y027457D01*
X001993Y027554D02*
X002072Y027554D01*
X002072Y027651D02*
X001993Y027651D01*
X001993Y027748D02*
X002072Y027748D01*
X002072Y027847D02*
X002072Y028233D01*
X002073Y028233D02*
X007231Y028233D01*
X007231Y028136D02*
X007049Y028136D01*
X007199Y028039D02*
X007231Y028039D01*
X007280Y027457D02*
X007293Y027457D01*
X007377Y027360D02*
X007196Y027360D01*
X007040Y027263D02*
X007529Y027263D01*
X006710Y027263D02*
X006397Y027263D01*
X006300Y027360D02*
X006554Y027360D01*
X006469Y027457D02*
X006257Y027457D01*
X006297Y027554D02*
X006429Y027554D01*
X006407Y027651D02*
X006319Y027651D01*
X006319Y027748D02*
X006407Y027748D01*
X006428Y027845D02*
X006299Y027845D01*
X006258Y027942D02*
X006468Y027942D01*
X006550Y028039D02*
X006176Y028039D01*
X006026Y028136D02*
X006701Y028136D01*
X005677Y028136D02*
X002306Y028136D01*
X002391Y028039D02*
X004764Y028039D01*
X004985Y028039D02*
X005064Y028039D01*
X005064Y027942D02*
X004985Y027942D01*
X004985Y027845D02*
X005064Y027845D01*
X005064Y027748D02*
X004985Y027748D01*
X004985Y027651D02*
X005064Y027651D01*
X005064Y027554D02*
X004985Y027554D01*
X004985Y027457D02*
X005064Y027457D01*
X005064Y027360D02*
X004985Y027360D01*
X004769Y027360D02*
X001297Y027360D01*
X001297Y027845D02*
X001993Y027845D01*
X001993Y027942D02*
X002072Y027942D01*
X002072Y028039D02*
X001993Y028039D01*
X001993Y028136D02*
X002072Y028136D01*
X001297Y026197D02*
X005713Y026197D01*
X005616Y026294D02*
X005225Y026294D01*
X005360Y026390D02*
X005519Y026390D01*
X005810Y026100D02*
X001297Y026100D01*
X001297Y026003D02*
X005907Y026003D01*
X006004Y025906D02*
X001297Y025906D01*
X001297Y025809D02*
X006101Y025809D01*
X006198Y025712D02*
X001297Y025712D01*
X001297Y025615D02*
X006295Y025615D01*
X006392Y025518D02*
X001297Y025518D01*
X001297Y025421D02*
X006489Y025421D01*
X006586Y025324D02*
X001297Y025324D01*
X001297Y025227D02*
X006683Y025227D01*
X006780Y025130D02*
X001297Y025130D01*
X001297Y025033D02*
X007452Y025033D01*
X007481Y024936D02*
X006378Y024936D01*
X006362Y024943D02*
X005971Y024943D01*
X005610Y024793D01*
X005334Y024517D01*
X005185Y024156D01*
X005185Y023766D01*
X005334Y023405D01*
X005610Y023129D01*
X005971Y022980D01*
X006362Y022980D01*
X006722Y023129D01*
X006998Y023405D01*
X007148Y023766D01*
X007148Y024156D01*
X006998Y024517D01*
X006722Y024793D01*
X006362Y024943D01*
X006612Y024839D02*
X007452Y024839D01*
X007452Y024742D02*
X006774Y024742D01*
X006871Y024645D02*
X007452Y024645D01*
X007452Y024548D02*
X006967Y024548D01*
X007026Y024451D02*
X007452Y024451D01*
X007452Y024354D02*
X007066Y024354D01*
X007106Y024257D02*
X007452Y024257D01*
X007381Y024160D02*
X007146Y024160D01*
X007148Y024063D02*
X007341Y024063D01*
X007332Y023966D02*
X007148Y023966D01*
X007148Y023869D02*
X007337Y023869D01*
X007377Y023772D02*
X007148Y023772D01*
X007110Y023675D02*
X007449Y023675D01*
X007597Y023578D02*
X007070Y023578D01*
X007030Y023481D02*
X007881Y023481D01*
X007978Y023384D02*
X006978Y023384D01*
X006881Y023287D02*
X008075Y023287D01*
X008172Y023191D02*
X006784Y023191D01*
X006636Y023094D02*
X008269Y023094D01*
X008366Y022997D02*
X006402Y022997D01*
X005930Y022997D02*
X001297Y022997D01*
X001297Y023094D02*
X005696Y023094D01*
X005549Y023191D02*
X001297Y023191D01*
X001297Y023287D02*
X005452Y023287D01*
X005355Y023384D02*
X001297Y023384D01*
X001297Y023481D02*
X005303Y023481D01*
X005262Y023578D02*
X001297Y023578D01*
X001297Y023675D02*
X005222Y023675D01*
X005185Y023772D02*
X001297Y023772D01*
X001297Y023869D02*
X005185Y023869D01*
X005185Y023966D02*
X001297Y023966D01*
X001297Y024063D02*
X005185Y024063D01*
X005186Y024160D02*
X001297Y024160D01*
X001297Y024257D02*
X005227Y024257D01*
X005267Y024354D02*
X001297Y024354D01*
X001297Y024451D02*
X005307Y024451D01*
X005365Y024548D02*
X001297Y024548D01*
X001297Y024645D02*
X005462Y024645D01*
X005559Y024742D02*
X001297Y024742D01*
X001297Y024839D02*
X005721Y024839D01*
X005955Y024936D02*
X001297Y024936D01*
X001297Y022900D02*
X008463Y022900D01*
X008560Y022803D02*
X001297Y022803D01*
X001297Y022706D02*
X008657Y022706D01*
X008754Y022609D02*
X002488Y022609D01*
X002486Y022611D02*
X002396Y022648D01*
X002298Y022648D01*
X002208Y022611D01*
X002138Y022542D01*
X002105Y022461D01*
X002024Y022427D01*
X001955Y022358D01*
X001917Y022268D01*
X001917Y022170D01*
X001955Y022080D01*
X002024Y022010D01*
X002033Y022007D01*
X002024Y022003D01*
X001863Y021842D01*
X001826Y021752D01*
X001826Y021654D01*
X001826Y021470D01*
X001842Y021432D01*
X001863Y021380D01*
X001866Y021378D01*
X001955Y021288D01*
X001982Y021261D01*
X001932Y021212D01*
X001863Y021143D01*
X001826Y021052D01*
X001826Y020954D01*
X001863Y020864D01*
X002116Y020611D01*
X002206Y020574D01*
X002206Y020574D01*
X002671Y020574D01*
X002761Y020611D01*
X002831Y020681D01*
X002868Y020771D01*
X002868Y020869D01*
X002831Y020959D01*
X002786Y021003D01*
X002831Y021048D01*
X002868Y021138D01*
X002868Y021236D01*
X002838Y021307D01*
X002868Y021379D01*
X002868Y021746D01*
X002868Y021844D01*
X002831Y021934D01*
X002761Y022003D01*
X002691Y022032D01*
X002739Y022080D01*
X002776Y022170D01*
X002776Y022268D01*
X002739Y022358D01*
X002670Y022427D01*
X002589Y022461D01*
X002555Y022542D01*
X002486Y022611D01*
X002568Y022512D02*
X008851Y022512D01*
X008879Y022415D02*
X002682Y022415D01*
X002756Y022318D02*
X008879Y022318D01*
X008879Y022221D02*
X002776Y022221D01*
X002757Y022124D02*
X008879Y022124D01*
X008879Y022027D02*
X002704Y022027D01*
X002832Y021930D02*
X008879Y021930D01*
X008879Y021833D02*
X002868Y021833D01*
X002868Y021736D02*
X008879Y021736D01*
X008879Y021639D02*
X002868Y021639D01*
X002868Y021542D02*
X008879Y021542D01*
X008879Y021445D02*
X002868Y021445D01*
X002855Y021348D02*
X008881Y021348D01*
X008930Y021251D02*
X002862Y021251D01*
X002868Y021154D02*
X009027Y021154D01*
X009124Y021057D02*
X002835Y021057D01*
X002830Y020960D02*
X009221Y020960D01*
X009318Y020863D02*
X002868Y020863D01*
X002866Y020766D02*
X009415Y020766D01*
X009512Y020669D02*
X005503Y020669D01*
X005392Y020715D02*
X005117Y020715D01*
X004863Y020610D01*
X004669Y020416D01*
X004564Y020162D01*
X004564Y019887D01*
X004669Y019633D01*
X004863Y019439D01*
X005117Y019333D01*
X005392Y019333D01*
X005646Y019439D01*
X005841Y019633D01*
X005946Y019887D01*
X005946Y020162D01*
X005841Y020416D01*
X005646Y020610D01*
X005392Y020715D01*
X005684Y020572D02*
X009660Y020572D01*
X009710Y020812D02*
X009119Y021402D01*
X009119Y022583D01*
X007741Y023961D01*
X007741Y024355D02*
X007741Y024375D01*
X007938Y024571D01*
X008725Y024571D02*
X008745Y024552D01*
X009212Y024548D02*
X012570Y024548D01*
X012570Y024451D02*
X009212Y024451D01*
X009212Y024645D02*
X012570Y024645D01*
X012642Y024742D02*
X009212Y024742D01*
X009212Y024839D02*
X022471Y024839D01*
X022471Y024936D02*
X009182Y024936D01*
X009212Y025033D02*
X022471Y025033D01*
X022471Y025130D02*
X009212Y025130D01*
X009212Y025227D02*
X022471Y025227D01*
X022471Y025324D02*
X017875Y025324D01*
X017871Y025322D02*
X017931Y025352D01*
X017985Y025392D01*
X018033Y025439D01*
X018072Y025494D01*
X018103Y025553D01*
X018123Y025617D01*
X018133Y025678D01*
X017747Y025678D01*
X017747Y025757D01*
X017668Y025757D01*
X017668Y026143D01*
X017608Y026133D01*
X017544Y026112D01*
X017484Y026082D01*
X017430Y026042D01*
X017382Y025995D01*
X017343Y025941D01*
X017312Y025881D01*
X017292Y025817D01*
X017282Y025757D01*
X017668Y025757D01*
X017668Y025678D01*
X017282Y025678D01*
X017292Y025617D01*
X017312Y025553D01*
X017343Y025494D01*
X017382Y025439D01*
X017430Y025392D01*
X017484Y025352D01*
X017544Y025322D01*
X017608Y025301D01*
X017668Y025292D01*
X017668Y025678D01*
X017747Y025678D01*
X017747Y025292D01*
X017807Y025301D01*
X017871Y025322D01*
X017747Y025324D02*
X017668Y025324D01*
X017668Y025421D02*
X017747Y025421D01*
X017747Y025518D02*
X017668Y025518D01*
X017668Y025615D02*
X017747Y025615D01*
X017747Y025712D02*
X022647Y025712D01*
X022648Y025809D02*
X018125Y025809D01*
X018123Y025817D02*
X018103Y025881D01*
X018072Y025941D01*
X018033Y025995D01*
X017985Y026042D01*
X017931Y026082D01*
X017871Y026112D01*
X017807Y026133D01*
X017747Y026143D01*
X017747Y025757D01*
X018133Y025757D01*
X018123Y025817D01*
X018090Y025906D02*
X022688Y025906D01*
X022785Y026003D02*
X018025Y026003D01*
X017896Y026100D02*
X022882Y026100D01*
X022979Y026197D02*
X008396Y026197D01*
X008545Y026100D02*
X013828Y026100D01*
X013731Y026003D02*
X008642Y026003D01*
X008739Y025906D02*
X013640Y025906D01*
X013640Y025809D02*
X008836Y025809D01*
X009154Y025712D02*
X013640Y025712D01*
X013640Y025615D02*
X009212Y025615D01*
X009212Y025518D02*
X013645Y025518D01*
X013742Y025421D02*
X009212Y025421D01*
X009212Y025324D02*
X013839Y025324D01*
X014258Y024742D02*
X022497Y024742D01*
X022471Y025421D02*
X018014Y025421D01*
X018085Y025518D02*
X022472Y025518D01*
X022569Y025615D02*
X018123Y025615D01*
X017747Y025809D02*
X017668Y025809D01*
X017668Y025906D02*
X017747Y025906D01*
X017747Y026003D02*
X017668Y026003D01*
X017668Y026100D02*
X017747Y026100D01*
X017519Y026100D02*
X017087Y026100D01*
X017184Y026003D02*
X017390Y026003D01*
X017325Y025906D02*
X017236Y025906D01*
X017276Y025809D02*
X017290Y025809D01*
X017276Y025712D02*
X017668Y025712D01*
X017293Y025615D02*
X017272Y025615D01*
X017232Y025518D02*
X017331Y025518D01*
X017401Y025421D02*
X017173Y025421D01*
X017076Y025324D02*
X017540Y025324D01*
X017357Y026301D02*
X017421Y026322D01*
X017481Y026352D01*
X017535Y026392D01*
X017583Y026439D01*
X017622Y026494D01*
X017653Y026553D01*
X017673Y026617D01*
X017683Y026678D01*
X017297Y026678D01*
X017297Y026757D01*
X017218Y026757D01*
X017218Y027143D01*
X017158Y027133D01*
X017094Y027112D01*
X017034Y027082D01*
X016980Y027042D01*
X016932Y026995D01*
X016893Y026941D01*
X016862Y026881D01*
X016842Y026817D01*
X016832Y026757D01*
X017218Y026757D01*
X017218Y026678D01*
X016832Y026678D01*
X016842Y026617D01*
X016862Y026553D01*
X016893Y026494D01*
X016932Y026439D01*
X016980Y026392D01*
X017034Y026352D01*
X017094Y026322D01*
X017158Y026301D01*
X017218Y026292D01*
X017218Y026678D01*
X017297Y026678D01*
X017297Y026292D01*
X017357Y026301D01*
X017308Y026294D02*
X023076Y026294D01*
X023173Y026390D02*
X017533Y026390D01*
X017618Y026487D02*
X023270Y026487D01*
X023367Y026584D02*
X017663Y026584D01*
X017683Y026757D02*
X017297Y026757D01*
X017297Y027143D01*
X017357Y027133D01*
X017421Y027112D01*
X017481Y027082D01*
X017535Y027042D01*
X017583Y026995D01*
X017622Y026941D01*
X017653Y026881D01*
X017673Y026817D01*
X017683Y026757D01*
X017680Y026778D02*
X023454Y026778D01*
X023454Y026681D02*
X017297Y026681D01*
X017218Y026681D02*
X016826Y026681D01*
X016826Y026778D02*
X016836Y026778D01*
X016861Y026875D02*
X016799Y026875D01*
X016759Y026972D02*
X016916Y026972D01*
X017017Y027069D02*
X016668Y027069D01*
X016680Y027263D02*
X016035Y027263D01*
X016497Y027166D02*
X023783Y027166D01*
X023612Y027069D02*
X017498Y027069D01*
X017599Y026972D02*
X023521Y026972D01*
X023481Y026875D02*
X017655Y026875D01*
X017297Y026875D02*
X017218Y026875D01*
X017218Y026778D02*
X017297Y026778D01*
X017297Y026584D02*
X017218Y026584D01*
X017218Y026487D02*
X017297Y026487D01*
X017297Y026390D02*
X017218Y026390D01*
X017218Y026294D02*
X017297Y026294D01*
X017207Y026294D02*
X016558Y026294D01*
X016693Y026390D02*
X016982Y026390D01*
X016897Y026487D02*
X016769Y026487D01*
X016809Y026584D02*
X016852Y026584D01*
X017218Y026972D02*
X017297Y026972D01*
X017297Y027069D02*
X017218Y027069D01*
X017113Y027360D02*
X017403Y027360D01*
X017309Y027457D02*
X017207Y027457D01*
X017247Y027554D02*
X017269Y027554D01*
X017294Y027942D02*
X017221Y027942D01*
X017148Y028039D02*
X017367Y028039D01*
X017495Y028136D02*
X017020Y028136D01*
X016935Y027263D02*
X017580Y027263D01*
X017835Y027263D02*
X024584Y027263D01*
X024596Y027166D02*
X024061Y027166D01*
X024232Y027069D02*
X024596Y027069D01*
X024596Y026972D02*
X024323Y026972D01*
X024363Y026875D02*
X024596Y026875D01*
X024596Y026778D02*
X024390Y026778D01*
X024390Y026681D02*
X024596Y026681D01*
X024596Y026584D02*
X024374Y026584D01*
X024334Y026487D02*
X024596Y026487D01*
X024596Y026390D02*
X024258Y026390D01*
X024123Y026294D02*
X024596Y026294D01*
X024596Y026197D02*
X023745Y026197D01*
X023648Y026100D02*
X024596Y026100D01*
X024625Y026003D02*
X023551Y026003D01*
X023454Y025906D02*
X024705Y025906D01*
X024802Y025809D02*
X023357Y025809D01*
X023261Y025712D02*
X024899Y025712D01*
X024892Y025615D02*
X024842Y025615D01*
X025277Y026100D02*
X025806Y026100D01*
X025774Y026003D02*
X025374Y026003D01*
X025471Y025906D02*
X025774Y025906D01*
X025774Y025809D02*
X025511Y025809D01*
X025512Y025712D02*
X025774Y025712D01*
X025774Y025615D02*
X025590Y025615D01*
X025687Y025518D02*
X025774Y025518D01*
X025774Y025421D02*
X025688Y025421D01*
X025688Y025324D02*
X025774Y025324D01*
X025774Y025227D02*
X025688Y025227D01*
X025688Y025130D02*
X025763Y025130D01*
X026417Y024451D02*
X028333Y024451D01*
X028344Y024478D02*
X028279Y024322D01*
X028279Y024225D01*
X028214Y024290D01*
X026835Y024290D01*
X026723Y024178D01*
X026723Y023823D01*
X026765Y023781D01*
X026765Y023686D01*
X027524Y023686D01*
X027524Y023685D01*
X026765Y023685D01*
X026765Y023642D01*
X026693Y023642D01*
X026654Y023642D01*
X026654Y023649D01*
X026592Y023799D01*
X026477Y023914D01*
X026326Y023976D01*
X026164Y023976D01*
X026014Y023914D01*
X025899Y023799D01*
X025836Y023649D01*
X025836Y023486D01*
X025899Y023336D01*
X026014Y023221D01*
X026164Y023159D01*
X026271Y023159D01*
X026288Y023141D01*
X026388Y023100D01*
X026496Y023100D01*
X026693Y023100D01*
X026723Y023100D01*
X026723Y023012D01*
X026535Y023012D01*
X026456Y023012D01*
X026349Y023012D01*
X026301Y022992D01*
X026164Y022992D01*
X026014Y022930D01*
X025899Y022815D01*
X025836Y022665D01*
X025836Y022502D01*
X025899Y022352D01*
X026014Y022237D01*
X026164Y022175D01*
X026326Y022175D01*
X026477Y022237D01*
X026592Y022352D01*
X026640Y022470D01*
X026817Y022470D01*
X026835Y022451D01*
X028214Y022451D01*
X028279Y022517D01*
X028279Y022420D01*
X028344Y022263D01*
X028464Y022143D01*
X028621Y022078D01*
X028790Y022078D01*
X028947Y022143D01*
X029067Y022263D01*
X029132Y022420D01*
X029132Y022589D01*
X029067Y022746D01*
X029000Y022813D01*
X029036Y022827D01*
X029151Y022942D01*
X029213Y023093D01*
X029213Y023255D01*
X029151Y023405D01*
X029036Y023520D01*
X028885Y023583D01*
X028723Y023583D01*
X028573Y023520D01*
X028458Y023405D01*
X028425Y023327D01*
X028326Y023327D01*
X028326Y023548D01*
X028284Y023590D01*
X028284Y023685D01*
X027525Y023685D01*
X027525Y023686D01*
X028284Y023686D01*
X028284Y023781D01*
X028326Y023823D01*
X028326Y024040D01*
X028344Y023995D01*
X028464Y023875D01*
X028621Y023810D01*
X028790Y023810D01*
X028947Y023875D01*
X029067Y023995D01*
X029132Y024152D01*
X029132Y024322D01*
X029067Y024478D01*
X028947Y024598D01*
X028790Y024663D01*
X028621Y024663D01*
X028464Y024598D01*
X028344Y024478D01*
X028414Y024548D02*
X026514Y024548D01*
X026611Y024645D02*
X028577Y024645D01*
X028834Y024645D02*
X030327Y024645D01*
X030327Y024548D02*
X028997Y024548D01*
X029078Y024451D02*
X030327Y024451D01*
X030327Y024354D02*
X029119Y024354D01*
X029132Y024257D02*
X030327Y024257D01*
X030327Y024160D02*
X029132Y024160D01*
X029095Y024063D02*
X030327Y024063D01*
X030327Y023966D02*
X029038Y023966D01*
X028932Y023869D02*
X030327Y023869D01*
X030327Y023772D02*
X028284Y023772D01*
X028284Y023675D02*
X030327Y023675D01*
X030327Y023578D02*
X028895Y023578D01*
X028713Y023578D02*
X028296Y023578D01*
X028326Y023481D02*
X028534Y023481D01*
X028449Y023384D02*
X028326Y023384D01*
X028326Y023869D02*
X028479Y023869D01*
X028373Y023966D02*
X028326Y023966D01*
X028279Y024257D02*
X028247Y024257D01*
X028293Y024354D02*
X026320Y024354D01*
X026223Y024257D02*
X026802Y024257D01*
X026723Y024160D02*
X026126Y024160D01*
X026029Y024063D02*
X026723Y024063D01*
X026723Y023966D02*
X026351Y023966D01*
X026521Y023869D02*
X026723Y023869D01*
X026765Y023772D02*
X026603Y023772D01*
X026643Y023675D02*
X026765Y023675D01*
X026723Y023094D02*
X025770Y023094D01*
X025814Y023137D02*
X025814Y023565D01*
X025769Y023609D01*
X025769Y023804D01*
X025857Y023891D01*
X026644Y024679D01*
X026716Y024852D01*
X026716Y025039D01*
X026716Y026023D01*
X026644Y026196D01*
X026684Y026100D02*
X030327Y026100D01*
X030327Y026003D02*
X026716Y026003D01*
X026716Y025906D02*
X030327Y025906D01*
X030327Y025809D02*
X026716Y025809D01*
X026716Y025712D02*
X030327Y025712D01*
X030327Y025615D02*
X026716Y025615D01*
X026716Y025518D02*
X030327Y025518D01*
X030327Y025421D02*
X026716Y025421D01*
X026716Y025324D02*
X030327Y025324D01*
X030327Y025227D02*
X026716Y025227D01*
X026716Y025130D02*
X030327Y025130D01*
X030327Y025033D02*
X026716Y025033D01*
X026716Y024936D02*
X030327Y024936D01*
X030327Y024839D02*
X026711Y024839D01*
X026670Y024742D02*
X030327Y024742D01*
X030327Y023481D02*
X029075Y023481D01*
X029159Y023384D02*
X030327Y023384D01*
X030327Y023287D02*
X029199Y023287D01*
X029213Y023191D02*
X030327Y023191D01*
X030327Y023094D02*
X029213Y023094D01*
X029173Y022997D02*
X030327Y022997D01*
X030327Y022900D02*
X029108Y022900D01*
X029011Y022803D02*
X030327Y022803D01*
X030327Y022706D02*
X029084Y022706D01*
X029124Y022609D02*
X030327Y022609D01*
X030327Y022512D02*
X029132Y022512D01*
X029130Y022415D02*
X030327Y022415D01*
X030327Y022318D02*
X029090Y022318D01*
X029025Y022221D02*
X030327Y022221D01*
X030327Y022124D02*
X028901Y022124D01*
X028511Y022124D02*
X025762Y022124D01*
X025735Y022059D02*
X025814Y022248D01*
X025814Y022454D01*
X025735Y022643D01*
X025590Y022788D01*
X025477Y022835D01*
X025512Y022835D01*
X025814Y023137D01*
X025814Y023191D02*
X026087Y023191D01*
X025947Y023287D02*
X025814Y023287D01*
X025814Y023384D02*
X025878Y023384D01*
X025838Y023481D02*
X025814Y023481D01*
X025800Y023578D02*
X025836Y023578D01*
X025847Y023675D02*
X025769Y023675D01*
X025769Y023772D02*
X025887Y023772D01*
X025835Y023869D02*
X025969Y023869D01*
X025932Y023966D02*
X026140Y023966D01*
X026312Y022997D02*
X025673Y022997D01*
X025576Y022900D02*
X025983Y022900D01*
X025894Y022803D02*
X025556Y022803D01*
X025673Y022706D02*
X025853Y022706D01*
X025836Y022609D02*
X025750Y022609D01*
X025790Y022512D02*
X025836Y022512D01*
X025814Y022415D02*
X025872Y022415D01*
X025814Y022318D02*
X025932Y022318D01*
X026052Y022221D02*
X025802Y022221D01*
X025735Y022059D02*
X025590Y021914D01*
X025401Y021835D01*
X025196Y021835D01*
X025038Y021900D01*
X025038Y021856D01*
X025002Y021768D01*
X024039Y020805D01*
X024034Y020803D01*
X024086Y020751D01*
X024127Y020710D01*
X024350Y020934D01*
X024778Y020934D01*
X025080Y020632D01*
X025080Y020204D01*
X024778Y019902D01*
X024350Y019902D01*
X024075Y020178D01*
X024032Y020178D01*
X023944Y020214D01*
X023876Y020282D01*
X023783Y020375D01*
X023675Y020375D01*
X024573Y019477D01*
X028852Y019477D01*
X028940Y019440D01*
X029008Y019373D01*
X029204Y019176D01*
X029241Y019088D01*
X029241Y018992D01*
X029241Y018628D01*
X029277Y018638D01*
X029542Y018638D01*
X029542Y018282D01*
X029641Y018282D01*
X030036Y018282D01*
X030036Y018508D01*
X030026Y018546D01*
X030006Y018580D01*
X029978Y018608D01*
X029944Y018628D01*
X029906Y018638D01*
X029641Y018638D01*
X029641Y018282D01*
X029641Y018184D01*
X030036Y018184D01*
X030036Y017957D01*
X030026Y017919D01*
X030008Y017889D01*
X030078Y017820D01*
X030078Y017150D01*
X030032Y017105D01*
X030032Y017057D01*
X030162Y016928D01*
X030229Y016766D01*
X030229Y016590D01*
X030162Y016428D01*
X030038Y016304D01*
X029963Y016273D01*
X030030Y016206D01*
X030030Y015890D01*
X030030Y015575D01*
X030030Y015260D01*
X030030Y014945D01*
X030030Y014630D01*
X030030Y014315D01*
X030030Y014000D01*
X030030Y013685D01*
X029985Y013640D01*
X029989Y013627D01*
X029989Y013528D01*
X029663Y013528D01*
X029663Y013528D01*
X029989Y013528D01*
X029989Y013430D01*
X029985Y013416D01*
X030030Y013371D01*
X030030Y013055D01*
X030030Y012741D01*
X030030Y012425D01*
X030030Y012110D01*
X030030Y011796D01*
X030030Y011481D01*
X029985Y011435D01*
X029989Y011422D01*
X029989Y011324D01*
X029663Y011324D01*
X029663Y011323D01*
X029989Y011323D01*
X029989Y011225D01*
X029985Y011212D01*
X030030Y011166D01*
X029989Y011263D02*
X030327Y011263D01*
X030327Y011360D02*
X029989Y011360D01*
X030007Y011457D02*
X030327Y011457D01*
X030327Y011554D02*
X030030Y011554D01*
X030030Y011651D02*
X030327Y011651D01*
X030327Y011748D02*
X030030Y011748D01*
X030030Y011845D02*
X030327Y011845D01*
X030327Y011942D02*
X030030Y011942D01*
X030030Y012039D02*
X030327Y012039D01*
X030327Y012136D02*
X030030Y012136D01*
X030030Y012233D02*
X030327Y012233D01*
X030327Y012330D02*
X030030Y012330D01*
X030030Y012427D02*
X030327Y012427D01*
X030327Y012524D02*
X030030Y012524D01*
X030030Y012621D02*
X030327Y012621D01*
X030327Y012718D02*
X030030Y012718D01*
X030030Y012815D02*
X030327Y012815D01*
X030327Y012912D02*
X030030Y012912D01*
X030030Y013009D02*
X030327Y013009D01*
X030327Y013106D02*
X030030Y013106D01*
X030030Y013203D02*
X030327Y013203D01*
X030327Y013300D02*
X030030Y013300D01*
X030005Y013397D02*
X030327Y013397D01*
X030327Y013494D02*
X029989Y013494D01*
X029989Y013591D02*
X030327Y013591D01*
X030327Y013688D02*
X030030Y013688D01*
X030030Y013785D02*
X030327Y013785D01*
X030327Y013882D02*
X030030Y013882D01*
X030030Y013979D02*
X030327Y013979D01*
X030327Y014075D02*
X030030Y014075D01*
X030030Y014172D02*
X030327Y014172D01*
X030327Y014269D02*
X030030Y014269D01*
X030030Y014366D02*
X030327Y014366D01*
X030327Y014463D02*
X030030Y014463D01*
X030030Y014560D02*
X030327Y014560D01*
X030327Y014657D02*
X030030Y014657D01*
X030030Y014754D02*
X030327Y014754D01*
X030327Y014851D02*
X030030Y014851D01*
X030030Y014948D02*
X030327Y014948D01*
X030327Y015045D02*
X030030Y015045D01*
X030030Y015142D02*
X030327Y015142D01*
X030327Y015239D02*
X030030Y015239D01*
X030030Y015336D02*
X030327Y015336D01*
X030327Y015433D02*
X030030Y015433D01*
X030030Y015530D02*
X030327Y015530D01*
X030327Y015627D02*
X030030Y015627D01*
X030030Y015724D02*
X030327Y015724D01*
X030327Y015821D02*
X030030Y015821D01*
X030030Y015918D02*
X030327Y015918D01*
X030327Y016015D02*
X030030Y016015D01*
X030030Y016112D02*
X030327Y016112D01*
X030327Y016209D02*
X030027Y016209D01*
X030040Y016306D02*
X030327Y016306D01*
X030327Y016403D02*
X030137Y016403D01*
X030192Y016500D02*
X030327Y016500D01*
X030327Y016597D02*
X030229Y016597D01*
X030229Y016694D02*
X030327Y016694D01*
X030327Y016791D02*
X030219Y016791D01*
X030179Y016888D02*
X030327Y016888D01*
X030327Y016985D02*
X030105Y016985D01*
X030032Y017081D02*
X030327Y017081D01*
X030327Y017178D02*
X030078Y017178D01*
X030078Y017275D02*
X030327Y017275D01*
X030327Y017372D02*
X030078Y017372D01*
X030078Y017469D02*
X030327Y017469D01*
X030327Y017566D02*
X030078Y017566D01*
X030078Y017663D02*
X030327Y017663D01*
X030327Y017760D02*
X030078Y017760D01*
X030040Y017857D02*
X030327Y017857D01*
X030327Y017954D02*
X030035Y017954D01*
X030036Y018051D02*
X030327Y018051D01*
X030327Y018148D02*
X030036Y018148D01*
X030036Y018342D02*
X030327Y018342D01*
X030327Y018245D02*
X029641Y018245D01*
X029641Y018342D02*
X029542Y018342D01*
X029542Y018439D02*
X029641Y018439D01*
X029641Y018536D02*
X029542Y018536D01*
X029542Y018633D02*
X029641Y018633D01*
X029925Y018633D02*
X030327Y018633D01*
X030327Y018730D02*
X029241Y018730D01*
X029241Y018827D02*
X030327Y018827D01*
X030327Y018924D02*
X029241Y018924D01*
X029241Y019021D02*
X030327Y019021D01*
X030327Y019118D02*
X029229Y019118D01*
X029166Y019215D02*
X030327Y019215D01*
X030327Y019312D02*
X029069Y019312D01*
X028972Y019409D02*
X030327Y019409D01*
X030327Y019506D02*
X024544Y019506D01*
X024447Y019603D02*
X030327Y019603D01*
X030327Y019700D02*
X024350Y019700D01*
X024253Y019797D02*
X027226Y019797D01*
X027229Y019794D02*
X028411Y019794D01*
X028523Y019906D01*
X028523Y020930D01*
X028411Y021042D01*
X027229Y021042D01*
X027193Y021006D01*
X027157Y021006D01*
X027114Y021024D01*
X026951Y021024D01*
X026801Y020961D01*
X026686Y020846D01*
X026624Y020696D01*
X026624Y020533D01*
X026686Y020383D01*
X026801Y020268D01*
X026951Y020206D01*
X027114Y020206D01*
X027117Y020207D01*
X027117Y019906D01*
X027229Y019794D01*
X027129Y019894D02*
X024156Y019894D01*
X024059Y019991D02*
X024262Y019991D01*
X024165Y020088D02*
X023962Y020088D01*
X024016Y020184D02*
X023865Y020184D01*
X023877Y020281D02*
X023768Y020281D01*
X023489Y020221D02*
X024473Y019237D01*
X028804Y019237D01*
X029001Y019040D01*
X029001Y015890D01*
X029158Y015733D01*
X029662Y015733D01*
X029662Y016048D02*
X029591Y016048D01*
X029662Y015418D02*
X029080Y015418D01*
X028804Y015694D01*
X028804Y018843D01*
X028607Y019040D01*
X024277Y019040D01*
X023292Y020024D01*
X022505Y020024D01*
X022308Y019827D01*
X022308Y019434D01*
X022111Y019434D02*
X022111Y020024D01*
X022308Y020221D01*
X023489Y020221D01*
X023095Y019827D02*
X024080Y018843D01*
X028410Y018843D01*
X028607Y018646D01*
X028607Y015497D01*
X029001Y015103D01*
X029662Y015103D01*
X029662Y014788D02*
X028922Y014788D01*
X028410Y015300D01*
X028410Y018449D01*
X028214Y018646D01*
X023292Y018646D01*
X023292Y018449D02*
X028017Y018449D01*
X028214Y018253D01*
X028214Y015103D01*
X028843Y014473D01*
X029662Y014473D01*
X029662Y014158D02*
X028765Y014158D01*
X028017Y014906D01*
X028017Y018056D01*
X027820Y018253D01*
X023292Y018253D01*
X023292Y018056D02*
X027623Y018056D01*
X027820Y017859D01*
X027820Y014709D01*
X028686Y013843D01*
X029662Y013843D01*
X029662Y013528D02*
X029662Y013528D01*
X029336Y013528D01*
X029336Y013453D01*
X029022Y013453D01*
X028872Y013603D01*
X029336Y013603D01*
X029336Y013528D01*
X029662Y013528D01*
X029662Y013213D02*
X028922Y013213D01*
X027623Y014512D01*
X027623Y017662D01*
X027426Y017859D01*
X023292Y017859D01*
X023292Y017662D02*
X027229Y017662D01*
X027426Y017465D01*
X027426Y014316D01*
X028843Y012898D01*
X029662Y012898D01*
X029662Y012583D02*
X028765Y012583D01*
X027229Y014119D01*
X027229Y017268D01*
X027032Y017465D01*
X023292Y017465D01*
X023292Y017268D02*
X026836Y017268D01*
X027032Y017071D01*
X027032Y011560D01*
X027584Y011009D01*
X029662Y011009D01*
X029662Y011323D02*
X029336Y011323D01*
X029336Y011249D01*
X027683Y011249D01*
X027273Y011659D01*
X027273Y013736D01*
X028561Y012447D01*
X028629Y012380D01*
X028717Y012343D01*
X029294Y012343D01*
X029294Y012224D01*
X028717Y012224D01*
X028642Y012300D01*
X028492Y012362D01*
X028329Y012362D01*
X028179Y012300D01*
X028064Y012185D01*
X028002Y012035D01*
X028002Y011872D01*
X028064Y011722D01*
X028179Y011607D01*
X028329Y011545D01*
X028492Y011545D01*
X028642Y011607D01*
X028717Y011682D01*
X029294Y011682D01*
X029294Y011481D01*
X029340Y011435D01*
X029336Y011422D01*
X029336Y011324D01*
X029662Y011324D01*
X029662Y011323D01*
X029336Y011360D02*
X027571Y011360D01*
X027474Y011457D02*
X029317Y011457D01*
X029294Y011554D02*
X028515Y011554D01*
X028686Y011651D02*
X029294Y011651D01*
X029336Y011263D02*
X027668Y011263D01*
X027377Y011554D02*
X028306Y011554D01*
X028134Y011651D02*
X027280Y011651D01*
X027273Y011748D02*
X028053Y011748D01*
X028013Y011845D02*
X027273Y011845D01*
X027273Y011942D02*
X028002Y011942D01*
X028004Y012039D02*
X027273Y012039D01*
X027273Y012136D02*
X028044Y012136D01*
X028112Y012233D02*
X027273Y012233D01*
X027273Y012330D02*
X028252Y012330D01*
X028484Y012524D02*
X027273Y012524D01*
X027273Y012621D02*
X028387Y012621D01*
X028290Y012718D02*
X027273Y012718D01*
X027273Y012815D02*
X028194Y012815D01*
X028097Y012912D02*
X027273Y012912D01*
X027273Y013009D02*
X028000Y013009D01*
X027903Y013106D02*
X027273Y013106D01*
X027273Y013203D02*
X027806Y013203D01*
X027709Y013300D02*
X027273Y013300D01*
X027273Y013397D02*
X027612Y013397D01*
X027515Y013494D02*
X027273Y013494D01*
X027273Y013591D02*
X027418Y013591D01*
X027321Y013688D02*
X027273Y013688D01*
X027273Y012427D02*
X028581Y012427D01*
X028569Y012330D02*
X029294Y012330D01*
X029294Y012233D02*
X028709Y012233D01*
X028981Y013494D02*
X029336Y013494D01*
X029336Y013591D02*
X028884Y013591D01*
X026836Y011363D02*
X026836Y016875D01*
X026639Y017071D01*
X023292Y017071D01*
X023292Y016875D02*
X022899Y016875D01*
X022886Y016936D01*
X022904Y016985D02*
X022705Y016985D01*
X022702Y017071D02*
X022899Y016875D01*
X022904Y017081D02*
X022665Y017081D01*
X022582Y017178D02*
X022904Y017178D01*
X022904Y017275D02*
X022408Y017275D01*
X022208Y017275D02*
X021065Y017275D01*
X021218Y017372D02*
X022904Y017372D01*
X022904Y017469D02*
X021293Y017469D01*
X021333Y017566D02*
X022904Y017566D01*
X022904Y017663D02*
X021339Y017663D01*
X021368Y017760D02*
X022904Y017760D01*
X022904Y017857D02*
X021465Y017857D01*
X021562Y017954D02*
X022904Y017954D01*
X022904Y018051D02*
X021659Y018051D01*
X021737Y018148D02*
X022904Y018148D01*
X022904Y018245D02*
X021761Y018245D01*
X021761Y018342D02*
X022904Y018342D01*
X022904Y018439D02*
X021761Y018439D01*
X021761Y018536D02*
X022904Y018536D01*
X022904Y018633D02*
X021761Y018633D01*
X021761Y018730D02*
X022904Y018730D01*
X022957Y018827D02*
X021761Y018827D01*
X021761Y018924D02*
X023659Y018924D01*
X023562Y019021D02*
X021761Y019021D01*
X021717Y019434D02*
X021717Y020418D01*
X022505Y021205D01*
X023708Y021205D01*
X024298Y021796D01*
X024298Y022351D01*
X024798Y021904D02*
X023903Y021009D01*
X022702Y021009D01*
X021914Y020221D01*
X021914Y019434D01*
X021521Y019434D02*
X021521Y018253D01*
X020930Y017662D01*
X020642Y017372D02*
X018266Y017372D01*
X018340Y017469D02*
X020567Y017469D01*
X020527Y017566D02*
X018380Y017566D01*
X018386Y017663D02*
X020521Y017663D01*
X020528Y017760D02*
X018379Y017760D01*
X018339Y017857D02*
X020569Y017857D01*
X020644Y017954D02*
X018263Y017954D01*
X018106Y018051D02*
X018461Y018051D01*
X018291Y018148D02*
X017831Y018148D01*
X017734Y018245D02*
X018210Y018245D01*
X018170Y018342D02*
X017637Y018342D01*
X017540Y018439D02*
X018159Y018439D01*
X018161Y018536D02*
X017443Y018536D01*
X017346Y018633D02*
X018201Y018633D01*
X018270Y018730D02*
X017249Y018730D01*
X017152Y018827D02*
X018328Y018827D01*
X018328Y018924D02*
X017055Y018924D01*
X017036Y019021D02*
X018328Y019021D01*
X018371Y019040D02*
X018371Y019434D01*
X018174Y019434D02*
X018174Y018843D01*
X018371Y019040D01*
X018174Y018843D02*
X017977Y018843D01*
X017977Y018253D01*
X017977Y018843D02*
X017780Y018843D01*
X017780Y019434D01*
X017584Y019434D02*
X017584Y020812D01*
X018798Y022026D01*
X018798Y022101D01*
X018798Y022851D01*
X019298Y023351D01*
X018834Y023578D02*
X018762Y023578D01*
X018735Y023643D02*
X018590Y023788D01*
X018401Y023867D01*
X018196Y023867D01*
X018006Y023788D01*
X017861Y023643D01*
X017798Y023492D01*
X017735Y023643D01*
X017590Y023788D01*
X017401Y023867D01*
X017196Y023867D01*
X017006Y023788D01*
X016861Y023643D01*
X016798Y023492D01*
X016735Y023643D01*
X016590Y023788D01*
X016401Y023867D01*
X016196Y023867D01*
X016006Y023788D01*
X015861Y023643D01*
X015782Y023454D01*
X015782Y023248D01*
X015804Y023196D01*
X015662Y023055D01*
X015595Y022987D01*
X015558Y022899D01*
X015558Y022149D01*
X015558Y021959D01*
X015595Y021870D01*
X015662Y021803D01*
X016162Y021303D01*
X016162Y020604D01*
X016016Y020751D01*
X015948Y020818D01*
X015880Y020847D01*
X015989Y020956D01*
X016056Y021118D01*
X016056Y021293D01*
X015989Y021455D01*
X015865Y021579D01*
X015703Y021646D01*
X014814Y021646D01*
X014487Y021973D01*
X014325Y022040D01*
X014149Y022040D01*
X014114Y022040D01*
X014114Y023140D01*
X014218Y023140D01*
X014330Y023252D01*
X014330Y023922D01*
X014291Y023961D01*
X014330Y024000D01*
X014330Y024115D01*
X019256Y024115D01*
X019558Y023813D01*
X019558Y023802D01*
X019401Y023867D01*
X019196Y023867D01*
X019006Y023788D01*
X018861Y023643D01*
X018798Y023492D01*
X018735Y023643D01*
X018703Y023675D02*
X018893Y023675D01*
X018990Y023772D02*
X018606Y023772D01*
X018298Y023351D02*
X017798Y022851D01*
X017798Y022101D01*
X017798Y021814D01*
X017190Y021205D01*
X017190Y020418D01*
X017190Y019434D01*
X017387Y019434D02*
X017387Y020418D01*
X017387Y021009D01*
X018298Y021920D01*
X018298Y022351D01*
X017298Y022351D02*
X017298Y021707D01*
X016993Y021402D01*
X016993Y020418D01*
X016993Y019434D01*
X016796Y019434D02*
X016796Y018843D01*
X017977Y017662D01*
X017569Y017663D02*
X016714Y017663D01*
X016681Y017677D02*
X016519Y017677D01*
X016450Y017705D01*
X015855Y017705D01*
X015855Y018300D01*
X015819Y018389D01*
X015751Y018456D01*
X015357Y018850D01*
X015269Y018886D01*
X015174Y018886D01*
X014780Y018886D01*
X014552Y018886D01*
X014440Y018775D01*
X014440Y018690D01*
X013402Y018690D01*
X008970Y018690D01*
X008874Y018690D01*
X008786Y018653D01*
X007999Y017866D01*
X007999Y017866D01*
X007784Y017651D01*
X007784Y018104D01*
X007748Y018192D01*
X007680Y018259D01*
X006960Y018979D01*
X006893Y019047D01*
X006805Y019083D01*
X004691Y019083D01*
X004531Y019244D01*
X004053Y019721D01*
X004064Y019748D01*
X004064Y019954D01*
X003985Y020143D01*
X003840Y020288D01*
X003651Y020367D01*
X003446Y020367D01*
X003256Y020288D01*
X003111Y020143D01*
X003048Y019992D01*
X002985Y020143D01*
X002840Y020288D01*
X002651Y020367D01*
X002446Y020367D01*
X002256Y020288D01*
X002111Y020143D01*
X002032Y019954D01*
X002032Y019748D01*
X002111Y019559D01*
X002256Y019414D01*
X002408Y019351D01*
X002256Y019288D01*
X002111Y019143D01*
X002032Y018954D01*
X002032Y018748D01*
X002111Y018559D01*
X002256Y018414D01*
X002446Y018335D01*
X002651Y018335D01*
X002681Y018348D01*
X002813Y018215D01*
X002881Y018147D01*
X002969Y018111D01*
X003750Y018111D01*
X004147Y018111D01*
X004235Y018147D01*
X004297Y018209D01*
X006264Y018209D01*
X006714Y017759D01*
X006714Y016590D01*
X006714Y016494D01*
X006750Y016406D01*
X007071Y016085D01*
X007071Y015935D01*
X007133Y015785D01*
X007248Y015670D01*
X007398Y015608D01*
X007561Y015608D01*
X007698Y015664D01*
X007698Y015550D01*
X007179Y015550D01*
X007067Y015438D01*
X007067Y015123D01*
X007067Y014871D01*
X006935Y014871D01*
X004319Y017487D01*
X004251Y017555D01*
X004163Y017591D01*
X003750Y017591D01*
X003096Y017591D01*
X003000Y017591D01*
X002912Y017555D01*
X002703Y017345D01*
X002651Y017367D01*
X002446Y017367D01*
X002256Y017288D01*
X002111Y017143D01*
X002032Y016954D01*
X002032Y016748D01*
X002111Y016559D01*
X002256Y016414D01*
X002408Y016351D01*
X002256Y016288D01*
X002111Y016143D01*
X002032Y015954D01*
X002032Y015748D01*
X002111Y015559D01*
X002256Y015414D01*
X002408Y015351D01*
X002256Y015288D01*
X002111Y015143D01*
X002032Y014954D01*
X002032Y014748D01*
X002111Y014559D01*
X002256Y014414D01*
X002408Y014351D01*
X002256Y014288D01*
X002111Y014143D01*
X002032Y013954D01*
X002032Y013748D01*
X002111Y013559D01*
X002256Y013414D01*
X002408Y013351D01*
X002256Y013288D01*
X002111Y013143D01*
X002032Y012954D01*
X002032Y012748D01*
X002111Y012559D01*
X002256Y012414D01*
X002408Y012351D01*
X002256Y012288D01*
X002111Y012143D01*
X002032Y011954D01*
X002032Y011748D01*
X001297Y011748D01*
X001297Y011651D02*
X002073Y011651D01*
X002111Y011559D02*
X002256Y011414D01*
X002408Y011351D01*
X002256Y011288D01*
X002111Y011143D01*
X002032Y010954D01*
X002032Y010748D01*
X002111Y010559D01*
X002256Y010414D01*
X002408Y010351D01*
X002256Y010288D01*
X002111Y010143D01*
X002032Y009954D01*
X002032Y009748D01*
X002111Y009559D01*
X002256Y009414D01*
X002408Y009351D01*
X002256Y009288D01*
X002111Y009143D01*
X002032Y008954D01*
X002032Y008748D01*
X002111Y008559D01*
X002256Y008414D01*
X002408Y008351D01*
X002256Y008288D01*
X002111Y008143D01*
X002032Y007954D01*
X002032Y007748D01*
X002111Y007559D01*
X002256Y007414D01*
X002446Y007335D01*
X002651Y007335D01*
X002840Y007414D01*
X002985Y007559D01*
X003032Y007673D01*
X003032Y007637D01*
X003335Y007335D01*
X003762Y007335D01*
X003954Y007527D01*
X005117Y006364D01*
X005032Y006279D01*
X004970Y006129D01*
X004970Y006022D01*
X004873Y005925D01*
X003154Y005925D01*
X003135Y005944D01*
X002465Y005944D01*
X002426Y005904D01*
X002387Y005944D01*
X001717Y005944D01*
X001605Y005832D01*
X001605Y005083D01*
X001625Y005064D01*
X001605Y005044D01*
X001605Y004296D01*
X001660Y004241D01*
X001657Y004235D01*
X001647Y004197D01*
X001647Y003932D01*
X002003Y003932D01*
X002003Y003833D01*
X002101Y003833D01*
X002101Y003438D01*
X002328Y003438D01*
X002366Y003448D01*
X002396Y003466D01*
X002465Y003396D01*
X003135Y003396D01*
X003247Y003508D01*
X003247Y004257D01*
X003228Y004276D01*
X003247Y004296D01*
X003247Y004399D01*
X003267Y004399D01*
X003367Y004440D01*
X003443Y004516D01*
X003719Y004793D01*
X004056Y004793D01*
X004000Y004737D01*
X003929Y004566D01*
X003929Y004380D01*
X004000Y004209D01*
X004131Y004078D01*
X004302Y004007D01*
X004487Y004007D01*
X004658Y004078D01*
X004789Y004209D01*
X004860Y004380D01*
X004860Y004566D01*
X004789Y004737D01*
X004734Y004793D01*
X004868Y004793D01*
X004942Y004614D01*
X005087Y004469D01*
X005276Y004390D01*
X005481Y004390D01*
X005671Y004469D01*
X005816Y004614D01*
X005895Y004804D01*
X005895Y005009D01*
X005816Y005198D01*
X005671Y005343D01*
X005481Y005422D01*
X005276Y005422D01*
X005087Y005343D01*
X005078Y005335D01*
X003661Y005335D01*
X003553Y005335D01*
X003454Y005293D01*
X003247Y005086D01*
X003247Y005383D01*
X004931Y005383D01*
X005039Y005383D01*
X005139Y005424D01*
X005353Y005639D01*
X005460Y005639D01*
X005610Y005701D01*
X005725Y005816D01*
X005788Y005967D01*
X005788Y006129D01*
X005758Y006201D01*
X006575Y006201D01*
X006545Y006129D01*
X006545Y005967D01*
X006607Y005816D01*
X006683Y005741D01*
X006683Y005373D01*
X005759Y004449D01*
X005726Y004369D01*
X005654Y004369D01*
X005542Y004257D01*
X005542Y003508D01*
X005562Y003489D01*
X005542Y003469D01*
X005542Y002721D01*
X005597Y002666D01*
X005594Y002661D01*
X005592Y002652D01*
X005561Y002668D01*
X005490Y002691D01*
X005428Y002701D01*
X005428Y002278D01*
X005851Y002278D01*
X005841Y002340D01*
X005836Y002357D01*
X005940Y002357D01*
X005940Y002259D01*
X005584Y002259D01*
X005584Y002180D01*
X005428Y002180D01*
X005428Y002278D01*
X005330Y002278D01*
X005330Y002701D01*
X005268Y002691D01*
X005197Y002668D01*
X005130Y002634D01*
X005070Y002591D01*
X005017Y002538D01*
X004973Y002477D01*
X004940Y002411D01*
X004917Y002340D01*
X004907Y002278D01*
X005329Y002278D01*
X005329Y002180D01*
X004907Y002180D01*
X004917Y002118D01*
X004940Y002047D01*
X004973Y001981D01*
X005017Y001920D01*
X005070Y001867D01*
X005130Y001824D01*
X005197Y001790D01*
X005268Y001767D01*
X005330Y001757D01*
X005330Y002180D01*
X005428Y002180D01*
X005428Y001757D01*
X005490Y001767D01*
X005561Y001790D01*
X005627Y001824D01*
X005688Y001867D01*
X005690Y001870D01*
X005714Y001863D01*
X005940Y001863D01*
X005940Y002258D01*
X006038Y002258D01*
X006038Y001863D01*
X006265Y001863D01*
X006303Y001873D01*
X006333Y001891D01*
X006402Y001821D01*
X007072Y001821D01*
X007184Y001933D01*
X007184Y002569D01*
X007252Y002500D01*
X007442Y002422D01*
X007647Y002422D01*
X007836Y002500D01*
X007981Y002645D01*
X008060Y002835D01*
X008060Y003040D01*
X007981Y003230D01*
X007836Y003375D01*
X007647Y003453D01*
X007442Y003453D01*
X007252Y003375D01*
X007184Y003307D01*
X007184Y003469D01*
X007165Y003489D01*
X007184Y003508D01*
X007184Y003612D01*
X008671Y003612D01*
X008779Y003612D01*
X008879Y003653D01*
X009617Y004391D01*
X009653Y004406D01*
X009283Y004036D01*
X009242Y003936D01*
X009242Y003829D01*
X009242Y002675D01*
X009221Y002666D01*
X009076Y002521D01*
X008997Y002332D01*
X008997Y002126D01*
X009076Y001937D01*
X009221Y001792D01*
X009410Y001713D01*
X009615Y001713D01*
X009805Y001792D01*
X009871Y001857D02*
X010813Y001857D01*
X010748Y001954D02*
X009957Y001954D01*
X009997Y002051D02*
X010651Y002051D01*
X010554Y002148D02*
X010028Y002148D01*
X010028Y002245D02*
X010457Y002245D01*
X010381Y002342D02*
X010024Y002342D01*
X009984Y002439D02*
X010343Y002439D01*
X010343Y002536D02*
X009935Y002536D01*
X009838Y002633D02*
X010343Y002633D01*
X010343Y002730D02*
X009784Y002730D01*
X009784Y002827D02*
X010343Y002827D01*
X010343Y002924D02*
X009784Y002924D01*
X009784Y003021D02*
X010343Y003021D01*
X010343Y003118D02*
X009784Y003118D01*
X009784Y003215D02*
X010343Y003215D01*
X010343Y003312D02*
X009784Y003312D01*
X009784Y003409D02*
X010343Y003409D01*
X010343Y003506D02*
X009784Y003506D01*
X009784Y003603D02*
X010343Y003603D01*
X010343Y003700D02*
X009784Y003700D01*
X009810Y003797D02*
X010343Y003797D01*
X010343Y003894D02*
X009907Y003894D01*
X010004Y003991D02*
X010343Y003991D01*
X010343Y004088D02*
X010101Y004088D01*
X010198Y004185D02*
X010358Y004185D01*
X010400Y004282D02*
X010295Y004282D01*
X010357Y004379D02*
X010497Y004379D01*
X010594Y004476D02*
X010374Y004476D01*
X010374Y004573D02*
X010691Y004573D01*
X010727Y004670D02*
X010374Y004670D01*
X010374Y004766D02*
X010687Y004766D01*
X010679Y004863D02*
X010374Y004863D01*
X010374Y004960D02*
X010684Y004960D01*
X010724Y005057D02*
X010374Y005057D01*
X010374Y005154D02*
X010756Y005154D01*
X010689Y005251D02*
X010374Y005251D01*
X010374Y005348D02*
X010660Y005348D01*
X010660Y005445D02*
X010374Y005445D01*
X010361Y005542D02*
X010660Y005542D01*
X010660Y005639D02*
X010305Y005639D01*
X010208Y005736D02*
X010660Y005736D01*
X010660Y005833D02*
X010111Y005833D01*
X010014Y005930D02*
X010660Y005930D01*
X010660Y006027D02*
X009917Y006027D01*
X009597Y005580D02*
X009832Y005345D01*
X009832Y005316D01*
X009805Y005343D01*
X009615Y005422D01*
X009410Y005422D01*
X009221Y005343D01*
X009076Y005198D01*
X008997Y005009D01*
X008997Y004804D01*
X009075Y004615D01*
X008994Y004534D01*
X008994Y004566D01*
X008923Y004737D01*
X008792Y004868D01*
X008621Y004939D01*
X008436Y004939D01*
X008265Y004868D01*
X008134Y004737D01*
X008063Y004566D01*
X008063Y004380D01*
X008134Y004209D01*
X008189Y004153D01*
X007184Y004153D01*
X007184Y004257D01*
X007072Y004369D01*
X006445Y004369D01*
X007183Y005107D01*
X007225Y005207D01*
X007225Y005314D01*
X007225Y005741D01*
X007300Y005816D01*
X007347Y005930D01*
X007347Y005930D01*
X007395Y005816D01*
X007510Y005701D01*
X007660Y005639D01*
X007767Y005639D01*
X007784Y005621D01*
X007884Y005580D01*
X007992Y005580D01*
X009597Y005580D01*
X009635Y005542D02*
X007225Y005542D01*
X007225Y005445D02*
X009732Y005445D01*
X009793Y005348D02*
X009829Y005348D01*
X009233Y005348D02*
X007225Y005348D01*
X007225Y005251D02*
X009129Y005251D01*
X009057Y005154D02*
X007203Y005154D01*
X007134Y005057D02*
X009017Y005057D01*
X008997Y004960D02*
X007037Y004960D01*
X006940Y004863D02*
X008260Y004863D01*
X008163Y004766D02*
X006843Y004766D01*
X006746Y004670D02*
X008106Y004670D01*
X008066Y004573D02*
X006649Y004573D01*
X006552Y004476D02*
X008063Y004476D01*
X008063Y004379D02*
X006455Y004379D01*
X005980Y004670D02*
X005839Y004670D01*
X005879Y004766D02*
X006077Y004766D01*
X006174Y004863D02*
X005895Y004863D01*
X005895Y004960D02*
X006271Y004960D01*
X006367Y005057D02*
X005874Y005057D01*
X005834Y005154D02*
X006464Y005154D01*
X006561Y005251D02*
X005763Y005251D01*
X005659Y005348D02*
X006658Y005348D01*
X006683Y005445D02*
X005159Y005445D01*
X005099Y005348D02*
X003247Y005348D01*
X003247Y005251D02*
X003412Y005251D01*
X003315Y005154D02*
X003247Y005154D01*
X002820Y005457D02*
X002800Y005457D01*
X002820Y005457D02*
X003017Y005654D01*
X003149Y005930D02*
X004878Y005930D01*
X004970Y006027D02*
X001297Y006027D01*
X001297Y005930D02*
X001704Y005930D01*
X001607Y005833D02*
X001297Y005833D01*
X001297Y005736D02*
X001605Y005736D01*
X001605Y005639D02*
X001297Y005639D01*
X001297Y005542D02*
X001605Y005542D01*
X001605Y005445D02*
X001297Y005445D01*
X001297Y005348D02*
X001605Y005348D01*
X001605Y005251D02*
X001297Y005251D01*
X001297Y005154D02*
X001605Y005154D01*
X001618Y005057D02*
X001297Y005057D01*
X001297Y004960D02*
X001605Y004960D01*
X001605Y004863D02*
X001297Y004863D01*
X001297Y004766D02*
X001605Y004766D01*
X001605Y004670D02*
X001297Y004670D01*
X001297Y004573D02*
X001605Y004573D01*
X001605Y004476D02*
X001297Y004476D01*
X001297Y004379D02*
X001605Y004379D01*
X001619Y004282D02*
X001297Y004282D01*
X001297Y004185D02*
X001647Y004185D01*
X001647Y004088D02*
X001297Y004088D01*
X001297Y003991D02*
X001647Y003991D01*
X001647Y003833D02*
X001647Y003568D01*
X001657Y003530D01*
X001677Y003496D01*
X001705Y003468D01*
X001739Y003448D01*
X001777Y003438D01*
X002003Y003438D01*
X002003Y003833D01*
X001647Y003833D01*
X001647Y003797D02*
X001297Y003797D01*
X001297Y003894D02*
X002003Y003894D01*
X002003Y003797D02*
X002101Y003797D01*
X002101Y003700D02*
X002003Y003700D01*
X002003Y003603D02*
X002101Y003603D01*
X002101Y003506D02*
X002003Y003506D01*
X001671Y003506D02*
X001297Y003506D01*
X001297Y003603D02*
X001647Y003603D01*
X001647Y003700D02*
X001297Y003700D01*
X001297Y003409D02*
X002452Y003409D01*
X002967Y003215D02*
X001297Y003215D01*
X001297Y003312D02*
X003055Y003312D01*
X003118Y003375D02*
X002973Y003230D01*
X002895Y003040D01*
X002895Y002835D01*
X002973Y002645D01*
X003118Y002500D01*
X003308Y002422D01*
X003513Y002422D01*
X003703Y002500D01*
X003848Y002645D01*
X003926Y002835D01*
X003926Y003040D01*
X003848Y003230D01*
X003703Y003375D01*
X003513Y003453D01*
X003308Y003453D01*
X003118Y003375D01*
X003148Y003409D02*
X003201Y003409D01*
X003245Y003506D02*
X005544Y003506D01*
X005542Y003603D02*
X003247Y003603D01*
X003247Y003700D02*
X005542Y003700D01*
X005542Y003797D02*
X003247Y003797D01*
X003247Y003894D02*
X005542Y003894D01*
X005542Y003991D02*
X003247Y003991D01*
X003247Y004088D02*
X004121Y004088D01*
X004024Y004185D02*
X003247Y004185D01*
X003233Y004282D02*
X003970Y004282D01*
X003930Y004379D02*
X003247Y004379D01*
X003402Y004476D02*
X003929Y004476D01*
X003932Y004573D02*
X003499Y004573D01*
X003596Y004670D02*
X003972Y004670D01*
X004029Y004766D02*
X003693Y004766D01*
X004668Y004088D02*
X005542Y004088D01*
X005542Y004185D02*
X004765Y004185D01*
X004819Y004282D02*
X005567Y004282D01*
X005730Y004379D02*
X004860Y004379D01*
X004860Y004476D02*
X005080Y004476D01*
X004983Y004573D02*
X004858Y004573D01*
X004817Y004670D02*
X004919Y004670D01*
X004878Y004766D02*
X004760Y004766D01*
X005256Y005542D02*
X006683Y005542D01*
X006683Y005639D02*
X005460Y005639D01*
X005645Y005736D02*
X006683Y005736D01*
X006600Y005833D02*
X005732Y005833D01*
X005772Y005930D02*
X006560Y005930D01*
X006545Y006027D02*
X005788Y006027D01*
X005788Y006124D02*
X006545Y006124D01*
X005773Y006835D02*
X004001Y008607D01*
X003757Y008851D01*
X003548Y008851D01*
X003548Y009351D02*
X003847Y009351D01*
X004198Y009001D01*
X004198Y008804D01*
X005969Y007032D01*
X009710Y007032D01*
X010891Y008213D01*
X010891Y009591D01*
X011481Y010182D01*
X011521Y010221D01*
X011925Y010221D01*
X014670Y010221D01*
X015025Y010575D01*
X015418Y010575D01*
X015615Y010772D01*
X015615Y010969D01*
X015812Y010969D02*
X015812Y010575D01*
X015615Y010379D01*
X015221Y010379D01*
X014749Y009906D01*
X011925Y009906D01*
X011796Y009906D01*
X011599Y009906D01*
X011481Y009788D01*
X011088Y009394D01*
X011088Y008016D01*
X009906Y006835D01*
X005773Y006835D01*
X005576Y006638D02*
X003863Y008351D01*
X003048Y008351D01*
X002548Y007851D01*
X002188Y007482D02*
X001297Y007482D01*
X001297Y007579D02*
X002103Y007579D01*
X002063Y007676D02*
X001297Y007676D01*
X001297Y007773D02*
X002032Y007773D01*
X002032Y007869D02*
X001297Y007869D01*
X001297Y007966D02*
X002038Y007966D01*
X002078Y008063D02*
X001297Y008063D01*
X001297Y008160D02*
X002128Y008160D01*
X002225Y008257D02*
X001297Y008257D01*
X001297Y008354D02*
X002400Y008354D01*
X002219Y008451D02*
X001297Y008451D01*
X001297Y008548D02*
X002122Y008548D01*
X002075Y008645D02*
X001297Y008645D01*
X001297Y008742D02*
X002035Y008742D01*
X002032Y008839D02*
X001297Y008839D01*
X001297Y008936D02*
X002032Y008936D01*
X002065Y009033D02*
X001297Y009033D01*
X001297Y009130D02*
X002106Y009130D01*
X002195Y009227D02*
X001297Y009227D01*
X001297Y009324D02*
X002343Y009324D01*
X002249Y009421D02*
X001297Y009421D01*
X001297Y009518D02*
X002152Y009518D01*
X002088Y009615D02*
X001297Y009615D01*
X001297Y009712D02*
X002048Y009712D01*
X002032Y009809D02*
X001297Y009809D01*
X001297Y009906D02*
X002032Y009906D01*
X002053Y010003D02*
X001297Y010003D01*
X001297Y010100D02*
X002093Y010100D01*
X002165Y010197D02*
X001297Y010197D01*
X001297Y010294D02*
X002269Y010294D01*
X002312Y010391D02*
X001297Y010391D01*
X001297Y010488D02*
X002182Y010488D01*
X002100Y010585D02*
X001297Y010585D01*
X001297Y010682D02*
X002060Y010682D01*
X002032Y010779D02*
X001297Y010779D01*
X001297Y010876D02*
X002032Y010876D01*
X002040Y010972D02*
X001297Y010972D01*
X001297Y011069D02*
X002080Y011069D01*
X002134Y011166D02*
X001297Y011166D01*
X001297Y011263D02*
X002231Y011263D01*
X002385Y011360D02*
X001297Y011360D01*
X001297Y011457D02*
X002212Y011457D01*
X002116Y011554D02*
X001297Y011554D01*
X001297Y011845D02*
X002032Y011845D01*
X002032Y011748D02*
X002111Y011559D01*
X002032Y011942D02*
X001297Y011942D01*
X001297Y012039D02*
X002068Y012039D01*
X002108Y012136D02*
X001297Y012136D01*
X001297Y012233D02*
X002201Y012233D01*
X002357Y012330D02*
X001297Y012330D01*
X001297Y012427D02*
X002243Y012427D01*
X002146Y012524D02*
X001297Y012524D01*
X001297Y012621D02*
X002085Y012621D01*
X002045Y012718D02*
X001297Y012718D01*
X001297Y012815D02*
X002032Y012815D01*
X002032Y012912D02*
X001297Y012912D01*
X001297Y013009D02*
X002055Y013009D01*
X002095Y013106D02*
X001297Y013106D01*
X001297Y013203D02*
X002171Y013203D01*
X002284Y013300D02*
X001297Y013300D01*
X001297Y013397D02*
X002297Y013397D01*
X002176Y013494D02*
X001297Y013494D01*
X001297Y013591D02*
X002098Y013591D01*
X002058Y013688D02*
X001297Y013688D01*
X001297Y013785D02*
X002032Y013785D01*
X002032Y013882D02*
X001297Y013882D01*
X001297Y013979D02*
X002043Y013979D01*
X002083Y014075D02*
X001297Y014075D01*
X001297Y014172D02*
X002140Y014172D01*
X002237Y014269D02*
X001297Y014269D01*
X001297Y014366D02*
X002370Y014366D01*
X002206Y014463D02*
X001297Y014463D01*
X001297Y014560D02*
X002110Y014560D01*
X002070Y014657D02*
X001297Y014657D01*
X001297Y014754D02*
X002032Y014754D01*
X002032Y014851D02*
X001297Y014851D01*
X001297Y014948D02*
X002032Y014948D01*
X002070Y015045D02*
X001297Y015045D01*
X001297Y015142D02*
X002111Y015142D01*
X002207Y015239D02*
X001297Y015239D01*
X001297Y015336D02*
X002372Y015336D01*
X002237Y015433D02*
X001297Y015433D01*
X001297Y015530D02*
X002140Y015530D01*
X002083Y015627D02*
X001297Y015627D01*
X001297Y015724D02*
X002043Y015724D01*
X002032Y015821D02*
X001297Y015821D01*
X001297Y015918D02*
X002032Y015918D01*
X002058Y016015D02*
X001297Y016015D01*
X001297Y016112D02*
X002098Y016112D01*
X002177Y016209D02*
X001297Y016209D01*
X001297Y016306D02*
X002298Y016306D01*
X002283Y016403D02*
X001297Y016403D01*
X001297Y016500D02*
X002170Y016500D01*
X002095Y016597D02*
X001297Y016597D01*
X001297Y016694D02*
X002055Y016694D01*
X002032Y016791D02*
X001297Y016791D01*
X001297Y016888D02*
X002032Y016888D01*
X002045Y016985D02*
X001297Y016985D01*
X001297Y017081D02*
X002085Y017081D01*
X002146Y017178D02*
X001297Y017178D01*
X001297Y017275D02*
X002243Y017275D01*
X002730Y017372D02*
X001297Y017372D01*
X001297Y017469D02*
X002827Y017469D01*
X002941Y017566D02*
X001297Y017566D01*
X001297Y017663D02*
X004568Y017663D01*
X004568Y017728D02*
X004568Y017541D01*
X004640Y017369D01*
X004771Y017238D01*
X004943Y017166D01*
X005129Y017166D01*
X005302Y017238D01*
X005433Y017369D01*
X005504Y017541D01*
X005504Y017728D01*
X005433Y017900D01*
X005302Y018031D01*
X005129Y018103D01*
X004943Y018103D01*
X004771Y018031D01*
X004640Y017900D01*
X004568Y017728D01*
X004582Y017760D02*
X001297Y017760D01*
X001297Y017857D02*
X004622Y017857D01*
X004694Y017954D02*
X001297Y017954D01*
X001297Y018051D02*
X004819Y018051D01*
X005254Y018051D02*
X005819Y018051D01*
X005771Y018031D02*
X005640Y017900D01*
X005568Y017728D01*
X005568Y017541D01*
X005640Y017369D01*
X005771Y017238D01*
X005943Y017166D01*
X006129Y017166D01*
X006302Y017238D01*
X006433Y017369D01*
X006504Y017541D01*
X006504Y017728D01*
X006433Y017900D01*
X006302Y018031D01*
X006129Y018103D01*
X005943Y018103D01*
X005771Y018031D01*
X005694Y017954D02*
X005379Y017954D01*
X005451Y017857D02*
X005622Y017857D01*
X005582Y017760D02*
X005491Y017760D01*
X005504Y017663D02*
X005568Y017663D01*
X005568Y017566D02*
X005504Y017566D01*
X005475Y017469D02*
X005598Y017469D01*
X005638Y017372D02*
X005434Y017372D01*
X005339Y017275D02*
X005733Y017275D01*
X005914Y017178D02*
X005159Y017178D01*
X004914Y017178D02*
X004627Y017178D01*
X004724Y017081D02*
X006714Y017081D01*
X006714Y016985D02*
X004821Y016985D01*
X004918Y016888D02*
X006714Y016888D01*
X006714Y016791D02*
X005015Y016791D01*
X005112Y016694D02*
X006714Y016694D01*
X006714Y016597D02*
X005209Y016597D01*
X005306Y016500D02*
X006714Y016500D01*
X006753Y016403D02*
X005403Y016403D01*
X005500Y016306D02*
X006850Y016306D01*
X006947Y016209D02*
X005597Y016209D01*
X005694Y016112D02*
X007044Y016112D01*
X007071Y016015D02*
X005791Y016015D01*
X005888Y015918D02*
X007078Y015918D01*
X007118Y015821D02*
X005985Y015821D01*
X006082Y015724D02*
X007194Y015724D01*
X007351Y015627D02*
X006179Y015627D01*
X006276Y015530D02*
X007159Y015530D01*
X007067Y015433D02*
X006373Y015433D01*
X006470Y015336D02*
X007067Y015336D01*
X007067Y015239D02*
X006567Y015239D01*
X006664Y015142D02*
X007067Y015142D01*
X007067Y015045D02*
X006761Y015045D01*
X006858Y014948D02*
X007067Y014948D01*
X006757Y014709D02*
X004115Y017351D01*
X003798Y017351D01*
X003048Y017351D01*
X002548Y016851D01*
X003048Y016351D02*
X002548Y015851D01*
X003048Y015351D02*
X002548Y014851D01*
X003017Y014351D02*
X002548Y013883D01*
X002548Y013851D01*
X003017Y013351D02*
X002548Y012883D01*
X002548Y012851D01*
X003017Y013351D02*
X003798Y013351D01*
X003981Y013351D01*
X004198Y013134D01*
X004198Y012741D01*
X005379Y011560D01*
X005773Y011166D01*
X005773Y010379D01*
X006560Y009591D01*
X007494Y009591D01*
X008332Y009591D01*
X009316Y010575D01*
X009316Y011166D01*
X010497Y012347D01*
X010497Y014906D01*
X011481Y015890D01*
X012466Y015890D01*
X013450Y014906D01*
X014828Y014906D01*
X014828Y014709D02*
X013253Y014709D01*
X012269Y015694D01*
X011678Y015694D01*
X010694Y014709D01*
X010694Y012150D01*
X009513Y010969D01*
X009513Y010379D01*
X008410Y009276D01*
X007494Y009276D01*
X006481Y009276D01*
X005576Y010182D01*
X005576Y010969D01*
X005182Y011363D01*
X003694Y012851D01*
X003548Y012851D01*
X003798Y012351D02*
X003017Y012351D01*
X002548Y011883D01*
X002548Y011851D01*
X003017Y011351D02*
X002548Y010883D01*
X002548Y010851D01*
X003017Y011351D02*
X003798Y011351D01*
X004013Y011351D01*
X004985Y010379D01*
X004985Y009591D01*
X006757Y007820D01*
X008135Y007820D01*
X010103Y009788D01*
X010103Y010379D01*
X011284Y011560D01*
X011284Y013331D01*
X011639Y013686D01*
X011925Y013686D01*
X011964Y013725D01*
X013450Y013725D01*
X013647Y013528D01*
X014828Y013528D01*
X014828Y013331D02*
X013450Y013331D01*
X013253Y013528D01*
X012466Y013528D01*
X012269Y013331D01*
X012072Y013331D01*
X012032Y013371D01*
X011925Y013371D01*
X011717Y013371D01*
X011717Y013370D02*
X011689Y013368D01*
X011661Y013363D01*
X011633Y013355D01*
X011607Y013343D01*
X011583Y013328D01*
X011561Y013311D01*
X011540Y013290D01*
X011523Y013268D01*
X011508Y013244D01*
X011496Y013218D01*
X011488Y013190D01*
X011483Y013162D01*
X011481Y013134D01*
X011481Y011363D01*
X010300Y010182D01*
X010300Y009591D01*
X008332Y007623D01*
X006560Y007623D01*
X004788Y009394D01*
X004788Y009985D01*
X003922Y010851D01*
X003548Y010851D01*
X003798Y010351D02*
X003048Y010351D01*
X002548Y009851D01*
X003048Y009351D02*
X002548Y008851D01*
X003048Y009351D02*
X003548Y009351D01*
X003548Y009851D02*
X003798Y009851D01*
X004395Y009255D01*
X004395Y009001D01*
X006166Y007229D01*
X009513Y007229D01*
X010694Y008410D01*
X010694Y009788D01*
X011442Y010536D01*
X011925Y010536D01*
X013804Y010536D01*
X014434Y011166D01*
X014434Y011560D01*
X014631Y011757D01*
X014828Y011757D01*
X014828Y011953D02*
X014434Y011953D01*
X014237Y011757D01*
X014237Y011363D01*
X013725Y010851D01*
X011925Y010851D01*
X011363Y010851D01*
X010497Y009985D01*
X010497Y008607D01*
X009316Y007426D01*
X006363Y007426D01*
X004591Y009197D01*
X004591Y009591D01*
X004001Y010182D01*
X003832Y010351D01*
X003798Y010351D01*
X005182Y010575D02*
X005182Y009788D01*
X006954Y008016D01*
X007938Y008016D01*
X009906Y009985D01*
X009906Y010575D01*
X011088Y011757D01*
X011088Y013528D01*
X011560Y014001D01*
X011925Y014001D01*
X012387Y014001D01*
X012466Y013922D01*
X014828Y013922D01*
X014828Y014119D02*
X012662Y014119D01*
X012466Y014316D01*
X011925Y014316D01*
X011481Y014316D01*
X010891Y013725D01*
X010891Y011953D01*
X009710Y010772D01*
X009710Y010182D01*
X007741Y008213D01*
X007151Y008213D01*
X005379Y009985D01*
X005379Y010772D01*
X003800Y012351D01*
X003798Y012351D01*
X003906Y011851D02*
X003548Y011851D01*
X003906Y011851D02*
X005182Y010575D01*
X005969Y010575D02*
X005969Y011363D01*
X004395Y012938D01*
X004395Y013331D01*
X003875Y013851D01*
X003548Y013851D01*
X003798Y014351D02*
X003017Y014351D01*
X003548Y014851D02*
X003662Y014851D01*
X004788Y013725D01*
X004788Y013331D01*
X006363Y011757D01*
X006363Y010969D01*
X006796Y010536D01*
X007494Y010536D01*
X008095Y010536D01*
X008725Y011166D01*
X008725Y011757D01*
X009906Y012938D01*
X009906Y015497D01*
X010891Y016481D01*
X013056Y016481D01*
X014040Y015497D01*
X014828Y015497D01*
X014828Y015694D02*
X014237Y015694D01*
X013253Y016678D01*
X010694Y016678D01*
X009710Y015694D01*
X009710Y013134D01*
X008529Y011953D01*
X008529Y011363D01*
X008017Y010851D01*
X007494Y010851D01*
X007494Y011166D02*
X007938Y011166D01*
X008332Y011560D01*
X008332Y012150D01*
X009513Y013331D01*
X009513Y015890D01*
X010497Y016875D01*
X013450Y016875D01*
X014040Y016284D01*
X014828Y016284D01*
X014828Y016087D02*
X015615Y016087D01*
X015812Y015890D01*
X016185Y015724D02*
X018082Y015724D01*
X018082Y015821D02*
X016221Y015821D01*
X016221Y015809D02*
X016221Y015972D01*
X016158Y016122D01*
X016043Y016237D01*
X015893Y016299D01*
X015731Y016299D01*
X015663Y016327D01*
X015215Y016327D01*
X015215Y016412D01*
X015215Y016609D01*
X015215Y016806D01*
X015190Y016831D01*
X015428Y016831D01*
X015465Y016742D01*
X015580Y016627D01*
X015731Y016564D01*
X015893Y016564D01*
X016043Y016627D01*
X016158Y016742D01*
X016221Y016892D01*
X016221Y017054D01*
X016158Y017205D01*
X016138Y017225D01*
X016191Y017225D01*
X016191Y017187D01*
X016253Y017037D01*
X016368Y016922D01*
X016518Y016860D01*
X016681Y016860D01*
X016831Y016922D01*
X016946Y017037D01*
X017008Y017187D01*
X017008Y017350D01*
X016946Y017500D01*
X016831Y017615D01*
X016681Y017677D01*
X016879Y017566D02*
X017575Y017566D01*
X017615Y017469D02*
X016959Y017469D01*
X016999Y017372D02*
X017689Y017372D01*
X017843Y017275D02*
X017008Y017275D01*
X017005Y017178D02*
X022034Y017178D01*
X021951Y017081D02*
X016964Y017081D01*
X016894Y016985D02*
X021911Y016985D01*
X021899Y016888D02*
X016748Y016888D01*
X016451Y016888D02*
X016219Y016888D01*
X016221Y016985D02*
X016305Y016985D01*
X016234Y017081D02*
X016209Y017081D01*
X016194Y017178D02*
X016169Y017178D01*
X016403Y017465D02*
X015615Y017465D01*
X015615Y018253D01*
X015221Y018646D01*
X014828Y018646D01*
X014828Y018449D02*
X013450Y018449D01*
X008922Y018449D01*
X008135Y017662D01*
X007938Y017465D01*
X007938Y014906D01*
X007936Y014875D01*
X007931Y014845D01*
X007923Y014815D01*
X007911Y014786D01*
X007896Y014759D01*
X007878Y014734D01*
X007857Y014711D01*
X007834Y014690D01*
X007809Y014672D01*
X007782Y014657D01*
X007753Y014645D01*
X007723Y014637D01*
X007693Y014632D01*
X007662Y014630D01*
X007662Y014631D02*
X007494Y014631D01*
X006836Y014631D01*
X006757Y014709D01*
X006757Y014316D02*
X004395Y016678D01*
X004221Y016851D01*
X003548Y016851D01*
X003798Y016351D02*
X004328Y016351D01*
X004395Y016284D01*
X006678Y014001D01*
X007494Y014001D01*
X007820Y014001D01*
X008332Y014512D01*
X008332Y017071D01*
X009316Y018056D01*
X013843Y018056D01*
X014828Y018056D01*
X014828Y018253D02*
X014631Y018253D01*
X009119Y018253D01*
X008135Y017268D01*
X008135Y014709D01*
X007741Y014316D01*
X007494Y014316D01*
X006757Y014316D01*
X006599Y013686D02*
X004591Y015694D01*
X004434Y015851D01*
X003548Y015851D01*
X003798Y015351D02*
X004540Y015351D01*
X006521Y013371D01*
X007494Y013371D01*
X007977Y013371D01*
X008725Y014119D01*
X008725Y016678D01*
X009710Y017662D01*
X009906Y017662D01*
X014237Y017662D01*
X014828Y017662D01*
X014828Y017465D02*
X014434Y017465D01*
X009906Y017465D01*
X008922Y016481D01*
X008922Y013922D01*
X007741Y012741D01*
X007494Y012741D01*
X007494Y013056D02*
X007109Y013056D01*
X007494Y013056D01*
X007494Y013056D01*
X007109Y013056D02*
X007109Y012960D01*
X007067Y012918D01*
X007067Y012812D01*
X006988Y012890D01*
X006838Y012953D01*
X006676Y012953D01*
X006525Y012890D01*
X006410Y012775D01*
X006348Y012625D01*
X006348Y012463D01*
X006410Y012312D01*
X006525Y012197D01*
X006676Y012135D01*
X006782Y012135D01*
X007036Y011881D01*
X007109Y011851D01*
X007109Y011796D01*
X007494Y011796D01*
X007190Y011796D01*
X006954Y011560D01*
X007067Y011554D02*
X006603Y011554D01*
X006603Y011457D02*
X007067Y011457D01*
X007067Y011360D02*
X006603Y011360D01*
X006603Y011263D02*
X007067Y011263D01*
X007067Y011344D02*
X007067Y011029D01*
X007067Y010776D01*
X006896Y010776D01*
X006603Y011069D01*
X007067Y011069D01*
X007067Y010972D02*
X006699Y010972D01*
X006603Y011069D02*
X006603Y011709D01*
X006603Y011804D01*
X006567Y011893D01*
X005028Y013431D01*
X005028Y013677D01*
X005028Y013773D01*
X004992Y013861D01*
X004064Y014789D01*
X004064Y014954D01*
X003999Y015111D01*
X004441Y015111D01*
X006385Y013167D01*
X006473Y013131D01*
X006568Y013131D01*
X007109Y013131D01*
X007109Y013056D01*
X007109Y013009D02*
X005450Y013009D01*
X005353Y013106D02*
X007109Y013106D01*
X007067Y012912D02*
X006937Y012912D01*
X007064Y012815D02*
X007067Y012815D01*
X006577Y012912D02*
X005547Y012912D01*
X005644Y012815D02*
X006450Y012815D01*
X006386Y012718D02*
X005741Y012718D01*
X005838Y012621D02*
X006348Y012621D01*
X006348Y012524D02*
X005935Y012524D01*
X006032Y012427D02*
X006363Y012427D01*
X006403Y012330D02*
X006129Y012330D01*
X006226Y012233D02*
X006490Y012233D01*
X006323Y012136D02*
X006673Y012136D01*
X006878Y012039D02*
X006420Y012039D01*
X006517Y011942D02*
X006975Y011942D01*
X007109Y011845D02*
X006586Y011845D01*
X006603Y011748D02*
X007109Y011748D01*
X007109Y011796D02*
X007109Y011700D01*
X007067Y011658D01*
X007067Y011344D01*
X007067Y011166D02*
X006603Y011166D01*
X006796Y010876D02*
X007067Y010876D01*
X007067Y010779D02*
X006893Y010779D01*
X006717Y010221D02*
X006166Y010772D01*
X006166Y011560D01*
X004591Y013134D01*
X004591Y013558D01*
X003798Y014351D01*
X004196Y014657D02*
X004894Y014657D01*
X004797Y014754D02*
X004099Y014754D01*
X004064Y014851D02*
X004700Y014851D01*
X004604Y014948D02*
X004064Y014948D01*
X004026Y015045D02*
X004507Y015045D01*
X004293Y014560D02*
X004991Y014560D01*
X005088Y014463D02*
X004390Y014463D01*
X004487Y014366D02*
X005185Y014366D01*
X005282Y014269D02*
X004584Y014269D01*
X004681Y014172D02*
X005379Y014172D01*
X005476Y014075D02*
X004777Y014075D01*
X004874Y013979D02*
X005573Y013979D01*
X005670Y013882D02*
X004971Y013882D01*
X005024Y013785D02*
X005767Y013785D01*
X005864Y013688D02*
X005028Y013688D01*
X005028Y013591D02*
X005961Y013591D01*
X006058Y013494D02*
X005028Y013494D01*
X005063Y013397D02*
X006155Y013397D01*
X006252Y013300D02*
X005160Y013300D01*
X005256Y013203D02*
X006349Y013203D01*
X006599Y013686D02*
X007494Y013686D01*
X007899Y013686D01*
X008529Y014316D01*
X008529Y016875D01*
X009513Y017859D01*
X014040Y017859D01*
X014828Y017859D01*
X014828Y017268D02*
X015418Y017268D01*
X015615Y017465D01*
X015855Y017760D02*
X017539Y017760D01*
X017442Y017857D02*
X015855Y017857D01*
X015855Y017954D02*
X017346Y017954D01*
X017249Y018051D02*
X015855Y018051D01*
X015855Y018148D02*
X017152Y018148D01*
X017055Y018245D02*
X015855Y018245D01*
X015838Y018342D02*
X016958Y018342D01*
X016861Y018439D02*
X015768Y018439D01*
X015671Y018536D02*
X016764Y018536D01*
X016667Y018633D02*
X015574Y018633D01*
X015477Y018730D02*
X016583Y018730D01*
X016556Y018827D02*
X015380Y018827D01*
X015615Y018843D02*
X015615Y019434D01*
X015812Y019434D02*
X015812Y019827D01*
X015615Y020024D01*
X014828Y020024D01*
X014631Y019827D01*
X014256Y019991D02*
X013186Y019991D01*
X013186Y019894D02*
X013088Y019894D01*
X013087Y019991D02*
X005946Y019991D01*
X005946Y020088D02*
X012490Y020088D01*
X012508Y020184D02*
X005936Y020184D01*
X005896Y020281D02*
X012541Y020281D01*
X012592Y020378D02*
X005856Y020378D01*
X005781Y020475D02*
X012670Y020475D01*
X012500Y019894D02*
X005946Y019894D01*
X005908Y019797D02*
X012528Y019797D01*
X012574Y019700D02*
X005868Y019700D01*
X005810Y019603D02*
X012642Y019603D01*
X012746Y019506D02*
X005713Y019506D01*
X005574Y019409D02*
X012926Y019409D01*
X013088Y019409D02*
X013186Y019409D01*
X013186Y019506D02*
X013088Y019506D01*
X013088Y019603D02*
X013186Y019603D01*
X013186Y019700D02*
X013088Y019700D01*
X013088Y019797D02*
X013186Y019797D01*
X013347Y019409D02*
X015417Y019409D01*
X015417Y019506D02*
X014887Y019506D01*
X014980Y019603D02*
X015417Y019603D01*
X015434Y019700D02*
X015020Y019700D01*
X015417Y019312D02*
X004462Y019312D01*
X004365Y019409D02*
X004935Y019409D01*
X004796Y019506D02*
X004269Y019506D01*
X004172Y019603D02*
X004699Y019603D01*
X004641Y019700D02*
X004075Y019700D01*
X004064Y019797D02*
X004601Y019797D01*
X004564Y019894D02*
X004064Y019894D01*
X004049Y019991D02*
X004564Y019991D01*
X004564Y020088D02*
X004008Y020088D01*
X003944Y020184D02*
X004573Y020184D01*
X004614Y020281D02*
X003847Y020281D01*
X003584Y019851D02*
X004395Y019040D01*
X004591Y018843D01*
X006757Y018843D01*
X007544Y018056D01*
X007544Y017268D01*
X007784Y017663D02*
X007796Y017663D01*
X007784Y017760D02*
X007893Y017760D01*
X007990Y017857D02*
X007784Y017857D01*
X007784Y017954D02*
X008087Y017954D01*
X008184Y018051D02*
X007784Y018051D01*
X007766Y018148D02*
X008281Y018148D01*
X008378Y018245D02*
X007694Y018245D01*
X007680Y018259D02*
X007680Y018259D01*
X007597Y018342D02*
X008475Y018342D01*
X008572Y018439D02*
X007500Y018439D01*
X007404Y018536D02*
X008669Y018536D01*
X008766Y018633D02*
X007307Y018633D01*
X007210Y018730D02*
X014440Y018730D01*
X014492Y018827D02*
X007113Y018827D01*
X007016Y018924D02*
X016556Y018924D01*
X016556Y019021D02*
X006919Y019021D01*
X006960Y018979D02*
X006960Y018979D01*
X006560Y018646D02*
X004395Y018646D01*
X004190Y018851D01*
X003548Y018851D01*
X003798Y018351D02*
X004099Y018351D01*
X004198Y018449D01*
X006363Y018449D01*
X006954Y017859D01*
X006954Y016542D01*
X007479Y016016D01*
X007607Y015627D02*
X007698Y015627D01*
X007517Y016660D02*
X007151Y017026D01*
X007151Y018056D01*
X006560Y018646D01*
X006325Y018148D02*
X004236Y018148D01*
X003798Y018351D02*
X003017Y018351D01*
X002548Y018820D01*
X002548Y018851D01*
X002183Y019215D02*
X001297Y019215D01*
X001297Y019312D02*
X002313Y019312D01*
X002268Y019409D02*
X001297Y019409D01*
X001297Y019506D02*
X002164Y019506D01*
X002093Y019603D02*
X001297Y019603D01*
X001297Y019700D02*
X002053Y019700D01*
X002032Y019797D02*
X001297Y019797D01*
X001297Y019894D02*
X002032Y019894D01*
X002048Y019991D02*
X001297Y019991D01*
X001297Y020088D02*
X002088Y020088D01*
X002152Y020184D02*
X001297Y020184D01*
X001297Y020281D02*
X002249Y020281D01*
X002058Y020669D02*
X001297Y020669D01*
X001297Y020572D02*
X004826Y020572D01*
X004729Y020475D02*
X001297Y020475D01*
X001297Y020378D02*
X004654Y020378D01*
X005007Y020669D02*
X002819Y020669D01*
X002847Y020281D02*
X003249Y020281D01*
X003152Y020184D02*
X002944Y020184D01*
X003008Y020088D02*
X003088Y020088D01*
X003548Y019851D02*
X003584Y019851D01*
X004559Y019215D02*
X015417Y019215D01*
X015474Y019118D02*
X004656Y019118D01*
X004568Y017566D02*
X004223Y017566D01*
X004336Y017469D02*
X004598Y017469D01*
X004638Y017372D02*
X004433Y017372D01*
X004530Y017275D02*
X004733Y017275D01*
X003798Y016351D02*
X003048Y016351D01*
X003048Y015351D02*
X003798Y015351D01*
X006159Y017178D02*
X006714Y017178D01*
X006714Y017275D02*
X006339Y017275D01*
X006434Y017372D02*
X006714Y017372D01*
X006714Y017469D02*
X006475Y017469D01*
X006504Y017566D02*
X006714Y017566D01*
X006714Y017663D02*
X006504Y017663D01*
X006491Y017760D02*
X006713Y017760D01*
X006616Y017857D02*
X006451Y017857D01*
X006519Y017954D02*
X006379Y017954D01*
X006422Y018051D02*
X006254Y018051D01*
X009119Y016284D02*
X010103Y017268D01*
X013843Y017268D01*
X014434Y016678D01*
X014828Y016678D01*
X014828Y016875D02*
X015221Y016875D01*
X015221Y016678D01*
X015300Y016678D01*
X015215Y016694D02*
X015513Y016694D01*
X015445Y016791D02*
X015215Y016791D01*
X015215Y016597D02*
X015653Y016597D01*
X015715Y016306D02*
X021112Y016306D01*
X021112Y016209D02*
X016072Y016209D01*
X016163Y016112D02*
X018126Y016112D01*
X018082Y016068D02*
X018082Y014335D01*
X018193Y014223D01*
X019926Y014223D01*
X020038Y014335D01*
X020038Y016068D01*
X019926Y016180D01*
X018193Y016180D01*
X018082Y016068D01*
X018082Y016015D02*
X016203Y016015D01*
X016221Y015918D02*
X018082Y015918D01*
X018082Y015627D02*
X016127Y015627D01*
X016158Y015659D02*
X016221Y015809D01*
X016158Y015659D02*
X016043Y015544D01*
X015893Y015482D01*
X015731Y015482D01*
X015580Y015544D01*
X015465Y015659D01*
X015403Y015809D01*
X015403Y015847D01*
X015190Y015847D01*
X015215Y015822D01*
X015215Y015625D01*
X015215Y015428D01*
X015215Y015231D01*
X015215Y015034D01*
X015215Y014838D01*
X015215Y014753D01*
X015403Y014753D01*
X015403Y014791D01*
X015465Y014941D01*
X015580Y015056D01*
X015731Y015118D01*
X015893Y015118D01*
X016043Y015056D01*
X016158Y014941D01*
X016221Y014791D01*
X016221Y014628D01*
X016158Y014478D01*
X016043Y014363D01*
X015893Y014301D01*
X015731Y014301D01*
X015663Y014272D01*
X015190Y014272D01*
X015215Y014247D01*
X015215Y014050D01*
X015215Y013965D01*
X016261Y013965D01*
X016368Y014072D01*
X016518Y014134D01*
X016681Y014134D01*
X016831Y014072D01*
X016946Y013957D01*
X017008Y013806D01*
X017008Y013644D01*
X016946Y013494D01*
X016986Y013591D02*
X021274Y013591D01*
X021289Y013575D02*
X021439Y013513D01*
X021590Y013513D01*
X021706Y013397D02*
X016849Y013397D01*
X017008Y013688D02*
X021177Y013688D01*
X021174Y013690D02*
X021289Y013575D01*
X021174Y013690D02*
X021112Y013841D01*
X021112Y014003D01*
X021174Y014153D01*
X021289Y014268D01*
X021439Y014331D01*
X021602Y014331D01*
X021752Y014268D01*
X021867Y014153D01*
X021899Y014076D01*
X021899Y014172D02*
X021848Y014172D01*
X021928Y014269D02*
X021750Y014269D01*
X021978Y014366D02*
X020038Y014366D01*
X020038Y014463D02*
X022075Y014463D01*
X022308Y014119D02*
X022702Y013725D01*
X023292Y013725D01*
X023292Y013922D02*
X022899Y013922D01*
X022886Y013983D01*
X022916Y013979D02*
X022788Y013979D01*
X022717Y014075D02*
X022904Y014075D01*
X022904Y014172D02*
X022717Y014172D01*
X022688Y014269D02*
X022904Y014269D01*
X022904Y014366D02*
X022638Y014366D01*
X022541Y014463D02*
X022904Y014463D01*
X022904Y014560D02*
X020038Y014560D01*
X020038Y014657D02*
X022904Y014657D01*
X022904Y014754D02*
X020038Y014754D01*
X020038Y014851D02*
X022904Y014851D01*
X022904Y014948D02*
X022527Y014948D01*
X022631Y015045D02*
X022904Y015045D01*
X022904Y015142D02*
X022685Y015142D01*
X022717Y015239D02*
X022904Y015239D01*
X023292Y015300D02*
X023883Y015300D01*
X024867Y016284D01*
X025851Y016284D01*
X026048Y016087D01*
X026048Y009591D01*
X025576Y009119D01*
X025190Y009119D01*
X025558Y008879D02*
X025558Y008646D01*
X025513Y008601D01*
X025516Y008587D01*
X025516Y008489D01*
X025190Y008489D01*
X025190Y008489D01*
X025516Y008489D01*
X025516Y008415D01*
X025648Y008546D01*
X026005Y008903D01*
X026005Y009208D01*
X025779Y008983D01*
X025712Y008915D01*
X025624Y008879D01*
X025558Y008879D01*
X025558Y008839D02*
X025941Y008839D01*
X026005Y008936D02*
X025733Y008936D01*
X025830Y009033D02*
X026005Y009033D01*
X026005Y009130D02*
X025927Y009130D01*
X026245Y008804D02*
X025851Y008410D01*
X025615Y008174D01*
X025190Y008174D01*
X025190Y007859D02*
X025516Y007859D01*
X025190Y007859D01*
X025190Y007859D01*
X025190Y007858D02*
X025190Y007631D01*
X025190Y007858D01*
X025190Y007858D01*
X025190Y007773D02*
X025190Y007773D01*
X025190Y007676D02*
X025190Y007676D01*
X025474Y007676D02*
X028173Y007676D01*
X028076Y007773D02*
X025516Y007773D01*
X025516Y007869D02*
X028029Y007869D01*
X028002Y007966D02*
X025742Y007966D01*
X025844Y008063D02*
X028002Y008063D01*
X028028Y008160D02*
X025941Y008160D01*
X026038Y008257D02*
X028073Y008257D01*
X028170Y008354D02*
X026135Y008354D01*
X026232Y008451D02*
X028226Y008451D01*
X028129Y008548D02*
X026329Y008548D01*
X026426Y008645D02*
X028032Y008645D01*
X027935Y008742D02*
X026479Y008742D01*
X026485Y008839D02*
X027839Y008839D01*
X027742Y008936D02*
X026485Y008936D01*
X026485Y009033D02*
X027645Y009033D01*
X027548Y009130D02*
X026485Y009130D01*
X026485Y009227D02*
X027451Y009227D01*
X027354Y009324D02*
X026485Y009324D01*
X026485Y009421D02*
X027257Y009421D01*
X027160Y009518D02*
X026485Y009518D01*
X026485Y009615D02*
X027063Y009615D01*
X026966Y009712D02*
X026485Y009712D01*
X026485Y009809D02*
X026869Y009809D01*
X026772Y009906D02*
X026485Y009906D01*
X026485Y010003D02*
X026675Y010003D01*
X026578Y010100D02*
X026485Y010100D01*
X026442Y010575D02*
X028607Y008410D01*
X028843Y008174D01*
X029662Y008174D01*
X029662Y009119D02*
X029080Y009119D01*
X028410Y009788D01*
X028017Y009788D01*
X026639Y011166D01*
X026639Y016678D01*
X026442Y016875D01*
X024277Y016875D01*
X023686Y016284D01*
X023292Y016284D01*
X023292Y016087D02*
X023883Y016087D01*
X024473Y016678D01*
X026245Y016678D01*
X026442Y016481D01*
X026442Y010575D01*
X025808Y010294D02*
X025516Y010294D01*
X025558Y010197D02*
X025808Y010197D01*
X025808Y010100D02*
X025558Y010100D01*
X025558Y009809D02*
X025808Y009809D01*
X025808Y009712D02*
X025558Y009712D01*
X025558Y009615D02*
X025732Y009615D01*
X025635Y009518D02*
X025558Y009518D01*
X024864Y010391D02*
X024604Y010391D01*
X024507Y010488D02*
X024866Y010488D01*
X024822Y010585D02*
X024410Y010585D01*
X024320Y010682D02*
X024822Y010682D01*
X024867Y010969D02*
X024473Y010969D01*
X024277Y011166D01*
X024277Y012150D01*
X023686Y012741D01*
X023292Y012741D01*
X023292Y012938D02*
X023883Y012938D01*
X024080Y012741D01*
X024670Y012741D01*
X024867Y012741D01*
X025025Y012898D01*
X025190Y012898D01*
X025190Y013213D02*
X024749Y013213D01*
X024670Y013134D01*
X024622Y012501D02*
X024864Y012501D01*
X024864Y012485D01*
X024867Y012471D01*
X024822Y012426D01*
X024822Y012110D01*
X024867Y012065D01*
X024864Y012052D01*
X024864Y011954D01*
X025189Y011954D01*
X025189Y011953D01*
X024864Y011953D01*
X024864Y011855D01*
X024867Y011842D01*
X024822Y011796D01*
X024822Y011742D01*
X024752Y011772D01*
X024589Y011772D01*
X024517Y011742D01*
X024517Y012198D01*
X024480Y012286D01*
X024413Y012354D01*
X024266Y012501D01*
X024622Y012501D01*
X024823Y012427D02*
X024339Y012427D01*
X024436Y012330D02*
X024822Y012330D01*
X024822Y012233D02*
X024502Y012233D01*
X024517Y012136D02*
X024822Y012136D01*
X024864Y012039D02*
X024517Y012039D01*
X024517Y011942D02*
X024864Y011942D01*
X024866Y011845D02*
X024517Y011845D01*
X024517Y011748D02*
X024533Y011748D01*
X024808Y011748D02*
X024822Y011748D01*
X024906Y011009D02*
X024867Y010969D01*
X024906Y011009D02*
X025190Y011009D01*
X024324Y010779D02*
X024320Y010779D01*
X022899Y010379D02*
X022505Y010379D01*
X022308Y010575D01*
X022308Y010969D01*
X022505Y010969D02*
X022505Y011540D01*
X022664Y011651D02*
X021367Y011651D01*
X021367Y011554D02*
X022761Y011554D01*
X022702Y012347D02*
X022505Y012544D01*
X022308Y012544D01*
X021938Y012718D02*
X021929Y012718D01*
X021929Y012815D02*
X022001Y012815D01*
X021892Y012912D02*
X022128Y012912D01*
X021914Y013134D02*
X021717Y013331D01*
X021324Y013331D01*
X021334Y013106D02*
X020526Y013106D01*
X020649Y013009D02*
X021211Y013009D01*
X021521Y012741D02*
X021521Y012544D01*
X022111Y011953D01*
X022702Y012347D02*
X023292Y012347D01*
X023292Y012544D02*
X022899Y012544D01*
X022702Y012741D01*
X022702Y012938D01*
X022505Y013134D01*
X021914Y013134D01*
X021831Y013009D02*
X022904Y013009D01*
X022904Y012912D02*
X022488Y012912D01*
X022615Y012815D02*
X022904Y012815D01*
X022904Y012718D02*
X022678Y012718D01*
X022767Y012621D02*
X022904Y012621D01*
X022619Y013106D02*
X021707Y013106D01*
X021838Y013300D02*
X015215Y013300D01*
X015215Y013397D02*
X016350Y013397D01*
X016599Y013725D02*
X014828Y013725D01*
X015215Y013979D02*
X016275Y013979D01*
X016377Y014075D02*
X015215Y014075D01*
X015215Y014172D02*
X021193Y014172D01*
X021142Y014075D02*
X016821Y014075D01*
X016924Y013979D02*
X021112Y013979D01*
X021112Y013882D02*
X016977Y013882D01*
X017008Y013785D02*
X021135Y013785D01*
X021292Y014269D02*
X019973Y014269D01*
X020038Y014948D02*
X022089Y014948D01*
X021985Y015045D02*
X020038Y015045D01*
X020038Y015142D02*
X021931Y015142D01*
X021899Y015239D02*
X020038Y015239D01*
X020038Y015336D02*
X021899Y015336D01*
X021921Y015433D02*
X020038Y015433D01*
X020038Y015530D02*
X021961Y015530D01*
X022057Y015627D02*
X020038Y015627D01*
X020038Y015724D02*
X022426Y015724D01*
X022505Y015497D02*
X022308Y015300D01*
X022505Y015497D02*
X023292Y015497D01*
X023292Y015694D02*
X022899Y015694D01*
X022702Y015890D01*
X022111Y015890D01*
X021829Y016015D02*
X022904Y016015D01*
X022904Y016112D02*
X022672Y016112D01*
X022769Y016209D02*
X022904Y016209D01*
X022904Y015918D02*
X021705Y015918D01*
X021337Y015918D02*
X020038Y015918D01*
X020038Y016015D02*
X021212Y016015D01*
X021150Y016112D02*
X019994Y016112D01*
X020038Y015821D02*
X022904Y015821D01*
X023292Y015890D02*
X024080Y015890D01*
X024670Y016481D01*
X026048Y016481D01*
X026245Y016284D01*
X026245Y008804D01*
X025844Y008742D02*
X025558Y008742D01*
X025557Y008645D02*
X025747Y008645D01*
X025650Y008548D02*
X025516Y008548D01*
X025516Y008451D02*
X025553Y008451D01*
X024954Y007482D02*
X030327Y007482D01*
X030327Y007385D02*
X028606Y007385D01*
X028703Y007288D02*
X030327Y007288D01*
X030327Y007191D02*
X028766Y007191D01*
X028806Y007094D02*
X030327Y007094D01*
X030327Y006997D02*
X028820Y006997D01*
X028820Y006900D02*
X030327Y006900D01*
X030327Y006803D02*
X028798Y006803D01*
X028758Y006706D02*
X030327Y006706D01*
X030327Y006609D02*
X028685Y006609D01*
X028577Y006512D02*
X030327Y006512D01*
X030327Y006415D02*
X029547Y006415D01*
X029673Y006318D02*
X030327Y006318D01*
X030327Y006221D02*
X029753Y006221D01*
X029793Y006124D02*
X030327Y006124D01*
X030327Y006027D02*
X029820Y006027D01*
X029820Y005930D02*
X030327Y005930D01*
X030327Y005833D02*
X029811Y005833D01*
X029771Y005736D02*
X030327Y005736D01*
X030327Y005639D02*
X029715Y005639D01*
X029618Y005542D02*
X030327Y005542D01*
X030327Y005445D02*
X029474Y005445D01*
X029642Y005348D02*
X030327Y005348D01*
X030327Y005251D02*
X029739Y005251D01*
X029781Y005154D02*
X030327Y005154D01*
X030327Y005057D02*
X029820Y005057D01*
X029820Y004960D02*
X030327Y004960D01*
X030327Y004863D02*
X029820Y004863D01*
X029783Y004766D02*
X030327Y004766D01*
X030327Y004670D02*
X029743Y004670D01*
X029649Y004573D02*
X030327Y004573D01*
X030327Y004476D02*
X029489Y004476D01*
X029612Y004379D02*
X030327Y004379D01*
X030327Y004282D02*
X029709Y004282D01*
X029806Y004185D02*
X030327Y004185D01*
X030327Y004088D02*
X029820Y004088D01*
X029820Y003991D02*
X030327Y003991D01*
X030327Y003894D02*
X029820Y003894D01*
X029820Y003797D02*
X030327Y003797D01*
X030327Y003700D02*
X029776Y003700D01*
X029679Y003603D02*
X030327Y003603D01*
X030327Y003506D02*
X029582Y003506D01*
X029026Y003506D02*
X028562Y003506D01*
X028679Y003603D02*
X028929Y003603D01*
X028832Y003700D02*
X028756Y003700D01*
X028046Y003506D02*
X027539Y003506D01*
X027636Y003603D02*
X027929Y003603D01*
X027852Y003700D02*
X027685Y003700D01*
X027723Y003797D02*
X027812Y003797D01*
X027788Y003894D02*
X027723Y003894D01*
X027716Y003991D02*
X027788Y003991D01*
X027800Y004088D02*
X027676Y004088D01*
X027613Y004185D02*
X027840Y004185D01*
X027899Y004282D02*
X027510Y004282D01*
X027996Y004379D02*
X026913Y004379D01*
X026913Y004476D02*
X028119Y004476D01*
X027959Y004573D02*
X026913Y004573D01*
X026913Y004670D02*
X027865Y004670D01*
X027825Y004766D02*
X026913Y004766D01*
X026913Y004863D02*
X027788Y004863D01*
X027788Y004960D02*
X026913Y004960D01*
X026913Y005057D02*
X027788Y005057D01*
X027827Y005154D02*
X027002Y005154D01*
X027099Y005251D02*
X027869Y005251D01*
X027966Y005348D02*
X027196Y005348D01*
X027293Y005445D02*
X028135Y005445D01*
X027990Y005542D02*
X027390Y005542D01*
X027487Y005639D02*
X027893Y005639D01*
X027837Y005736D02*
X027584Y005736D01*
X027681Y005833D02*
X027797Y005833D01*
X027788Y005930D02*
X027777Y005930D01*
X028547Y006415D02*
X029061Y006415D01*
X028935Y006318D02*
X028673Y006318D01*
X028753Y006221D02*
X028855Y006221D01*
X028815Y006124D02*
X028793Y006124D01*
X027940Y007385D02*
X025051Y007385D01*
X025148Y007288D02*
X027803Y007288D01*
X027706Y007191D02*
X025245Y007191D01*
X025342Y007094D02*
X027609Y007094D01*
X027512Y006997D02*
X025439Y006997D01*
X025536Y006900D02*
X027415Y006900D01*
X027318Y006803D02*
X025633Y006803D01*
X025730Y006706D02*
X027221Y006706D01*
X027124Y006609D02*
X025827Y006609D01*
X025885Y006512D02*
X027027Y006512D01*
X026930Y006415D02*
X025895Y006415D01*
X025895Y006318D02*
X026833Y006318D01*
X026736Y006221D02*
X025895Y006221D01*
X025895Y006124D02*
X026639Y006124D01*
X026543Y006027D02*
X025895Y006027D01*
X025895Y005930D02*
X026446Y005930D01*
X026349Y005833D02*
X025895Y005833D01*
X025895Y005736D02*
X026252Y005736D01*
X026155Y005639D02*
X025895Y005639D01*
X025895Y005542D02*
X026058Y005542D01*
X026009Y005445D02*
X025895Y005445D01*
X025948Y005348D02*
X025971Y005348D01*
X026913Y004282D02*
X027003Y004282D01*
X026975Y003506D02*
X026913Y003506D01*
X026913Y003409D02*
X030327Y003409D01*
X030327Y003312D02*
X026913Y003312D01*
X026913Y003215D02*
X030327Y003215D01*
X030327Y003118D02*
X026913Y003118D01*
X026913Y003021D02*
X030327Y003021D01*
X030327Y002924D02*
X026913Y002924D01*
X026913Y002827D02*
X030327Y002827D01*
X030327Y002730D02*
X026913Y002730D01*
X026913Y002633D02*
X030327Y002633D01*
X030327Y002536D02*
X026913Y002536D01*
X026913Y002439D02*
X030327Y002439D01*
X030327Y002342D02*
X026913Y002342D01*
X026913Y002245D02*
X030327Y002245D01*
X030327Y002148D02*
X026886Y002148D01*
X026845Y002051D02*
X030327Y002051D01*
X030327Y001954D02*
X026755Y001954D01*
X026658Y001857D02*
X030327Y001857D01*
X030327Y001760D02*
X026561Y001760D01*
X026464Y001664D02*
X030327Y001664D01*
X029336Y009359D02*
X029179Y009359D01*
X028714Y009823D01*
X029294Y009823D01*
X029294Y009591D01*
X029340Y009545D01*
X029336Y009532D01*
X029336Y009434D01*
X029662Y009434D01*
X029662Y009433D01*
X029336Y009433D01*
X029336Y009359D01*
X029336Y009421D02*
X029117Y009421D01*
X029020Y009518D02*
X029336Y009518D01*
X029294Y009615D02*
X028923Y009615D01*
X028826Y009712D02*
X029294Y009712D01*
X029294Y009809D02*
X028729Y009809D01*
X028135Y010064D02*
X029662Y010064D01*
X028135Y010064D02*
X026836Y011363D01*
X025190Y013528D02*
X024473Y013528D01*
X024080Y013134D01*
X023292Y013134D01*
X022491Y013203D02*
X015215Y013203D01*
X015215Y013106D02*
X015625Y013106D01*
X015502Y013009D02*
X015215Y013009D01*
X014828Y012938D02*
X013450Y012938D01*
X012938Y012426D01*
X011925Y012426D01*
X011925Y012741D02*
X012859Y012741D01*
X013253Y013134D01*
X014828Y013134D01*
X014828Y012741D02*
X015812Y012741D01*
X016184Y012912D02*
X017212Y012912D01*
X017175Y012815D02*
X016221Y012815D01*
X016221Y012718D02*
X017175Y012718D01*
X017124Y012621D02*
X016205Y012621D01*
X016165Y012524D02*
X017027Y012524D01*
X016930Y012427D02*
X016076Y012427D01*
X016445Y011942D02*
X015215Y011942D01*
X015215Y011845D02*
X016348Y011845D01*
X016251Y011748D02*
X015215Y011748D01*
X015215Y011651D02*
X016181Y011651D01*
X016162Y011554D02*
X015142Y011554D01*
X015393Y011263D02*
X014674Y011263D01*
X014674Y011166D02*
X015375Y011166D01*
X015375Y011069D02*
X014654Y011069D01*
X014580Y010972D02*
X015375Y010972D01*
X015375Y010876D02*
X014483Y010876D01*
X014386Y010779D02*
X014888Y010779D01*
X014791Y010682D02*
X014289Y010682D01*
X014192Y010585D02*
X014694Y010585D01*
X014597Y010488D02*
X014095Y010488D01*
X013647Y011166D02*
X014040Y011560D01*
X014040Y011953D01*
X014237Y012150D01*
X014828Y012150D01*
X014828Y012347D02*
X014040Y012347D01*
X013843Y012150D01*
X013843Y011757D01*
X013568Y011481D01*
X011925Y011481D01*
X011925Y011796D02*
X013292Y011796D01*
X013450Y011953D01*
X013608Y012330D02*
X013684Y012330D01*
X013662Y012308D02*
X013531Y012362D01*
X013368Y012362D01*
X013218Y012300D01*
X013103Y012185D01*
X013042Y012036D01*
X012310Y012036D01*
X012310Y012111D01*
X012310Y012186D01*
X012890Y012186D01*
X012986Y012186D01*
X013074Y012222D01*
X013549Y012697D01*
X014440Y012697D01*
X014440Y012612D01*
X014465Y012587D01*
X013993Y012587D01*
X013904Y012551D01*
X013837Y012483D01*
X013662Y012308D01*
X013781Y012427D02*
X013279Y012427D01*
X013291Y012330D02*
X013182Y012330D01*
X013151Y012233D02*
X013085Y012233D01*
X013083Y012136D02*
X012310Y012136D01*
X012310Y012111D02*
X011925Y012111D01*
X013017Y012111D01*
X013450Y012544D01*
X014828Y012544D01*
X015221Y012544D01*
X015418Y012347D01*
X015548Y012427D02*
X015215Y012427D01*
X015215Y012330D02*
X016833Y012330D01*
X016736Y012233D02*
X015215Y012233D01*
X015215Y012136D02*
X016639Y012136D01*
X016542Y012039D02*
X015215Y012039D01*
X014674Y011457D02*
X016162Y011457D01*
X016162Y011360D02*
X014674Y011360D01*
X015418Y010182D02*
X015812Y010182D01*
X016009Y010379D01*
X016009Y010969D01*
X016206Y010969D02*
X016206Y010182D01*
X016009Y009985D01*
X015615Y009985D01*
X014906Y009276D01*
X011925Y009276D01*
X011757Y009276D01*
X011757Y009277D02*
X011726Y009275D01*
X011696Y009270D01*
X011666Y009262D01*
X011637Y009250D01*
X011610Y009235D01*
X011585Y009217D01*
X011562Y009196D01*
X011541Y009173D01*
X011523Y009148D01*
X011508Y009121D01*
X011496Y009092D01*
X011488Y009062D01*
X011483Y009032D01*
X011481Y009001D01*
X011481Y007623D01*
X010300Y006442D01*
X005379Y006442D01*
X003969Y007851D01*
X003548Y007851D01*
X003188Y007482D02*
X002908Y007482D01*
X002994Y007579D02*
X003091Y007579D01*
X003285Y007385D02*
X002770Y007385D01*
X002326Y007385D02*
X001297Y007385D01*
X001297Y007288D02*
X004193Y007288D01*
X004096Y007385D02*
X003811Y007385D01*
X003908Y007482D02*
X003999Y007482D01*
X004290Y007191D02*
X001297Y007191D01*
X001297Y007094D02*
X004387Y007094D01*
X004484Y006997D02*
X001297Y006997D01*
X001297Y006900D02*
X004581Y006900D01*
X004678Y006803D02*
X001297Y006803D01*
X001297Y006706D02*
X004775Y006706D01*
X004872Y006609D02*
X001297Y006609D01*
X001297Y006512D02*
X004969Y006512D01*
X005066Y006415D02*
X001297Y006415D01*
X001297Y006318D02*
X005071Y006318D01*
X005008Y006221D02*
X001297Y006221D01*
X001297Y006124D02*
X004970Y006124D01*
X005576Y006638D02*
X010103Y006638D01*
X011284Y007820D01*
X011284Y009197D01*
X011678Y009591D01*
X011925Y009591D01*
X014828Y009591D01*
X015418Y010182D01*
X015812Y009788D02*
X015025Y009001D01*
X012859Y009001D01*
X012662Y008804D01*
X012662Y008410D01*
X012859Y008213D01*
X015812Y008213D01*
X016403Y007623D01*
X016162Y007482D02*
X015325Y007482D01*
X015280Y007500D02*
X015094Y007500D01*
X014922Y007429D01*
X014790Y007297D01*
X014719Y007125D01*
X014719Y006939D01*
X014790Y006767D01*
X014922Y006635D01*
X015094Y006564D01*
X015280Y006564D01*
X015452Y006635D01*
X015584Y006767D01*
X015655Y006939D01*
X015655Y007125D01*
X015584Y007297D01*
X015452Y007429D01*
X015280Y007500D01*
X015049Y007482D02*
X013425Y007482D01*
X013380Y007500D02*
X013552Y007429D01*
X013684Y007297D01*
X013755Y007125D01*
X013755Y006939D01*
X013684Y006767D01*
X013552Y006635D01*
X013380Y006564D01*
X013194Y006564D01*
X013022Y006635D01*
X012890Y006767D01*
X012819Y006939D01*
X012819Y007125D01*
X012890Y007297D01*
X013022Y007429D01*
X013194Y007500D01*
X013380Y007500D01*
X013149Y007482D02*
X011680Y007482D01*
X011721Y007579D02*
X016107Y007579D01*
X016010Y007676D02*
X011721Y007676D01*
X011721Y007773D02*
X015913Y007773D01*
X015816Y007869D02*
X011721Y007869D01*
X011721Y007966D02*
X015719Y007966D01*
X015497Y007385D02*
X016162Y007385D01*
X016162Y007288D02*
X015588Y007288D01*
X015628Y007191D02*
X016162Y007191D01*
X016162Y007094D02*
X015655Y007094D01*
X015655Y006997D02*
X016162Y006997D01*
X016197Y006900D02*
X015639Y006900D01*
X015599Y006803D02*
X016292Y006803D01*
X016389Y006706D02*
X015523Y006706D01*
X015389Y006609D02*
X016486Y006609D01*
X016583Y006512D02*
X010710Y006512D01*
X010613Y006415D02*
X016680Y006415D01*
X016777Y006318D02*
X010516Y006318D01*
X010395Y006221D02*
X016781Y006221D01*
X016797Y006124D02*
X011459Y006124D01*
X011806Y006027D02*
X011904Y006027D01*
X011904Y005930D02*
X011806Y005930D01*
X011806Y005833D02*
X011904Y005833D01*
X011904Y005736D02*
X011806Y005736D01*
X011806Y005605D02*
X011904Y005605D01*
X011904Y005210D01*
X012127Y005210D01*
X012127Y004430D01*
X011946Y004505D01*
X011741Y004505D01*
X011551Y004426D01*
X011406Y004281D01*
X011328Y004091D01*
X011328Y003886D01*
X011406Y003697D01*
X011551Y003552D01*
X011741Y003473D01*
X011946Y003473D01*
X012127Y003548D01*
X012127Y003343D01*
X012164Y003254D01*
X012231Y003187D01*
X012328Y003090D01*
X012328Y002886D01*
X012406Y002697D01*
X012551Y002552D01*
X012741Y002473D01*
X012946Y002473D01*
X013136Y002552D01*
X013281Y002697D01*
X013343Y002848D01*
X013406Y002697D01*
X013551Y002552D01*
X013741Y002473D01*
X013946Y002473D01*
X014136Y002552D01*
X014281Y002697D01*
X014343Y002848D01*
X014373Y002778D01*
X014373Y002385D01*
X011310Y002385D01*
X011045Y002650D01*
X011045Y003934D01*
X011385Y004274D01*
X011438Y004403D01*
X011438Y004543D01*
X011438Y004646D01*
X011496Y004785D01*
X011496Y004948D01*
X011458Y005040D01*
X011458Y005184D01*
X011512Y005237D01*
X011542Y005220D01*
X011580Y005210D01*
X011806Y005210D01*
X011806Y005605D01*
X011806Y005542D02*
X011904Y005542D01*
X011904Y005445D02*
X011806Y005445D01*
X011806Y005348D02*
X011904Y005348D01*
X011904Y005251D02*
X011806Y005251D01*
X012127Y005154D02*
X011458Y005154D01*
X011458Y005057D02*
X012127Y005057D01*
X012127Y004960D02*
X011491Y004960D01*
X011496Y004863D02*
X012127Y004863D01*
X012127Y004766D02*
X011488Y004766D01*
X011448Y004670D02*
X012127Y004670D01*
X012127Y004573D02*
X011438Y004573D01*
X011438Y004476D02*
X011671Y004476D01*
X011504Y004379D02*
X011428Y004379D01*
X011407Y004282D02*
X011388Y004282D01*
X011366Y004185D02*
X011295Y004185D01*
X011328Y004088D02*
X011199Y004088D01*
X011102Y003991D02*
X011328Y003991D01*
X011328Y003894D02*
X011045Y003894D01*
X011045Y003797D02*
X011365Y003797D01*
X011405Y003700D02*
X011045Y003700D01*
X011045Y003603D02*
X011500Y003603D01*
X011662Y003506D02*
X011045Y003506D01*
X011045Y003409D02*
X012127Y003409D01*
X012127Y003506D02*
X012025Y003506D01*
X012140Y003312D02*
X011045Y003312D01*
X011045Y003215D02*
X012203Y003215D01*
X012300Y003118D02*
X011045Y003118D01*
X011045Y003021D02*
X012328Y003021D01*
X012328Y002924D02*
X011045Y002924D01*
X011045Y002827D02*
X012352Y002827D01*
X012392Y002730D02*
X011045Y002730D01*
X011061Y002633D02*
X012470Y002633D01*
X012588Y002536D02*
X011158Y002536D01*
X011255Y002439D02*
X014373Y002439D01*
X014373Y002536D02*
X014099Y002536D01*
X014217Y002633D02*
X014373Y002633D01*
X014373Y002730D02*
X014295Y002730D01*
X014335Y002827D02*
X014352Y002827D01*
X013843Y002989D02*
X013753Y002989D01*
X013351Y003390D01*
X013351Y005359D01*
X013253Y005457D01*
X013092Y005833D02*
X012626Y005833D01*
X012765Y005736D02*
X012954Y005736D01*
X012886Y005639D02*
X012833Y005639D01*
X012466Y005457D02*
X012367Y005359D01*
X012367Y003390D01*
X012769Y002989D01*
X012843Y002989D01*
X013217Y002633D02*
X013470Y002633D01*
X013392Y002730D02*
X013295Y002730D01*
X013335Y002827D02*
X013352Y002827D01*
X013588Y002536D02*
X013099Y002536D01*
X014321Y004185D02*
X014366Y004185D01*
X014407Y004282D02*
X014280Y004282D01*
X014183Y004379D02*
X014504Y004379D01*
X014671Y004476D02*
X014016Y004476D01*
X013671Y004476D02*
X013591Y004476D01*
X012305Y005833D02*
X012260Y005833D01*
X012260Y005930D02*
X016926Y005930D01*
X016838Y006027D02*
X012239Y006027D01*
X012951Y006706D02*
X010904Y006706D01*
X011001Y006803D02*
X012875Y006803D01*
X012835Y006900D02*
X011098Y006900D01*
X011195Y006997D02*
X012819Y006997D01*
X012819Y007094D02*
X011292Y007094D01*
X011389Y007191D02*
X012846Y007191D01*
X012886Y007288D02*
X011486Y007288D01*
X011583Y007385D02*
X012978Y007385D01*
X013597Y007385D02*
X014878Y007385D01*
X014786Y007288D02*
X013688Y007288D01*
X013728Y007191D02*
X014746Y007191D01*
X014719Y007094D02*
X013755Y007094D01*
X013755Y006997D02*
X014719Y006997D01*
X014735Y006900D02*
X013739Y006900D01*
X013699Y006803D02*
X014775Y006803D01*
X014851Y006706D02*
X013623Y006706D01*
X013489Y006609D02*
X014986Y006609D01*
X015221Y008607D02*
X013056Y008607D01*
X012572Y008160D02*
X011721Y008160D01*
X011721Y008063D02*
X012669Y008063D01*
X012656Y008077D02*
X012656Y008077D01*
X012526Y008206D02*
X012526Y008206D01*
X012475Y008257D02*
X011721Y008257D01*
X011721Y008354D02*
X012425Y008354D01*
X012422Y008451D02*
X012335Y008451D01*
X012352Y008548D02*
X012422Y008548D01*
X012422Y008645D02*
X012352Y008645D01*
X012352Y008742D02*
X012422Y008742D01*
X012422Y008839D02*
X012352Y008839D01*
X012352Y008936D02*
X012457Y008936D01*
X012552Y009033D02*
X012352Y009033D01*
X011925Y011166D02*
X013647Y011166D01*
X013043Y012039D02*
X012310Y012039D01*
X012310Y012111D02*
X011925Y012111D01*
X011925Y012111D01*
X011925Y013056D02*
X011925Y013056D01*
X012584Y013056D01*
X012662Y013134D01*
X012788Y013009D02*
X012310Y013009D01*
X012310Y012981D02*
X012310Y013056D01*
X012310Y013091D01*
X012316Y013091D01*
X012405Y013128D01*
X012565Y013288D01*
X013067Y013288D01*
X013049Y013271D01*
X012760Y012981D01*
X012310Y012981D01*
X012310Y013056D02*
X011925Y013056D01*
X012310Y013056D01*
X012352Y013106D02*
X012885Y013106D01*
X012982Y013203D02*
X012480Y013203D01*
X013376Y012524D02*
X013878Y012524D01*
X013473Y012621D02*
X014440Y012621D01*
X015418Y014119D02*
X016206Y014119D01*
X016403Y014316D01*
X016144Y014463D02*
X018082Y014463D01*
X018082Y014366D02*
X016047Y014366D01*
X016193Y014560D02*
X018082Y014560D01*
X018082Y014657D02*
X016221Y014657D01*
X016221Y014754D02*
X018082Y014754D01*
X018082Y014851D02*
X016196Y014851D01*
X016151Y014948D02*
X018082Y014948D01*
X018082Y015045D02*
X016054Y015045D01*
X015812Y014709D02*
X015615Y014512D01*
X014828Y014512D01*
X014828Y014316D02*
X013253Y014316D01*
X013056Y014316D01*
X012662Y014709D01*
X012771Y014851D02*
X012352Y014851D01*
X012352Y014768D02*
X012352Y014556D01*
X012418Y014556D01*
X012513Y014556D01*
X012602Y014519D01*
X012762Y014359D01*
X014465Y014359D01*
X014440Y014384D01*
X014440Y014469D01*
X013301Y014469D01*
X013205Y014469D01*
X013117Y014506D01*
X012352Y015270D01*
X012352Y015083D01*
X012352Y014768D01*
X012352Y014754D02*
X012868Y014754D01*
X012965Y014657D02*
X012352Y014657D01*
X012352Y014560D02*
X013062Y014560D01*
X012754Y014366D02*
X014458Y014366D01*
X014440Y014463D02*
X012657Y014463D01*
X012674Y014948D02*
X012352Y014948D01*
X012352Y015045D02*
X012577Y015045D01*
X012480Y015142D02*
X012352Y015142D01*
X012352Y015239D02*
X012383Y015239D01*
X012662Y016087D02*
X011284Y016087D01*
X010300Y015103D01*
X010300Y012544D01*
X009119Y011363D01*
X009119Y010772D01*
X008253Y009906D01*
X007494Y009906D01*
X006639Y009906D01*
X005969Y010575D01*
X006717Y010221D02*
X007494Y010221D01*
X008174Y010221D01*
X008922Y010969D01*
X008922Y011560D01*
X010103Y012741D01*
X010103Y015300D01*
X011088Y016284D01*
X012859Y016284D01*
X013843Y015300D01*
X014828Y015300D01*
X014828Y015103D02*
X013647Y015103D01*
X012662Y016087D01*
X013647Y017071D02*
X010300Y017071D01*
X009316Y016087D01*
X009316Y013528D01*
X008135Y012347D01*
X008135Y011953D01*
X008135Y011757D01*
X007859Y011481D01*
X007662Y011481D01*
X007494Y011481D01*
X007494Y011796D02*
X007109Y011796D01*
X007067Y011651D02*
X006603Y011651D01*
X007494Y011796D02*
X007494Y011796D01*
X007494Y012426D02*
X007820Y012426D01*
X009119Y013725D01*
X009119Y016284D01*
X009710Y020812D02*
X013843Y020812D01*
X014237Y020418D01*
X015615Y020418D01*
X016009Y020024D01*
X016009Y019434D01*
X016206Y019434D02*
X016206Y020221D01*
X015812Y020615D01*
X014434Y020615D01*
X014040Y021009D01*
X009906Y021009D01*
X009316Y021599D01*
X009316Y023961D01*
X009608Y023675D02*
X012612Y023675D01*
X012612Y023772D02*
X009680Y023772D01*
X009720Y023869D02*
X012613Y023869D01*
X012604Y023966D02*
X009725Y023966D01*
X009716Y024063D02*
X012570Y024063D01*
X012570Y024160D02*
X009676Y024160D01*
X009598Y024257D02*
X012570Y024257D01*
X012570Y024354D02*
X009435Y024354D01*
X009556Y023578D02*
X013007Y023578D01*
X013007Y023481D02*
X013105Y023481D01*
X013105Y023384D02*
X013007Y023384D01*
X013007Y023287D02*
X013105Y023287D01*
X013105Y023191D02*
X013007Y023191D01*
X012710Y023191D02*
X009556Y023191D01*
X009556Y023287D02*
X012618Y023287D01*
X012612Y023384D02*
X009556Y023384D01*
X009556Y023481D02*
X012612Y023481D01*
X013402Y023191D02*
X013419Y023191D01*
X013573Y023094D02*
X009556Y023094D01*
X009556Y022997D02*
X013573Y022997D01*
X013573Y022900D02*
X009556Y022900D01*
X009556Y022803D02*
X013573Y022803D01*
X013573Y022706D02*
X009556Y022706D01*
X009556Y022609D02*
X013573Y022609D01*
X013573Y022512D02*
X009556Y022512D01*
X009556Y022415D02*
X013573Y022415D01*
X013573Y022318D02*
X009556Y022318D01*
X009556Y022221D02*
X013573Y022221D01*
X013573Y022124D02*
X009556Y022124D01*
X009556Y022027D02*
X010181Y022027D01*
X010007Y021930D02*
X009556Y021930D01*
X009556Y021833D02*
X009920Y021833D01*
X009880Y021736D02*
X009556Y021736D01*
X009616Y021639D02*
X009859Y021639D01*
X009859Y021542D02*
X009712Y021542D01*
X009809Y021445D02*
X009887Y021445D01*
X009906Y021348D02*
X009927Y021348D01*
X010003Y021251D02*
X010024Y021251D01*
X013604Y020475D02*
X013840Y020475D01*
X013937Y020378D02*
X013682Y020378D01*
X013733Y020281D02*
X014034Y020281D01*
X014173Y020184D02*
X013766Y020184D01*
X013783Y020088D02*
X014313Y020088D01*
X014222Y019894D02*
X013774Y019894D01*
X013745Y019797D02*
X014222Y019797D01*
X014241Y019700D02*
X013699Y019700D01*
X013632Y019603D02*
X014281Y019603D01*
X014374Y019506D02*
X013527Y019506D01*
X013647Y017071D02*
X014237Y016481D01*
X014828Y016481D01*
X015215Y016500D02*
X021168Y016500D01*
X021127Y016403D02*
X015215Y016403D01*
X015221Y015890D02*
X014828Y015890D01*
X015221Y015890D02*
X015234Y015829D01*
X015215Y015821D02*
X015403Y015821D01*
X015438Y015724D02*
X015215Y015724D01*
X015215Y015627D02*
X015497Y015627D01*
X015614Y015530D02*
X015215Y015530D01*
X015215Y015433D02*
X018082Y015433D01*
X018082Y015336D02*
X015215Y015336D01*
X015215Y015239D02*
X018082Y015239D01*
X018082Y015142D02*
X015215Y015142D01*
X015215Y015045D02*
X015570Y015045D01*
X015473Y014948D02*
X015215Y014948D01*
X015215Y014851D02*
X015428Y014851D01*
X015403Y014754D02*
X015215Y014754D01*
X015221Y014316D02*
X014828Y014316D01*
X015193Y014269D02*
X018147Y014269D01*
X018082Y015530D02*
X016010Y015530D01*
X015221Y014316D02*
X015418Y014119D01*
X015999Y013106D02*
X017397Y013106D01*
X017274Y013009D02*
X016122Y013009D01*
X017125Y011942D02*
X018356Y011942D01*
X018358Y012039D02*
X017222Y012039D01*
X017319Y012136D02*
X018398Y012136D01*
X018466Y012233D02*
X017416Y012233D01*
X017512Y012330D02*
X018606Y012330D01*
X018765Y011953D02*
X018765Y010969D01*
X018962Y010969D02*
X018962Y010575D01*
X019158Y010379D01*
X019158Y008410D01*
X018962Y008213D01*
X018962Y008016D01*
X018568Y007820D02*
X018568Y008410D01*
X018962Y008804D01*
X018962Y010182D01*
X018568Y010575D01*
X018568Y010969D01*
X018371Y010969D02*
X018371Y010379D01*
X018765Y009985D01*
X018765Y009394D01*
X018568Y009197D01*
X018371Y009001D01*
X018371Y007820D01*
X018371Y007426D01*
X018568Y007820D02*
X018962Y007426D01*
X019158Y007426D01*
X019552Y007426D01*
X020244Y008451D02*
X020516Y008451D01*
X020411Y008548D02*
X020147Y008548D01*
X020156Y008645D02*
X020356Y008645D01*
X020324Y008742D02*
X020265Y008742D01*
X020321Y008839D02*
X020324Y008839D01*
X020733Y008804D02*
X021127Y009197D01*
X021127Y010182D01*
X020930Y010379D01*
X020930Y010969D01*
X020340Y010969D02*
X020340Y010379D01*
X020733Y009985D01*
X020733Y009394D01*
X020340Y009394D02*
X019946Y009001D01*
X020340Y009394D02*
X020340Y009985D01*
X020143Y010182D01*
X020143Y010969D01*
X019946Y010969D02*
X019946Y009788D01*
X019946Y009591D01*
X021142Y008839D02*
X021736Y008839D01*
X021639Y008936D02*
X021205Y008936D01*
X021302Y009033D02*
X021542Y009033D01*
X021445Y009130D02*
X021359Y009130D01*
X021142Y008742D02*
X021833Y008742D01*
X021930Y008645D02*
X021110Y008645D01*
X021056Y008548D02*
X022027Y008548D01*
X022124Y008451D02*
X020950Y008451D01*
X022544Y006318D02*
X022658Y006318D01*
X022658Y006221D02*
X022605Y006221D01*
X022605Y006124D02*
X022658Y006124D01*
X022658Y006027D02*
X022605Y006027D01*
X022605Y005930D02*
X022658Y005930D01*
X022658Y005833D02*
X022605Y005833D01*
X022605Y005736D02*
X022658Y005736D01*
X022658Y005639D02*
X022605Y005639D01*
X022605Y005542D02*
X022658Y005542D01*
X021521Y004079D02*
X021521Y004060D01*
X021521Y003312D02*
X021521Y003292D01*
X022007Y003215D02*
X022019Y003215D01*
X022007Y003118D02*
X022019Y003118D01*
X022007Y003021D02*
X022019Y003021D01*
X022032Y002924D02*
X021954Y002924D01*
X021911Y002827D02*
X022019Y002827D01*
X022019Y002730D02*
X021929Y002730D01*
X021929Y002633D02*
X022019Y002633D01*
X022019Y002536D02*
X021895Y002536D01*
X021836Y002439D02*
X022019Y002439D01*
X017387Y007229D02*
X017387Y007623D01*
X017780Y008016D01*
X017977Y008016D01*
X018174Y008213D01*
X018174Y009197D01*
X017977Y009394D01*
X017977Y010969D01*
X018174Y010969D02*
X018174Y009985D01*
X018371Y009788D01*
X017190Y009394D02*
X016993Y009197D01*
X017190Y009394D02*
X017190Y010969D01*
X017387Y010969D02*
X017387Y009001D01*
X016993Y009788D02*
X016599Y009394D01*
X016009Y008804D01*
X016009Y009394D02*
X015418Y008804D01*
X015221Y008607D01*
X016009Y009394D02*
X016206Y009394D01*
X016796Y009985D01*
X016796Y010969D01*
X016599Y010969D02*
X016599Y010575D01*
X016599Y010182D01*
X016206Y009788D01*
X015812Y009788D01*
X016993Y009788D02*
X016993Y010969D01*
X016643Y011360D02*
X018525Y011360D01*
X018525Y011457D02*
X016643Y011457D01*
X016737Y011554D02*
X018525Y011554D01*
X018489Y011651D02*
X016834Y011651D01*
X016931Y011748D02*
X018407Y011748D01*
X018367Y011845D02*
X017028Y011845D01*
X016403Y011560D02*
X017584Y012741D01*
X017955Y012912D02*
X019968Y012912D01*
X019931Y012815D02*
X017992Y012815D01*
X017992Y012718D02*
X019931Y012718D01*
X019947Y012621D02*
X017976Y012621D01*
X017936Y012524D02*
X019987Y012524D01*
X020075Y012427D02*
X017848Y012427D01*
X017894Y013009D02*
X020030Y013009D01*
X020153Y013106D02*
X017770Y013106D01*
X016403Y011560D02*
X016403Y010969D01*
X019552Y011289D02*
X019552Y011315D01*
X019552Y011289D01*
X019552Y011288D01*
X019552Y011289D01*
X021521Y016284D02*
X022505Y016284D01*
X022702Y016481D01*
X023292Y016481D01*
X023292Y016678D02*
X022505Y016678D01*
X022308Y016875D01*
X022008Y016597D02*
X021786Y016597D01*
X021941Y016694D02*
X016111Y016694D01*
X016179Y016791D02*
X021900Y016791D01*
X021255Y016597D02*
X015971Y016597D01*
X015812Y016973D02*
X015714Y017071D01*
X014828Y017071D01*
X016403Y017465D02*
X016599Y017268D01*
X018112Y017275D02*
X020795Y017275D01*
X020802Y018051D02*
X018674Y018051D01*
X018845Y018148D02*
X020653Y018148D01*
X020572Y018245D02*
X018926Y018245D01*
X018966Y018342D02*
X020532Y018342D01*
X020521Y018439D02*
X018977Y018439D01*
X018974Y018536D02*
X020524Y018536D01*
X020564Y018633D02*
X018934Y018633D01*
X018865Y018730D02*
X020633Y018730D01*
X020690Y018827D02*
X018808Y018827D01*
X018808Y018924D02*
X020690Y018924D01*
X020690Y019021D02*
X018808Y019021D01*
X018765Y019434D02*
X018765Y020024D01*
X018174Y020615D01*
X017977Y020615D01*
X018174Y020024D02*
X017977Y019827D01*
X017977Y019434D01*
X018568Y019434D02*
X018568Y018449D01*
X018962Y019434D02*
X018962Y020418D01*
X018765Y020615D01*
X019158Y021009D02*
X018962Y021205D01*
X019158Y021009D02*
X019158Y019434D01*
X019355Y019434D02*
X019355Y021402D01*
X019355Y022294D01*
X019298Y022351D01*
X019798Y022101D02*
X019798Y021255D01*
X019749Y021205D01*
X019552Y021009D01*
X019552Y019434D01*
X019749Y019434D02*
X019749Y020615D01*
X020143Y021009D01*
X020143Y021599D01*
X020298Y021755D01*
X020298Y022351D01*
X020798Y022101D02*
X020798Y021861D01*
X020340Y021402D01*
X020340Y020812D01*
X019946Y020418D01*
X019946Y019434D01*
X020143Y019434D02*
X020143Y020221D01*
X020536Y020615D01*
X020536Y021205D01*
X021298Y021967D01*
X021298Y022351D01*
X021798Y022101D02*
X021798Y022073D01*
X020733Y021009D01*
X020733Y020418D01*
X020340Y020024D01*
X020340Y019434D01*
X020536Y019434D02*
X020536Y019827D01*
X020930Y020221D01*
X020930Y020812D01*
X022298Y022180D01*
X022298Y022351D01*
X021798Y022101D02*
X021798Y022851D01*
X021298Y023351D01*
X021762Y023578D02*
X021834Y023578D01*
X021893Y023675D02*
X021703Y023675D01*
X021606Y023772D02*
X021990Y023772D01*
X022298Y023351D02*
X022798Y022851D01*
X022798Y021892D01*
X022505Y021599D01*
X022111Y021599D01*
X021139Y020627D01*
X021127Y020627D01*
X021127Y019434D01*
X021324Y019434D02*
X021324Y020418D01*
X022308Y021402D01*
X023489Y021402D01*
X023798Y021711D01*
X023798Y024440D01*
X023686Y024552D01*
X023666Y024571D01*
X023277Y024548D02*
X019502Y024548D01*
X019599Y024451D02*
X023285Y024451D01*
X023325Y024354D02*
X019696Y024354D01*
X019793Y024257D02*
X023403Y024257D01*
X023558Y024160D02*
X019890Y024160D01*
X019987Y024063D02*
X023558Y024063D01*
X023558Y023966D02*
X020036Y023966D01*
X020038Y023869D02*
X023558Y023869D01*
X022990Y023772D02*
X022606Y023772D01*
X022703Y023675D02*
X022893Y023675D01*
X022834Y023578D02*
X022762Y023578D01*
X023282Y024645D02*
X014330Y024645D01*
X013863Y024355D02*
X013843Y024335D01*
X013863Y024355D02*
X019355Y024355D01*
X019798Y023912D01*
X019798Y022851D01*
X019798Y022101D01*
X020798Y022101D02*
X020798Y022851D01*
X020298Y023351D01*
X020762Y023578D02*
X020834Y023578D01*
X020893Y023675D02*
X020703Y023675D01*
X020606Y023772D02*
X020990Y023772D01*
X019501Y023869D02*
X014330Y023869D01*
X014330Y023772D02*
X015990Y023772D01*
X015893Y023675D02*
X014330Y023675D01*
X014330Y023578D02*
X015834Y023578D01*
X015794Y023481D02*
X014330Y023481D01*
X014330Y023384D02*
X015782Y023384D01*
X015782Y023287D02*
X014330Y023287D01*
X014268Y023191D02*
X015798Y023191D01*
X015701Y023094D02*
X014114Y023094D01*
X014114Y022997D02*
X015604Y022997D01*
X015558Y022900D02*
X014114Y022900D01*
X014114Y022803D02*
X015558Y022803D01*
X015558Y022706D02*
X014114Y022706D01*
X014114Y022609D02*
X015558Y022609D01*
X015558Y022512D02*
X014114Y022512D01*
X014114Y022415D02*
X015558Y022415D01*
X015558Y022318D02*
X014114Y022318D01*
X014114Y022221D02*
X015558Y022221D01*
X015558Y022124D02*
X014114Y022124D01*
X014356Y022027D02*
X015558Y022027D01*
X015570Y021930D02*
X014530Y021930D01*
X014627Y021833D02*
X015632Y021833D01*
X015729Y021736D02*
X014724Y021736D01*
X015720Y021639D02*
X015826Y021639D01*
X015902Y021542D02*
X015923Y021542D01*
X015993Y021445D02*
X016020Y021445D01*
X016033Y021348D02*
X016117Y021348D01*
X016162Y021251D02*
X016056Y021251D01*
X016056Y021154D02*
X016162Y021154D01*
X016162Y021057D02*
X016031Y021057D01*
X015991Y020960D02*
X016162Y020960D01*
X016162Y020863D02*
X015897Y020863D01*
X016000Y020766D02*
X016162Y020766D01*
X016162Y020669D02*
X016097Y020669D01*
X016403Y020418D02*
X016403Y021402D01*
X015798Y022007D01*
X015798Y022101D01*
X015798Y022851D01*
X016298Y023351D01*
X016762Y023578D02*
X016834Y023578D01*
X016893Y023675D02*
X016703Y023675D01*
X016606Y023772D02*
X016990Y023772D01*
X017298Y023351D02*
X016798Y022851D01*
X016798Y022101D01*
X016798Y021798D01*
X016599Y021599D01*
X016599Y019434D01*
X016403Y019434D02*
X016403Y020418D01*
X016402Y021742D02*
X016038Y022106D01*
X016038Y022149D01*
X016038Y022752D01*
X016144Y022857D01*
X016196Y022835D01*
X016401Y022835D01*
X016559Y022901D01*
X016558Y022899D01*
X016558Y022149D01*
X016558Y021897D01*
X016402Y021742D01*
X016311Y021833D02*
X016494Y021833D01*
X016558Y021930D02*
X016214Y021930D01*
X016117Y022027D02*
X016558Y022027D01*
X016558Y022124D02*
X016038Y022124D01*
X016038Y022221D02*
X016558Y022221D01*
X016558Y022318D02*
X016038Y022318D01*
X016038Y022415D02*
X016558Y022415D01*
X016558Y022512D02*
X016038Y022512D01*
X016038Y022609D02*
X016558Y022609D01*
X016558Y022706D02*
X016038Y022706D01*
X016089Y022803D02*
X016558Y022803D01*
X016556Y022900D02*
X016558Y022900D01*
X017606Y023772D02*
X017990Y023772D01*
X017893Y023675D02*
X017703Y023675D01*
X017762Y023578D02*
X017834Y023578D01*
X019307Y024063D02*
X014330Y024063D01*
X014296Y023966D02*
X019404Y023966D01*
X018013Y027360D02*
X023666Y027360D01*
X023573Y027457D02*
X018107Y027457D01*
X018147Y027554D02*
X023522Y027554D01*
X023498Y027651D02*
X018176Y027651D01*
X018176Y027748D02*
X023498Y027748D01*
X023521Y027845D02*
X018161Y027845D01*
X018121Y027942D02*
X023570Y027942D01*
X023661Y028039D02*
X018048Y028039D01*
X017920Y028136D02*
X024575Y028136D01*
X024424Y028039D02*
X024183Y028039D01*
X024274Y027942D02*
X024342Y027942D01*
X024343Y027457D02*
X024272Y027457D01*
X024178Y027360D02*
X024428Y027360D01*
X023962Y027360D02*
X023883Y027360D01*
X023883Y027457D02*
X023962Y027457D01*
X023962Y027554D02*
X023883Y027554D01*
X023883Y027651D02*
X023962Y027651D01*
X023962Y027748D02*
X023883Y027748D01*
X023883Y027845D02*
X023962Y027845D01*
X023962Y027942D02*
X023883Y027942D01*
X023883Y028039D02*
X023962Y028039D01*
X024923Y028136D02*
X025598Y028136D01*
X025448Y028039D02*
X025073Y028039D01*
X025156Y027942D02*
X025366Y027942D01*
X025325Y027845D02*
X025196Y027845D01*
X025217Y027748D02*
X025304Y027748D01*
X025304Y027651D02*
X025217Y027651D01*
X025195Y027554D02*
X025327Y027554D01*
X025367Y027457D02*
X025154Y027457D01*
X025138Y027360D02*
X025452Y027360D01*
X025607Y027263D02*
X025138Y027263D01*
X025138Y027166D02*
X026460Y027166D01*
X026427Y027263D02*
X025938Y027263D01*
X026093Y027360D02*
X026275Y027360D01*
X026191Y027457D02*
X026178Y027457D01*
X026289Y027069D02*
X025138Y027069D01*
X025138Y026972D02*
X026198Y026972D01*
X026158Y026875D02*
X025138Y026875D01*
X025138Y026778D02*
X026131Y026778D01*
X026131Y026681D02*
X025138Y026681D01*
X025138Y026584D02*
X026148Y026584D01*
X026188Y026487D02*
X025138Y026487D01*
X025138Y026390D02*
X026127Y026390D01*
X025943Y026294D02*
X025138Y026294D01*
X025180Y026197D02*
X025846Y026197D01*
X024144Y025615D02*
X024015Y025615D01*
X023317Y025615D02*
X023267Y025615D01*
X024670Y024552D02*
X024798Y024424D01*
X024798Y021904D01*
X024970Y021736D02*
X030327Y021736D01*
X030327Y021833D02*
X025029Y021833D01*
X024873Y021639D02*
X030327Y021639D01*
X030327Y021542D02*
X024776Y021542D01*
X024679Y021445D02*
X030327Y021445D01*
X030327Y021348D02*
X024582Y021348D01*
X024485Y021251D02*
X030327Y021251D01*
X030327Y021154D02*
X024388Y021154D01*
X024291Y021057D02*
X030327Y021057D01*
X029837Y020960D02*
X029739Y020960D01*
X029739Y021000D02*
X029257Y021000D01*
X029219Y020990D01*
X029185Y020970D01*
X029157Y020943D01*
X029137Y020909D01*
X029127Y020871D01*
X029127Y020467D01*
X029739Y020467D01*
X029739Y021000D01*
X029739Y020863D02*
X029837Y020863D01*
X029837Y020766D02*
X029739Y020766D01*
X029739Y020669D02*
X029837Y020669D01*
X029837Y020572D02*
X029739Y020572D01*
X029739Y020475D02*
X029837Y020475D01*
X029739Y020378D02*
X028523Y020378D01*
X028523Y020281D02*
X029127Y020281D01*
X029127Y020184D02*
X028523Y020184D01*
X028523Y020088D02*
X029127Y020088D01*
X029127Y019991D02*
X028523Y019991D01*
X028510Y019894D02*
X029157Y019894D01*
X029127Y020475D02*
X028523Y020475D01*
X028523Y020572D02*
X029127Y020572D01*
X029127Y020669D02*
X028523Y020669D01*
X028523Y020766D02*
X029127Y020766D01*
X029127Y020863D02*
X028523Y020863D01*
X028492Y020960D02*
X029175Y020960D01*
X029739Y020281D02*
X029837Y020281D01*
X029837Y020184D02*
X029739Y020184D01*
X029739Y020088D02*
X029837Y020088D01*
X029837Y019991D02*
X029739Y019991D01*
X029739Y019894D02*
X029837Y019894D01*
X030327Y019797D02*
X028413Y019797D01*
X029241Y018633D02*
X029258Y018633D01*
X030029Y018536D02*
X030327Y018536D01*
X030327Y018439D02*
X030036Y018439D01*
X027117Y019991D02*
X024866Y019991D01*
X024963Y020088D02*
X027117Y020088D01*
X027117Y020184D02*
X025060Y020184D01*
X025080Y020281D02*
X026788Y020281D01*
X026691Y020378D02*
X025080Y020378D01*
X025080Y020475D02*
X026648Y020475D01*
X026624Y020572D02*
X025080Y020572D01*
X025042Y020669D02*
X026624Y020669D01*
X026653Y020766D02*
X024945Y020766D01*
X024848Y020863D02*
X026703Y020863D01*
X026800Y020960D02*
X024194Y020960D01*
X024280Y020863D02*
X024097Y020863D01*
X024071Y020766D02*
X024183Y020766D01*
X023883Y020615D02*
X024080Y020418D01*
X024564Y020418D01*
X023883Y020615D02*
X023292Y020615D01*
X023095Y019827D02*
X022702Y019827D01*
X022505Y019631D01*
X022505Y019434D01*
X022745Y019409D02*
X023174Y019409D01*
X023077Y019506D02*
X022745Y019506D01*
X022745Y019312D02*
X023271Y019312D01*
X023368Y019215D02*
X022745Y019215D01*
X022705Y019118D02*
X023465Y019118D01*
X020930Y019434D02*
X020930Y018449D01*
X020536Y018843D02*
X020733Y019040D01*
X020733Y019434D01*
X025606Y021930D02*
X030327Y021930D01*
X030327Y022027D02*
X025703Y022027D01*
X026438Y022221D02*
X028386Y022221D01*
X028321Y022318D02*
X026558Y022318D01*
X026618Y022415D02*
X028281Y022415D01*
X028274Y022512D02*
X028279Y022512D01*
X026128Y028039D02*
X026097Y028039D01*
X026128Y028136D02*
X025947Y028136D01*
X014880Y027263D02*
X014235Y027263D01*
X014413Y027360D02*
X014703Y027360D01*
X014609Y027457D02*
X014507Y027457D01*
X014547Y027554D02*
X014569Y027554D01*
X014594Y027942D02*
X014521Y027942D01*
X014448Y028039D02*
X014667Y028039D01*
X014795Y028136D02*
X014320Y028136D01*
X007452Y025615D02*
X007061Y025615D01*
X005531Y027360D02*
X005280Y027360D01*
X005374Y027457D02*
X005446Y027457D01*
X005444Y027942D02*
X005377Y027942D01*
X005285Y028039D02*
X005527Y028039D01*
X002205Y022609D02*
X001297Y022609D01*
X001297Y022512D02*
X002126Y022512D01*
X002012Y022415D02*
X001297Y022415D01*
X001297Y022318D02*
X001938Y022318D01*
X001917Y022221D02*
X001297Y022221D01*
X001297Y022124D02*
X001937Y022124D01*
X002008Y022027D02*
X001297Y022027D01*
X001297Y021930D02*
X001951Y021930D01*
X001859Y021833D02*
X001297Y021833D01*
X001297Y021736D02*
X001826Y021736D01*
X001826Y021639D02*
X001297Y021639D01*
X001297Y021542D02*
X001826Y021542D01*
X001836Y021445D02*
X001297Y021445D01*
X001297Y021348D02*
X001895Y021348D01*
X001863Y021380D02*
X001863Y021380D01*
X001955Y021288D02*
X001955Y021288D01*
X001972Y021251D02*
X001297Y021251D01*
X001297Y021154D02*
X001875Y021154D01*
X001828Y021057D02*
X001297Y021057D01*
X001297Y020960D02*
X001826Y020960D01*
X001864Y020863D02*
X001297Y020863D01*
X001297Y020766D02*
X001961Y020766D01*
X002100Y019118D02*
X001297Y019118D01*
X001297Y019021D02*
X002060Y019021D01*
X002032Y018924D02*
X001297Y018924D01*
X001297Y018827D02*
X002032Y018827D01*
X002040Y018730D02*
X001297Y018730D01*
X001297Y018633D02*
X002080Y018633D01*
X002134Y018536D02*
X001297Y018536D01*
X001297Y018439D02*
X002231Y018439D01*
X002429Y018342D02*
X001297Y018342D01*
X001297Y018245D02*
X002783Y018245D01*
X002813Y018215D02*
X002813Y018215D01*
X002880Y018148D02*
X001297Y018148D01*
X002667Y018342D02*
X002686Y018342D01*
X010807Y006609D02*
X013086Y006609D01*
X012127Y004476D02*
X012016Y004476D01*
X011107Y004886D02*
X011088Y004867D01*
X010756Y006124D02*
X008150Y006124D01*
X007660Y005639D02*
X007225Y005639D01*
X007225Y005736D02*
X007475Y005736D01*
X007388Y005833D02*
X007307Y005833D01*
X007159Y004282D02*
X008104Y004282D01*
X008158Y004185D02*
X007184Y004185D01*
X007184Y003603D02*
X009242Y003603D01*
X009242Y003700D02*
X008926Y003700D01*
X009023Y003797D02*
X009242Y003797D01*
X009242Y003894D02*
X009120Y003894D01*
X009217Y003991D02*
X009264Y003991D01*
X009314Y004088D02*
X009335Y004088D01*
X009411Y004185D02*
X009432Y004185D01*
X009508Y004282D02*
X009529Y004282D01*
X009605Y004379D02*
X009626Y004379D01*
X009053Y004670D02*
X008951Y004670D01*
X008991Y004573D02*
X009032Y004573D01*
X009012Y004766D02*
X008894Y004766D01*
X008797Y004863D02*
X008997Y004863D01*
X009242Y003506D02*
X007182Y003506D01*
X007184Y003409D02*
X007334Y003409D01*
X007189Y003312D02*
X007184Y003312D01*
X007754Y003409D02*
X009242Y003409D01*
X009242Y003312D02*
X007899Y003312D01*
X007988Y003215D02*
X009242Y003215D01*
X009242Y003118D02*
X008028Y003118D01*
X008060Y003021D02*
X009242Y003021D01*
X009242Y002924D02*
X008060Y002924D01*
X008057Y002827D02*
X009242Y002827D01*
X009242Y002730D02*
X008016Y002730D01*
X007969Y002633D02*
X009188Y002633D01*
X009091Y002536D02*
X008719Y002536D01*
X008859Y002439D02*
X009042Y002439D01*
X009001Y002342D02*
X008937Y002342D01*
X008977Y002245D02*
X008997Y002245D01*
X008994Y002148D02*
X008997Y002148D01*
X008994Y002051D02*
X009028Y002051D01*
X009068Y001954D02*
X008968Y001954D01*
X008928Y001857D02*
X009155Y001857D01*
X009296Y001760D02*
X008837Y001760D01*
X008220Y001760D02*
X005451Y001760D01*
X005428Y001760D02*
X005330Y001760D01*
X005307Y001760D02*
X004703Y001760D01*
X004794Y001857D02*
X005084Y001857D01*
X004992Y001954D02*
X004834Y001954D01*
X004860Y002051D02*
X004938Y002051D01*
X004912Y002148D02*
X004860Y002148D01*
X004843Y002245D02*
X005329Y002245D01*
X005330Y002148D02*
X005428Y002148D01*
X005428Y002051D02*
X005330Y002051D01*
X005330Y001954D02*
X005428Y001954D01*
X005428Y001857D02*
X005330Y001857D01*
X005674Y001857D02*
X006366Y001857D01*
X006038Y001954D02*
X005940Y001954D01*
X005940Y002051D02*
X006038Y002051D01*
X006038Y002148D02*
X005940Y002148D01*
X005940Y002245D02*
X006038Y002245D01*
X005940Y002342D02*
X005840Y002342D01*
X005584Y002245D02*
X005428Y002245D01*
X005428Y002342D02*
X005330Y002342D01*
X005330Y002439D02*
X005428Y002439D01*
X005428Y002536D02*
X005330Y002536D01*
X005330Y002633D02*
X005428Y002633D01*
X005542Y002730D02*
X003883Y002730D01*
X003923Y002827D02*
X005542Y002827D01*
X005542Y002924D02*
X003926Y002924D01*
X003926Y003021D02*
X005542Y003021D01*
X005542Y003118D02*
X003894Y003118D01*
X003854Y003215D02*
X005542Y003215D01*
X005542Y003312D02*
X003765Y003312D01*
X003620Y003409D02*
X005542Y003409D01*
X005989Y003686D02*
X005989Y003883D01*
X005969Y003902D01*
X005989Y003883D02*
X005989Y003686D01*
X005786Y004476D02*
X005678Y004476D01*
X005775Y004573D02*
X005883Y004573D01*
X005129Y002633D02*
X003835Y002633D01*
X003738Y002536D02*
X004205Y002536D01*
X004064Y002439D02*
X003555Y002439D01*
X003266Y002439D02*
X001297Y002439D01*
X001297Y002342D02*
X003986Y002342D01*
X003946Y002245D02*
X001297Y002245D01*
X001297Y002148D02*
X003929Y002148D01*
X003929Y002051D02*
X001297Y002051D01*
X001297Y001954D02*
X003955Y001954D01*
X003995Y001857D02*
X001297Y001857D01*
X001297Y001760D02*
X004086Y001760D01*
X004585Y002536D02*
X005016Y002536D01*
X004954Y002439D02*
X004725Y002439D01*
X004803Y002342D02*
X004917Y002342D01*
X003082Y002536D02*
X001297Y002536D01*
X001297Y002633D02*
X002985Y002633D01*
X002938Y002730D02*
X001297Y002730D01*
X001297Y002827D02*
X002898Y002827D01*
X002895Y002924D02*
X001297Y002924D01*
X001297Y003021D02*
X002895Y003021D01*
X002927Y003118D02*
X001297Y003118D01*
X002401Y005930D02*
X002452Y005930D01*
X007108Y001857D02*
X008129Y001857D01*
X008089Y001954D02*
X007184Y001954D01*
X007184Y002051D02*
X008063Y002051D01*
X008063Y002148D02*
X007184Y002148D01*
X007184Y002245D02*
X008080Y002245D01*
X008120Y002342D02*
X007184Y002342D01*
X007184Y002439D02*
X007400Y002439D01*
X007216Y002536D02*
X007184Y002536D01*
X007689Y002439D02*
X008198Y002439D01*
X008338Y002536D02*
X007872Y002536D01*
X015187Y003603D02*
X015500Y003603D01*
X015403Y003700D02*
X015282Y003700D01*
X015322Y003797D02*
X015328Y003797D01*
X015321Y004185D02*
X015328Y004185D01*
X015280Y004282D02*
X015407Y004282D01*
X015504Y004379D02*
X015183Y004379D01*
X015016Y004476D02*
X015601Y004476D01*
D32*
X017190Y006245D03*
X017190Y006835D03*
X017780Y006835D03*
X017780Y007426D03*
X018371Y007426D03*
X018962Y008016D03*
X019552Y008016D03*
X019552Y007426D03*
X020930Y006835D03*
X021717Y006835D03*
X022702Y007032D03*
X023292Y006638D03*
X023883Y006245D03*
X024473Y005851D03*
X025064Y005457D03*
X025654Y005064D03*
X027426Y008016D03*
X028410Y008016D03*
X028410Y009197D03*
X028410Y010575D03*
X028410Y011953D03*
X026639Y009394D03*
X024670Y009394D03*
X024670Y010575D03*
X024670Y011363D03*
X024670Y012150D03*
X024670Y013134D03*
X022308Y012544D03*
X021521Y012741D03*
X021521Y013922D03*
X022308Y014119D03*
X022308Y015300D03*
X021521Y016284D03*
X022308Y016875D03*
X020930Y017662D03*
X020930Y018449D03*
X022308Y018646D03*
X023292Y020615D03*
X025064Y019631D03*
X027032Y020615D03*
X026245Y022583D03*
X026245Y023568D03*
X024670Y024552D03*
X023686Y024552D03*
X026245Y025930D03*
X028804Y023174D03*
X029788Y016678D03*
X023489Y009985D03*
X022899Y010379D03*
X020733Y009394D03*
X020733Y008804D03*
X019946Y009001D03*
X019946Y009591D03*
X018568Y009197D03*
X018371Y009788D03*
X017584Y008607D03*
X016993Y009197D03*
X016403Y008607D03*
X016009Y009394D03*
X014828Y007820D03*
X013056Y007820D03*
X013056Y008607D03*
X015025Y011166D03*
X015812Y012741D03*
X016599Y013725D03*
X015812Y014709D03*
X015812Y015890D03*
X015812Y016973D03*
X016599Y017268D03*
X017584Y016678D03*
X017977Y017662D03*
X018568Y018449D03*
X018174Y020024D03*
X017977Y020615D03*
X018765Y020615D03*
X018962Y021205D03*
X019749Y021205D03*
X015615Y021205D03*
X015221Y021993D03*
X013056Y022386D03*
X012269Y022386D03*
X010300Y021599D03*
X009316Y023961D03*
X007741Y023961D03*
X007544Y017268D03*
X007517Y016660D03*
X007479Y016016D03*
X004591Y014709D03*
X006757Y012544D03*
X010103Y008804D03*
X009119Y007820D03*
X007741Y006048D03*
X006954Y006048D03*
X005379Y006048D03*
X008725Y005260D03*
X011088Y004867D03*
X012466Y005457D03*
X013253Y005457D03*
X016796Y007426D03*
X018568Y004670D03*
X021521Y002701D03*
X019749Y011953D03*
X020340Y012741D03*
X018765Y011953D03*
X017584Y012741D03*
X017584Y015103D03*
X020536Y015103D03*
X014631Y019827D03*
X012662Y014709D03*
X012662Y013134D03*
X013450Y011953D03*
D33*
X014843Y002989D02*
X014843Y001930D01*
X014828Y001914D01*
X011284Y001914D01*
X014828Y001914D02*
X018962Y001914D01*
X019749Y001914D01*
X020536Y001914D01*
X020595Y001914D01*
X021127Y001914D01*
X022505Y001914D01*
X023292Y001914D01*
X024080Y001914D01*
X024867Y001914D01*
X025458Y001914D01*
X025654Y001914D01*
X026048Y001914D01*
X026442Y002308D01*
X026442Y003095D01*
X026442Y005260D01*
X027820Y006638D01*
X028139Y006957D01*
X028304Y006957D01*
X025298Y023351D02*
X025298Y023999D01*
X025458Y024158D01*
X026245Y024946D01*
X026245Y025930D01*
X026599Y027701D02*
X026599Y029709D01*
X026048Y030260D01*
X008332Y030260D01*
X007702Y029631D01*
X007702Y027701D01*
D34*
X005969Y027583D02*
X005969Y027308D01*
X007347Y025930D01*
X008332Y025930D01*
X008725Y025536D01*
X008725Y025320D01*
X008745Y024552D02*
X008745Y024532D01*
X009316Y023961D01*
X007938Y025320D02*
X006973Y025320D01*
X005576Y026717D01*
X005025Y026717D01*
X005969Y027583D02*
X005851Y027701D01*
X007741Y024355D02*
X007741Y023961D01*
X013843Y023587D02*
X013843Y021599D01*
X006757Y012544D02*
X007190Y012111D01*
X007494Y012111D01*
X007741Y006048D02*
X007938Y005851D01*
X009710Y005851D01*
X010103Y005457D01*
X010103Y004473D01*
X009513Y003883D01*
X009513Y002229D01*
X008725Y003883D02*
X009513Y004670D01*
X009513Y004906D01*
X008725Y003883D02*
X006737Y003883D01*
X005989Y003883D02*
X005989Y004296D01*
X006954Y005260D01*
X006954Y006048D01*
X005379Y006048D02*
X004985Y005654D01*
X003017Y005654D01*
X003607Y005064D02*
X003214Y004670D01*
X002800Y004670D01*
X003607Y005064D02*
X005182Y005064D01*
X005340Y004906D01*
X005379Y004906D01*
X005969Y004079D02*
X005969Y003902D01*
X024670Y009394D02*
X024710Y009434D01*
X025190Y009434D01*
X025190Y011323D02*
X024710Y011323D01*
X024670Y011363D01*
X028410Y011953D02*
X029662Y011953D01*
X028410Y010575D02*
X028607Y010379D01*
X029662Y010379D01*
X028410Y009197D02*
X028804Y008804D01*
X029001Y008607D01*
X029119Y008489D01*
X029662Y008489D01*
X029662Y007859D02*
X028568Y007859D01*
X028410Y008016D01*
X029591Y016048D02*
X029591Y016678D01*
X029788Y016678D01*
X027820Y020418D02*
X027820Y020615D01*
X026245Y022583D02*
X026403Y022741D01*
X026481Y022741D01*
X027525Y022741D01*
X027525Y023056D02*
X028686Y023056D01*
X028804Y023174D01*
X027525Y023371D02*
X026639Y023371D01*
X026442Y023371D01*
X026245Y023568D01*
X024670Y024552D02*
X024493Y024729D01*
X024493Y025142D01*
X025241Y025142D02*
X025241Y025753D01*
X024867Y026127D01*
X024867Y027583D01*
X024749Y027701D01*
X023922Y026717D02*
X023883Y026717D01*
X022918Y025753D01*
X022918Y025142D01*
X023666Y025142D02*
X023666Y024571D01*
D35*
X029591Y017485D02*
X029591Y016875D01*
X029788Y016678D01*
X025654Y002524D02*
X025654Y001914D01*
X024867Y001914D02*
X024867Y002524D01*
X024080Y002524D02*
X024080Y001914D01*
X023292Y001914D02*
X023292Y002524D01*
X022505Y002524D02*
X022505Y001914D01*
X015615Y021205D02*
X014631Y021205D01*
X014237Y021599D01*
X013843Y021599D01*
X010300Y021599D01*
D36*
X013056Y024335D02*
X013843Y024335D01*
X010103Y008804D02*
X009119Y007820D01*
X011107Y005654D02*
X011107Y004886D01*
X011088Y004867D02*
X011088Y004473D01*
X010694Y004079D01*
X010694Y002505D01*
X011284Y001914D01*
X006737Y002308D02*
X006737Y003095D01*
X005989Y003095D02*
X005989Y003686D01*
X002800Y003883D02*
X002800Y004670D01*
X002052Y004670D02*
X002052Y005457D01*
X020340Y003292D02*
X020930Y003292D01*
X020930Y004079D01*
X021521Y004079D01*
X020930Y004079D02*
X020930Y004867D01*
X020930Y005863D01*
X020623Y005863D01*
X020930Y005863D02*
X022119Y005863D01*
X021540Y004867D02*
X020930Y004867D01*
X020930Y003292D02*
X020930Y002111D01*
X021127Y001914D01*
X021521Y002701D02*
X021521Y003292D01*
D37*
X020340Y003312D02*
X019712Y003312D01*
X019712Y001951D02*
X019749Y001914D01*
D38*
X027032Y020615D02*
X027820Y020615D01*
M02*
